<svg xmlns="http://www.w3.org/2000/svg" xmlns:xlink="http://www.w3.org/1999/xlink" xmlns:inkscape="http://www.inkscape.org/namespaces/inkscape" version="1.1" width="321.46" height="191.07" viewBox="0 0 321.46 191.07">
<defs>
<path id="font_1_1467" d="M.29699708 .44709779C.38598634 .40611268 .42199708 .36613465 .42199708 .2921753 .42199708 .19821167 .3769989 .06227112 .2559967 .06227112 .18299866 .06227112 .147995 .115249637 .147995 .19821167 .147995 .30316163 .1789856 .38113404 .29699708 .44709779M.35598756 .75C.21699524 .75 .16099549 .6629944 .16099549 .59802249 .16099549 .549057 .18199158 .5120697 .23899842 .4750824 .09700012 .41311646 .050994874 .3201599 .050994874 .20220948 .050994874 .07527161 .12799073-.01171875 .25299073-.01171875 .43998719-.01171875 .5189972 .16622925 .5189972 .2891693 .5189972 .39411927 .46099855 .45309449 .35598756 .5010681 .27598573 .53704836 .2539978 .5570526 .2539978 .60102847 .2539978 .63900759 .28399659 .6779938 .3600006 .6779938 .40299989 .6779938 .43499757 .66799929 .47299195 .63700869L.522995 .68899539C.47898866 .7279968 .42999269 .75 .35598756 .75Z"/>
<path id="font_1_18" d="M.27598573 0H.36799623V.6894531H.2869873L.07998657 .5613556 .11999512 .49632264 .27598573 .5913849V0Z"/>
<path id="font_1_19" d="M.2579956 .7011719C.16299439 .7011719 .09899902 .66716006 .04499817 .6001587L.10699463 .5521393C.1499939 .6031647 .18699646 .62516787 .25299073 .62516787 .32798768 .62516787 .37298585 .57914736 .37298585 .5041199 .37298585 .39509584 .31498719 .31906129 .05899048 .07299805V0H.47399903L.4850006 .07699585H.1639862C.3889923 .28205873 .46899415 .38308717 .46899415 .50813296 .46899415 .617157 .3909912 .7011719 .2579956 .7011719Z"/>
<path id="font_1_17" d="M.27999879 .62815859C.36299134 .62815859 .4079895 .55218508 .4079895 .34521485 .4079895 .13725281 .36299134 .061279298 .27999879 .061279298 .19599915 .061279298 .1519928 .13725281 .1519928 .34521485 .1519928 .55218508 .19599915 .62815859 .27999879 .62815859M.27999879 .7011719C.12998963 .7011719 .055999757 .5781708 .055999757 .34521485 .055999757 .11225891 .12998963-.01171875 .27999879-.01171875 .42999269-.01171875 .5039978 .11225891 .5039978 .34521485 .5039978 .57717898 .42999269 .7011719 .27999879 .7011719Z"/>
<path id="font_1_15" d="M.11898804 .12727356C.07998657 .12727356 .049987794 .0962677 .049987794 .058273317 .049987794 .01927185 .07998657-.01171875 .11898804-.01171875 .15899658-.01171875 .18899536 .01927185 .18899536 .058273317 .18899536 .0962677 .15899658 .12727356 .11898804 .12727356Z"/>
<path id="font_1_754" d="M.06199646 .2421875H.43798829V.31817628H.06199646V.2421875Z"/>
<path id="font_1_30" d="M.06199646 .14567566H.43798829V.22167969H.06199646V.14567566M.06199646 .33805848H.43798829V.4140625H.06199646V.33805848Z"/>
<path id="font_1_113" d="M.06199646 .31169129H.20799256V.16265869H.2919922V.31169129H.43798829V.3876953H.2919922V.53808596H.20799256V.3876953H.06199646V.31169129M.06199646 .021652222H.43798829V.09765625H.06199646V.021652222Z"/>
<path id="font_2_22515" d="M.5089874 .70410159V.766098H.07598877V-.03756714H.5019989C.5159912-.047576906 .5369873-.06858826 .5479889-.08358765 .6439972 .014434814 .69299319 .12652588 .71798709 .23564148 .7569885 .103500369 .81700137 .009429932 .91600039-.07759094 .9249878-.05958557 .94400027-.03857422 .96099856-.026565552 .83599856 .07748413 .7749939 .19560242 .7389984 .39779664 .7409973 .42782594 .7409973 .45684815 .7409973 .48287965V.5519409H.67900088V.48387147C.67900088 .34173585 .66600039 .13653565 .5099945-.027572632V.0234375H.14199829V.10650635C.1559906 .09750366 .1789856 .07948303 .18899536 .06947327 .24398804 .13153076 .2939911 .206604 .33999635 .291687 .3809967 .22062683 .4149933 .15455628 .43699647 .102508548L.49499513 .13453675C.46899415 .19560242 .4249878 .27467347 .37298585 .35775758 .41600038 .44584657 .45298768 .54293826 .48298646 .6420288L.4229889 .65504458C.39898683 .5729675 .36999513 .4928894 .33499146 .41680909 .2899933 .48687745 .24099732 .5559387 .19400025 .6170044L.14199829 .588974C.19599915 .5179138 .25299073 .43382264 .3039856 .3517456 .25698854 .2606659 .20199585 .17857361 .14199829 .11351013V.70410159H.5089874M.9099884 .67626956H.644989C.6579895 .725296 .6689911 .77731326 .6779938 .8303375L.6139984 .8403473C.59098818 .6872711 .5479889 .5401764 .47799684 .44602967 .49398805 .43902589 .522995 .42199708 .5349884 .4119873 .57199099 .46606446 .60198977 .53515627 .6269989 .61328127H.8909912C.8769989 .5461731 .8580017 .47306825 .83999636 .42601014L.8939972 .4099884C.91999819 .47407533 .94699099 .57821658 .96598818 .66526797L.9219971 .6792755 .9099884 .67626956Z"/>
<path id="font_2_22958" d="M.54499819 .4478302H.23799134V.6721039C.33099366 .67910769 .43099977 .6891327 .5269928 .70114138 .5289917 .61203 .5349884 .52693179 .54499819 .4478302M.8569946 .7622223 .82199099 .82229617C.66999819 .778244 .3959961 .7451935 .17098999 .72817996V.06668091C.17098999 .027664185 .15098572 .0096588139 .13598633 .001663208 .1459961-.01133728 .16099549-.04034424 .1659851-.056350709 .18798828-.04034424 .22599793-.02835083 .5319977 .062683109 .5279999 .076690677 .526001 .10470581 .526001 .12371826L.23799134 .043670656V.38183595H.5549927C.59799197 .1157074 .69099429-.068344119 .8450012-.06933594 .91799929-.06933594 .94499209-.02633667 .95700076 .11871338 .93899539 .12371826 .91400149 .13772583 .8989868 .15171814 .8929901 .03868103 .8809967-.0023498536 .848999-.0023498536 .7409973-.0023498536 .6619873 .14872742 .6230011 .38183595H.94599917V.4478302H.61299136C.60198977 .5279236 .59599307 .6170349 .59498599 .7101593 .69400027 .72517397 .7849884 .7421875 .8569946 .7622223Z"/>
<path id="font_2_20139" d="M.5089874 .8433075 .44499208 .8182831C.46998597 .7702179 .5009918 .70513918 .5139923 .66508486L.58200076 .6941223C.5669861 .73417666 .5359955 .7962494 .5089874 .8433075M.83399966 .43066407H.40499879C.41299439 .48680116 .4169922 .54293826 .41999818 .5980835H.93299868V.66308596H.070999149V.5980835H.34799195C.33499146 .36566163 .30899049 .09957886 .04798889-.028457642 .06599426-.04145813 .08699036-.064453128 .09799194-.08151245 .28799439 .017547608 .36299134 .18659973 .394989 .36566163H.7609863C.74398806 .12957764 .723999 .031555177 .69400027 .0055389406 .6819916-.0034637452 .66999819-.006454468 .6469879-.006454468 .62098696-.006454468 .5509949-.0054626467 .47799684 .0015411377 .4909973-.016464234 .5-.04446411 .5019989-.064453128 .56900027-.06846619 .6349945-.07048035 .66999819-.06846619 .70700076-.065460208 .73098757-.0594635 .7519989-.035461427 .79100039 .003540039 .8109894 .111572269 .83200076 .39665223 .83299258 .4076538 .83399966 .43066407 .83399966 .43066407Z"/>
<path id="font_2_11985" d="M.5239868 .82728579 .44198609 .8413086C.4269867 .79022219 .40098573 .7191162 .37599183 .66503909H.100997928V-.07879639H.16699219V.59902957H.83799746V.014312744C.83799746-.004776001 .83299258-.009796143 .8129883-.010803223 .79100039-.011795044 .7220001-.012802124 .6469879-.0087890629 .6579895-.028793335 .66799929-.059799196 .67099-.07879639 .7630005-.07879639 .82499697-.07778931 .8600006-.0677948 .8939972-.05580139 .9049988-.032791139 .9049988 .013305664V.66503909H.44999696C.47499085 .71310427 .5019989 .77319338 .5239868 .82728579M.69599917 .45996095H.3039856V.058517457H.3659973V.13085938H.69599917V.45996095M.3659973 .3989563H.6339874V.19184876H.3659973V.3989563Z"/>
<path id="font_1_1525" d="M.2899933 .4237213C.35598756 .38970948 .37998963 .35969544 .37998963 .30368043 .37998963 .22666931 .35299684 .09863281 .25898744 .09863281 .20999146 .09863281 .18499756 .1346283 .18499756 .1956482 .18499756 .27767945 .20098877 .3587036 .2899933 .4237213M.34999085 .75878909C.19999695 .75878909 .13198853 .67178347 .13198853 .59677127 .13198853 .54875186 .15098572 .5067444 .21199036 .46572877 .067993167 .40870667 .025985718 .30969239 .025985718 .1976471 .025985718 .07762146 .10798645-.01737976 .24899292-.01737976 .46199037-.01737976 .5399933 .17164612 .5399933 .29768373 .5399933 .40771485 .48199464 .46772767 .36698915 .517746 .29699708 .54776 .2809906 .5627594 .2809906 .59376528 .2809906 .6217804 .3039856 .64878848 .3619995 .64878848 .40098573 .64878848 .43299867 .6357727 .46598817 .60676577L.5439911 .68478396C.5039978 .7267761 .44400025 .75878909 .34999085 .75878909Z"/>
<path id="font_1_38" d="M.47299195 .6894531H.099990848V0H.48098756V.07598877H.19499207V.3125H.4269867V.38848878H.19499207V.6134491H.46199037L.47299195 .6894531Z"/>
<path id="font_2_33292" d="M.23399353 .47802735V.6361847H.7799988V.47802735H.23399353M.23399353 .41503907H.7799988V.25976563H.23399353V.41503907M.23399353 .1977539H.7799988V.040527345H.23399353V.1977539M.5369873 .8293152 .45999146 .8403168C.45199586 .8002777 .43399049 .745224 .4189911 .7001953H.1659851V-.08055115H.23399353V-.022460938H.7799988V-.074539188H.848999V.7001953H.4850006C.5029907 .7392273 .5209961 .78627017 .5369873 .8293152Z"/>
<path id="font_2_25231" d="M.81399539 .814209 .7649994 .7861328C.80599978 .7450409 .8529968 .68603518 .8739929 .6480408L.9249878 .68203738C.9029999 .7190399 .8549957 .7751007 .81399539 .814209M.40899659 .118621829 .34799195 .11260986C.3600006 .05355835 .36799623-.023513794 .36898805-.0705719L.43399049-.060562135C.43299867-.01651001 .4229889 .060562135 .40899659 .118621829M.6159973 .12661743 .5549927 .114608768C.58099368 .05555725 .6069946-.021514893 .61698916-.06956482L.6819916-.05455017C.6719971-.007507324 .6429901 .06956482 .6159973 .12661743M.82099917 .14564514 .7619934 .12062073C.8129883 .058563234 .8699951-.027526856 .894989-.080581668L.95700076-.05154419C.9299927 .0015106201 .871994 .08558655 .82099917 .14564514M.23699951 .12261963 .17599488 .13864136C.14199829 .0705719 .08898926-.006500244 .042999269-.05354309L.10499573-.078567508C.1519928-.026519776 .20199585 .05355835 .23699951 .12261963M.73098757 .6490326V.82724H.6669922V.6500397 .6230469H.49899293V.55903628H.6619873C.6459961 .43992616 .58898928 .3087921 .39898683 .20970154 .4149933 .19668579 .43598939 .17767334 .44699098 .16265869 .598999 .24372864 .67099 .3458252 .70399478 .4499359 .7480011 .32380677 .81599429 .22572327 .9129944 .1666565 .9229889 .18367005 .94299319 .20869446 .95799258 .22071839 .84399417 .2817688 .769989 .4058838 .7319946 .55903628H.94200137V.6230469H.73098757V.6490326M.32499696 .8292389 .26098634 .84628298C.22200012 .7230377 .13999939 .57803347 .036987306 .4889679 .050994874 .47795106 .07199097 .4589386 .08299255 .44592286 .15499878 .5109863 .21699524 .6000366 .2649994 .69203189H.43699647C.4249878 .64404299 .40899659 .5990448 .3909912 .5580292 .35398866 .5820465 .30799867 .6080322 .2669983 .6250458L.23599243 .58503726C.2789917 .56503298 .32998658 .5350189 .36698915 .5099945 .34799195 .47595216 .32798768 .44493104 .30499269 .41690064 .269989 .44493104 .22200012 .47595216 .18199158 .49797059L.14399719 .46194459C.18598938 .43692018 .23399353 .40289308 .2679901 .3738556 .20799256 .31080628 .13699341 .26374818 .05899048 .22972107 .07299805 .2197113 .09599304 .19367981 .10499573 .17767334 .29599 .26675416 .45098878 .44091798 .5119934 .7330322L.47200013 .7500458 .45899964 .7480469H.2919922C.3039856 .7751007 .31498719 .8021698 .32499696 .8292389Z"/>
<path id="font_1_39" d="M.099990848 0H.19499207V.30291749H.41999818V.3779297H.19499207V.6134491H.45498658L.46598817 .6894531H.099990848V0Z"/>
</defs>
<path transform="matrix(1,0,0,-1,1.9929962,189.07701)" d="M154.20592 96.37868C154.20592 133.9524 151.16005 164.41104 147.4027 164.41104 143.64534 164.41104 140.59947 133.9524 140.59947 96.37868 140.59947 58.80496 143.64534 28.34631 147.4027 28.34631 151.16005 28.34631 154.20592 58.80496 154.20592 96.37868ZM147.4027 96.37868" fill="#f4f5f6"/>
<path transform="matrix(1,0,0,-1,1.9929962,189.07701)" stroke-width=".79701" stroke-linecap="butt" stroke-miterlimit="10" stroke-linejoin="miter" fill="none" stroke="#6b7280" d="M154.20592 96.37868C154.20592 133.9524 151.16005 164.41104 147.4027 164.41104 143.64534 164.41104 140.59947 133.9524 140.59947 96.37868 140.59947 58.80496 143.64534 28.34631 147.4027 28.34631 151.16005 28.34631 154.20592 58.80496 154.20592 96.37868ZM147.4027 96.37868"/>
<path transform="matrix(1,0,0,-1,1.9929962,189.07701)" stroke-width=".59776" stroke-linecap="butt" stroke-miterlimit="10" stroke-linejoin="miter" fill="none" stroke="#4c4d4f" d="M73.70134 96.37868H214.31626"/>
<path transform="matrix(1,0,0,-1,216.30925,92.69833)" d="M2.69441 0C2.36353 .08139 .90904 .5426 0 1.04451V-1.04451C.90904-.5426 2.36353-.08139 2.69441 0Z" fill="#4c4d4f"/>
<path transform="matrix(1,0,0,-1,216.30925,92.69833)" stroke-width=".59776" stroke-linecap="butt" stroke-miterlimit="10" stroke-linejoin="miter" fill="none" stroke="#4c4d4f" d="M2.69441 0C2.36353 .08139 .90904 .5426 0 1.04451V-1.04451C.90904-.5426 2.36353-.08139 2.69441 0Z"/>
<use data-text="&#x1d6ff;" xlink:href="#font_1_1467" transform="matrix(7.9701,0,0,-7.9701,221.558,94.29201)" fill="#3b4252"/>
<use data-text="1" xlink:href="#font_1_18" transform="matrix(5.9776,0,0,-5.9776,226.13199,97.08201)" fill="#3b4252"/>
<path transform="matrix(1,0,0,-1,1.9929962,189.07701)" stroke-width=".59776" stroke-linecap="butt" stroke-miterlimit="10" stroke-linejoin="miter" fill="none" stroke="#4c4d4f" d="M147.4027 17.008V171.79625"/>
<path transform="matrix(0,-1,-1,-0,149.39569,17.280762)" d="M2.69441 0C2.36353 .08139 .90904 .5426 0 1.04451V-1.04451C.90904-.5426 2.36353-.08139 2.69441 0Z" fill="#4c4d4f"/>
<path transform="matrix(0,-1,-1,-0,149.39569,17.280762)" stroke-width=".59776" stroke-linecap="butt" stroke-miterlimit="10" stroke-linejoin="miter" fill="none" stroke="#4c4d4f" d="M2.69441 0C2.36353 .08139 .90904 .5426 0 1.04451V-1.04451C.90904-.5426 2.36353-.08139 2.69441 0Z"/>
<use data-text="&#x1d6ff;" xlink:href="#font_1_1467" transform="matrix(7.9701,0,0,-7.9701,145.185,9.243011)" fill="#3b4252"/>
<use data-text="2" xlink:href="#font_1_19" transform="matrix(5.9776,0,0,-5.9776,149.759,12.033012)" fill="#3b4252"/>
<path transform="matrix(1,0,0,-1,1.9929962,189.07701)" stroke-width=".59776" stroke-linecap="butt" stroke-miterlimit="10" stroke-linejoin="miter" fill="none" stroke="#4c4d4f" d="M144.56803 164.41069H150.23737"/>
<path transform="matrix(1,0,0,-1,1.9929962,189.07701)" stroke-width=".59776" stroke-linecap="butt" stroke-miterlimit="10" stroke-linejoin="miter" fill="none" stroke="#4c4d4f" d="M144.56803 28.34666H150.23737"/>
<use data-text="0" xlink:href="#font_1_17" transform="matrix(7.9701,0,0,-7.9701,162.079,27.412018)" fill="#3b4252"/>
<use data-text="." xlink:href="#font_1_15" transform="matrix(7.9701,0,0,-7.9701,166.54225,27.412018)" fill="#3b4252"/>
<use data-text="1" xlink:href="#font_1_18" transform="matrix(7.9701,0,0,-7.9701,168.45508,27.412018)" fill="#3b4252"/>
<use data-text="&#x2212;" xlink:href="#font_1_754" transform="matrix(7.9701,0,0,-7.9701,162.079,171.98001)" fill="#3b4252"/>
<use data-text="0" xlink:href="#font_1_17" transform="matrix(7.9701,0,0,-7.9701,166.06404,171.98001)" fill="#3b4252"/>
<use data-text="." xlink:href="#font_1_15" transform="matrix(7.9701,0,0,-7.9701,170.5273,171.98001)" fill="#3b4252"/>
<use data-text="1" xlink:href="#font_1_18" transform="matrix(7.9701,0,0,-7.9701,172.44013,171.98001)" fill="#3b4252"/>
<use data-text="0" xlink:href="#font_1_17" transform="matrix(7.9701,0,0,-7.9701,156.41,88.42301)" fill="#3b4252"/>
<use data-text="&#x1d6ff;" xlink:href="#font_1_1467" transform="matrix(7.9701,0,0,-7.9701,92.086,51.77202)" fill="#3b4252"/>
<use data-text="1" xlink:href="#font_1_18" transform="matrix(5.9776,0,0,-5.9776,96.659999,54.56202)" fill="#3b4252"/>
<use data-text="=" xlink:href="#font_1_30" transform="matrix(7.9701,0,0,-7.9701,102.72,51.77202)" fill="#3b4252"/>
<use data-text="&#x00b1;" xlink:href="#font_1_113" transform="matrix(7.9701,0,0,-7.9701,108.912769,51.77202)" fill="#3b4252"/>
<use data-text="0" xlink:href="#font_1_17" transform="matrix(7.9701,0,0,-7.9701,112.89781,51.77202)" fill="#3b4252"/>
<use data-text="." xlink:href="#font_1_15" transform="matrix(7.9701,0,0,-7.9701,117.36107,51.77202)" fill="#3b4252"/>
<use data-text="0" xlink:href="#font_1_17" transform="matrix(7.9701,0,0,-7.9701,119.273899,51.77202)" fill="#3b4252"/>
<use data-text="1" xlink:href="#font_1_18" transform="matrix(7.9701,0,0,-7.9701,123.73715,51.77202)" fill="#3b4252"/>
<path transform="matrix(1,0,0,-1,1.9929962,189.07701)" stroke-width=".49814" stroke-linecap="butt" stroke-miterlimit="10" stroke-linejoin="miter" fill="none" stroke="#6b7280" d="M127.56003 130.39469 140.5995 96.37868"/>
<path transform="matrix(1,0,0,-1,1.9929962,189.07701)" stroke-width=".99628" stroke-linecap="butt" stroke-dasharray="2.98883,2.98883" stroke-miterlimit="10" stroke-linejoin="miter" fill="none" stroke="#7b95c6" d="M147.4027 96.37868 143.33925 92.31523"/>
<path transform="matrix(-.7071,.7071,.7071,.7071,145.33225,96.76178)" d="M2.03621 0C1.78615 .06444 .68697 .42964 0 .82707V-.82707C.68697-.42964 1.78615-.06444 2.03621 0Z" fill="#7b95c6"/>
<path transform="matrix(-.7071,.7071,.7071,.7071,145.33225,96.76178)" stroke-width=".85037" stroke-linecap="butt" stroke-miterlimit="10" stroke-linejoin="miter" fill="none" stroke="#7b95c6" d="M2.03621 0C1.78615 .06444 .68697 .42964 0 .82707V-.82707C.68697-.42964 1.78615-.06444 2.03621 0Z"/>
<path transform="matrix(1,0,0,-1,1.9929962,189.07701)" d="M142.61756 89.60927C142.61756 90.70517 141.72917 91.59354 140.63329 91.59354 139.53739 91.59354 138.64902 90.70517 138.64902 89.60927 138.64902 88.51338 139.53739 87.625 140.63329 87.625 141.72917 87.625 142.61756 88.51338 142.61756 89.60927ZM140.63329 89.60927" fill="#7b95c6"/>
<path transform="matrix(1,0,0,-1,1.9929962,189.07701)" stroke-width=".59776" stroke-linecap="butt" stroke-miterlimit="10" stroke-linejoin="miter" fill="none" stroke="#7b95c6" d="M140.63329 89.60927 102.04802 73.70134H62.36267"/>
<use data-text="&#x6b27;" xlink:href="#font_2_22515" transform="matrix(7.9701,0,0,-7.9701,54.795,128.67902)" fill="#7b95c6"/>
<use data-text="&#x6c0f;" xlink:href="#font_2_22958" transform="matrix(7.9701,0,0,-7.9701,62.7651,128.67902)" fill="#7b95c6"/>
<use data-text="&#x65b9;" xlink:href="#font_2_20139" transform="matrix(7.9701,0,0,-7.9701,70.7352,128.67902)" fill="#7b95c6"/>
<use data-text="&#x5411;" xlink:href="#font_2_11985" transform="matrix(7.9701,0,0,-7.9701,78.7053,128.67902)" fill="#7b95c6"/>
<use data-text="&#x1d739;" xlink:href="#font_1_1525" transform="matrix(7.9701,0,0,-7.9701,88.787,128.67902)" fill="#7b95c6"/>
<use data-text="E" xlink:href="#font_1_38" transform="matrix(5.9776,0,0,-5.9776,93.33,131.46901)" fill="#7b95c6"/>
<path transform="matrix(1,0,0,-1,1.9929962,189.07701)" stroke-width=".99628" stroke-linecap="butt" stroke-miterlimit="10" stroke-linejoin="miter" fill="none" stroke="#c85e62" d="M147.4027 96.37868 146.7643 32.51015"/>
<path transform="matrix(-.01,.99991,.99991,.01,148.75731,156.56685)" d="M2.03621 0C1.78615 .06444 .68697 .42964 0 .82707V-.82707C.68697-.42964 1.78615-.06444 2.03621 0Z" fill="#c85e62"/>
<path transform="matrix(-.01,.99991,.99991,.01,148.75731,156.56685)" stroke-width=".85037" stroke-linecap="butt" stroke-miterlimit="10" stroke-linejoin="miter" fill="none" stroke="#c85e62" d="M2.03621 0C1.78615 .06444 .68697 .42964 0 .82707V-.82707C.68697-.42964 1.78615-.06444 2.03621 0Z"/>
<path transform="matrix(1,0,0,-1,1.9929962,189.07701)" d="M144.74182 26.69943V30.66795H148.71033V26.69943ZM148.71033 30.66795" fill="#c85e62"/>
<path transform="matrix(1,0,0,-1,1.9929962,189.07701)" stroke-width=".59776" stroke-linecap="butt" stroke-miterlimit="10" stroke-linejoin="miter" fill="none" stroke="#c85e62" d="M146.72608 28.6837 187.08803 45.35468"/>
<use data-text="&#x81ea;" xlink:href="#font_2_33292" transform="matrix(7.9701,0,0,-7.9701,196.09499,145.699)" fill="#c85e62"/>
<use data-text="&#x7136;" xlink:href="#font_2_25231" transform="matrix(7.9701,0,0,-7.9701,204.0651,145.699)" fill="#c85e62"/>
<use data-text="&#x65b9;" xlink:href="#font_2_20139" transform="matrix(7.9701,0,0,-7.9701,212.03519,145.699)" fill="#c85e62"/>
<use data-text="&#x5411;" xlink:href="#font_2_11985" transform="matrix(7.9701,0,0,-7.9701,220.00528,145.699)" fill="#c85e62"/>
<use data-text="&#x1d739;" xlink:href="#font_1_1525" transform="matrix(7.9701,0,0,-7.9701,230.08699,145.699)" fill="#c85e62"/>
<use data-text="F" xlink:href="#font_1_39" transform="matrix(5.9776,0,0,-5.9776,234.62999,148.48902)" fill="#c85e62"/>
</svg>
