<?xml version="1.0" encoding="utf-8" standalone="no"?>
<!DOCTYPE svg PUBLIC "-//W3C//DTD SVG 1.1//EN"
  "http://www.w3.org/Graphics/SVG/1.1/DTD/svg11.dtd">
<svg xmlns:xlink="http://www.w3.org/1999/xlink" width="479.055118pt" height="189.92126pt" viewBox="0 0 479.055118 189.92126" xmlns="http://www.w3.org/2000/svg" version="1.1">
 <metadata>
  <rdf:RDF xmlns:dc="http://purl.org/dc/elements/1.1/" xmlns:cc="http://creativecommons.org/ns#" xmlns:rdf="http://www.w3.org/1999/02/22-rdf-syntax-ns#">
   <cc:Work>
    <dc:type rdf:resource="http://purl.org/dc/dcmitype/StillImage"/>
    <dc:date>2026-10-10T11:26:45.230711</dc:date>
    <dc:format>image/svg+xml</dc:format>
    <dc:creator>
     <cc:Agent>
      <dc:title>Matplotlib v3.9.4, https://matplotlib.org/</dc:title>
     </cc:Agent>
    </dc:creator>
   </cc:Work>
  </rdf:RDF>
 </metadata>
 <defs>
  <style type="text/css">*{stroke-linejoin: round; stroke-linecap: butt}</style>
 </defs>
 <g id="figure_1">
  <g id="patch_1">
   <path d="M 0 189.92126 
L 479.055118 189.92126 
L 479.055118 0 
L 0 0 
z
" style="fill: #ffffff"/>
  </g>
  <g id="axes_1">
   <g id="patch_2">
    <path d="M 35.78024 157.03227 
L 226.818569 157.03227 
L 226.818569 16.72899 
L 35.78024 16.72899 
z
" style="fill: #ffffff"/>
   </g>
   <g id="matplotlib.axis_1">
    <g id="xtick_1">
     <g id="line2d_1">
      <defs>
       <path id="m4ed90b27c0" d="M 0 0 
L 0 3.5 
" style="stroke: #4c4d4f; stroke-width: 0.6"/>
      </defs>
      <g>
       <use xlink:href="#m4ed90b27c0" x="80.802012" y="157.03227" style="fill: #4c4d4f; stroke: #4c4d4f; stroke-width: 0.6"/>
      </g>
     </g>
     <g id="text_1">
      <!-- 0.2 -->
      <g style="fill: #4c4d4f" transform="translate(75.362012 170.03227) scale(0.08 -0.08)">
       <defs>
        <path id="FiraMath-Regular-30" d="M 1792 4019 
C 2323 4019 2611 3533 2611 2208 
C 2611 877 2323 390 1792 390 
C 1254 390 973 877 973 2208 
C 973 3533 1254 4019 1792 4019 
z
M 1792 4486 
C 832 4486 358 3699 358 2208 
C 358 717 832 -77 1792 -77 
C 2752 -77 3226 717 3226 2208 
C 3226 3693 2752 4486 1792 4486 
z
" transform="scale(0.015625)"/>
        <path id="FiraMath-Regular-2e" d="M 762 813 
C 512 813 320 614 320 371 
C 320 122 512 -77 762 -77 
C 1018 -77 1210 122 1210 371 
C 1210 614 1018 813 762 813 
z
" transform="scale(0.015625)"/>
        <path id="FiraMath-Regular-32" d="M 1651 4486 
C 1043 4486 634 4269 288 3840 
L 685 3533 
C 960 3859 1197 4000 1619 4000 
C 2099 4000 2387 3706 2387 3226 
C 2387 2528 2016 2042 378 467 
L 378 0 
L 3034 0 
L 3104 493 
L 1050 493 
C 2490 1805 3002 2451 3002 3251 
C 3002 3949 2502 4486 1651 4486 
z
" transform="scale(0.015625)"/>
       </defs>
       <use xlink:href="#FiraMath-Regular-30"/>
       <use xlink:href="#FiraMath-Regular-2e" x="55.999985"/>
       <use xlink:href="#FiraMath-Regular-32" x="79.999969"/>
      </g>
     </g>
    </g>
    <g id="xtick_2">
     <g id="line2d_2">
      <g>
       <use xlink:href="#m4ed90b27c0" x="129.474198" y="157.03227" style="fill: #4c4d4f; stroke: #4c4d4f; stroke-width: 0.6"/>
      </g>
     </g>
     <g id="text_2">
      <!-- 0.4 -->
      <g style="fill: #4c4d4f" transform="translate(124.034198 170.03227) scale(0.08 -0.08)">
       <defs>
        <path id="FiraMath-Regular-34" d="M 3270 1523 
L 2714 1523 
L 2714 2752 
L 2202 2752 
L 2150 1523 
L 934 1523 
L 2093 4282 
L 1600 4486 
L 314 1478 
L 314 1056 
L 2144 1056 
L 2144 0 
L 2714 0 
L 2714 1056 
L 3270 1056 
L 3270 1523 
z
" transform="scale(0.015625)"/>
       </defs>
       <use xlink:href="#FiraMath-Regular-30"/>
       <use xlink:href="#FiraMath-Regular-2e" x="55.999985"/>
       <use xlink:href="#FiraMath-Regular-34" x="79.999969"/>
      </g>
     </g>
    </g>
    <g id="xtick_3">
     <g id="line2d_3">
      <g>
       <use xlink:href="#m4ed90b27c0" x="178.146383" y="157.03227" style="fill: #4c4d4f; stroke: #4c4d4f; stroke-width: 0.6"/>
      </g>
     </g>
     <g id="text_3">
      <!-- 0.6 -->
      <g style="fill: #4c4d4f" transform="translate(172.706383 170.03227) scale(0.08 -0.08)">
       <defs>
        <path id="FiraMath-Regular-36" d="M 1869 390 
C 1280 390 1024 838 1005 1818 
C 1222 2176 1542 2413 1926 2413 
C 2355 2413 2656 2176 2656 1466 
C 2656 806 2387 390 1869 390 
z
M 2029 2880 
C 1626 2880 1280 2707 998 2310 
C 1024 3354 1408 4019 2048 4019 
C 2285 4019 2509 3955 2707 3834 
L 2938 4224 
C 2688 4390 2400 4486 2054 4486 
C 1024 4486 403 3539 403 2074 
C 403 781 806 -77 1869 -77 
C 2637 -77 3258 518 3258 1485 
C 3258 2426 2688 2880 2029 2880 
z
" transform="scale(0.015625)"/>
       </defs>
       <use xlink:href="#FiraMath-Regular-30"/>
       <use xlink:href="#FiraMath-Regular-2e" x="55.999985"/>
       <use xlink:href="#FiraMath-Regular-36" x="79.999969"/>
      </g>
     </g>
    </g>
    <g id="xtick_4">
     <g id="line2d_4">
      <g>
       <use xlink:href="#m4ed90b27c0" x="226.818569" y="157.03227" style="fill: #4c4d4f; stroke: #4c4d4f; stroke-width: 0.6"/>
      </g>
     </g>
     <g id="text_4">
      <!-- 0.8 -->
      <g style="fill: #4c4d4f" transform="translate(221.378569 170.03227) scale(0.08 -0.08)">
       <defs>
        <path id="FiraMath-Regular-38" d="M 1779 390 
C 1254 390 915 666 915 1165 
C 915 1651 1120 1952 1549 2157 
L 1690 2106 
C 2432 1888 2662 1658 2662 1158 
C 2662 710 2330 390 1779 390 
z
M 1792 4045 
C 2253 4045 2528 3776 2528 3328 
C 2528 2944 2362 2714 1965 2502 
L 1914 2515 
C 1357 2688 1056 2861 1056 3328 
C 1056 3808 1338 4045 1792 4045 
z
M 2368 2362 
C 2861 2611 3104 2918 3104 3360 
C 3104 4134 2438 4486 1792 4486 
C 1133 4486 480 4109 480 3334 
C 480 2880 685 2541 1152 2310 
C 621 2080 301 1722 301 1158 
C 301 422 896 -77 1779 -77 
C 2656 -77 3277 435 3277 1178 
C 3277 1760 2944 2131 2368 2362 
z
" transform="scale(0.015625)"/>
       </defs>
       <use xlink:href="#FiraMath-Regular-30"/>
       <use xlink:href="#FiraMath-Regular-2e" x="55.999985"/>
       <use xlink:href="#FiraMath-Regular-38" x="79.999969"/>
      </g>
     </g>
    </g>
    <g id="text_5">
     <!-- 目标参数 $q$ -->
     <g style="fill: #3b4252" transform="translate(110.686905 182.96102) scale(0.085 -0.085)">
      <defs>
       <path id="SourceHanSansSC-Normal-76ee" d="M 1459 3443 
L 1459 4538 
L 4890 4538 
L 4890 3443 
L 1459 3443 
z
M 1459 3034 
L 4890 3034 
L 4890 1920 
L 1459 1920 
L 1459 3034 
z
M 1459 1510 
L 4890 1510 
L 4890 390 
L 1459 390 
L 1459 1510 
z
M 5338 4960 
L 1030 4960 
L 1030 -474 
L 1459 -474 
L 1459 -26 
L 4890 -26 
L 4890 -474 
L 5338 -474 
L 5338 4960 
z
" transform="scale(0.015625)"/>
       <path id="SourceHanSansSC-Normal-6807" d="M 5766 4864 
L 2976 4864 
L 2976 4461 
L 5766 4461 
L 5766 4864 
z
M 5363 2202 
L 4998 2086 
C 5299 1459 5600 627 5709 128 
L 6106 269 
C 5990 768 5677 1581 5363 2202 
z
M 3571 2099 
L 3174 2189 
C 3002 1504 2707 819 2349 358 
C 2451 314 2618 192 2694 134 
C 3046 621 3373 1363 3571 2099 
z
M 4518 64 
L 4518 2931 
L 6106 2931 
L 6106 3334 
L 2701 3334 
L 2701 2931 
L 4090 2931 
L 4090 70 
C 4090 -19 4064 -38 3968 -45 
C 3885 -51 3584 -51 3232 -38 
C 3290 -166 3354 -358 3373 -474 
C 3821 -474 4115 -467 4294 -397 
C 4467 -320 4518 -192 4518 64 
z
M 1754 5370 
L 1325 5370 
L 1325 3994 
L 333 3994 
L 333 3590 
L 1229 3590 
C 1011 2784 576 1850 160 1363 
C 237 1261 358 1082 410 966 
C 749 1389 1082 2086 1325 2797 
L 1325 -493 
L 1754 -493 
L 1754 2906 
C 1978 2586 2253 2170 2362 1965 
L 2624 2304 
C 2496 2483 1939 3200 1754 3411 
L 1754 3590 
L 2605 3590 
L 2605 3994 
L 1754 3994 
L 1754 5370 
z
" transform="scale(0.015625)"/>
       <path id="SourceHanSansSC-Normal-53c2" d="M 3878 2387 
L 3526 2573 
C 3085 2253 2278 1952 1638 1786 
C 1741 1702 1850 1574 1907 1491 
C 2566 1677 3373 2010 3878 2387 
z
M 4454 1645 
L 4090 1824 
C 3526 1395 2464 1050 1542 870 
C 1632 781 1734 640 1792 538 
C 2752 755 3814 1139 4454 1645 
z
M 5293 941 
L 4902 1133 
C 4186 429 2733 26 1152 -141 
C 1235 -243 1318 -397 1363 -518 
C 3008 -307 4499 134 5293 941 
z
M 3110 3942 
L 3078 3949 
L 4934 4038 
C 5107 3891 5254 3744 5357 3622 
L 5709 3885 
C 5357 4275 4646 4813 4058 5165 
L 3731 4941 
C 3987 4781 4269 4576 4531 4371 
L 1933 4275 
C 2349 4525 2765 4832 3168 5171 
L 2778 5389 
C 2317 4941 1677 4518 1478 4410 
C 1306 4301 1152 4230 1030 4218 
C 1075 4102 1133 3891 1152 3802 
C 1299 3853 1491 3872 2643 3930 
C 2547 3706 2438 3494 2310 3296 
L 346 3296 
L 346 2906 
L 2022 2906 
C 1568 2342 966 1907 269 1606 
C 371 1523 531 1357 595 1274 
C 1363 1651 2042 2195 2554 2906 
L 3885 2906 
C 4365 2240 5152 1632 5875 1312 
C 5939 1421 6074 1581 6170 1670 
C 5523 1907 4832 2381 4371 2906 
L 6067 2906 
L 6067 3296 
L 2803 3296 
C 2918 3501 3021 3712 3110 3942 
z
" transform="scale(0.015625)"/>
       <path id="SourceHanSansSC-Normal-6570" d="M 3219 5075 
L 2854 5235 
C 2746 4986 2528 4602 2368 4378 
L 2643 4237 
C 2816 4454 3034 4774 3219 5075 
z
M 902 5197 
L 582 5069 
C 755 4800 928 4448 992 4224 
L 1318 4371 
C 1254 4595 1075 4941 902 5197 
z
M 2842 2054 
L 1754 2054 
L 1901 2400 
L 1517 2477 
C 1466 2342 1408 2202 1338 2054 
L 461 2054 
L 461 1683 
L 1158 1683 
C 1018 1427 870 1178 736 986 
C 1056 870 1408 704 1741 538 
C 1318 224 813 13 282 -109 
C 358 -186 448 -339 486 -442 
C 1075 -282 1632 -32 2093 346 
C 2317 218 2515 96 2662 -19 
L 2938 269 
C 2784 371 2592 493 2374 608 
C 2720 966 2989 1414 3149 1971 
L 2918 2074 
L 2842 2054 
z
M 2656 1683 
C 2509 1331 2298 1037 2035 787 
C 1786 915 1523 1037 1274 1146 
C 1370 1306 1472 1491 1574 1683 
L 2656 1683 
z
M 2074 5370 
L 1670 5370 
L 1670 4160 
L 326 4160 
L 326 3802 
L 1542 3802 
C 1229 3373 730 2963 269 2752 
C 358 2675 454 2528 506 2426 
C 915 2650 1350 3014 1670 3411 
L 1670 2586 
L 2074 2586 
L 2074 3494 
C 2394 3270 2810 2950 2976 2797 
L 3219 3110 
C 3059 3226 2458 3616 2144 3802 
L 3398 3802 
L 3398 4160 
L 2074 4160 
L 2074 5370 
z
M 4442 5242 
L 4045 5306 
C 3878 4186 3590 3117 3098 2438 
C 3194 2381 3360 2246 3424 2176 
C 3597 2432 3750 2733 3885 3072 
C 4026 2413 4218 1811 4467 1280 
C 4102 653 3597 173 2893 -173 
C 2970 -256 3091 -429 3136 -518 
C 3802 -160 4301 301 4678 877 
C 4998 314 5408 -134 5920 -442 
C 5984 -333 6106 -186 6208 -109 
C 5664 179 5235 659 4902 1267 
C 5248 1933 5472 2739 5613 3712 
L 6054 3712 
L 6054 4115 
L 4211 4115 
C 4307 4474 4378 4851 4442 5242 
z
M 5203 3712 
C 5094 2938 4934 2278 4685 1715 
C 4429 2304 4243 2989 4122 3712 
L 5203 3712 
z
" transform="scale(0.015625)"/>
       <path id="FiraMath-Regular-20" transform="scale(0.015625)"/>
       <path id="FiraMath-Regular-1d45e" d="M 1517 390 
C 1158 390 947 646 947 1210 
C 947 1965 1274 2982 2131 2982 
C 2355 2982 2502 2950 2688 2874 
L 2419 1011 
C 2157 659 1894 390 1517 390 
z
M 2093 -1382 
L 2675 -1306 
L 3322 3162 
C 2874 3379 2522 3450 2118 3450 
C 806 3450 320 2138 320 1216 
C 320 442 710 -77 1395 -77 
C 1792 -77 2138 147 2342 410 
L 2093 -1382 
z
" transform="scale(0.015625)"/>
      </defs>
      <use xlink:href="#SourceHanSansSC-Normal-76ee" transform="translate(0 0.796875)"/>
      <use xlink:href="#SourceHanSansSC-Normal-6807" transform="translate(99.999985 0.796875)"/>
      <use xlink:href="#SourceHanSansSC-Normal-53c2" transform="translate(199.999969 0.796875)"/>
      <use xlink:href="#SourceHanSansSC-Normal-6570" transform="translate(299.999954 0.796875)"/>
      <use xlink:href="#FiraMath-Regular-20" transform="translate(399.999939 0.796875)"/>
      <use xlink:href="#FiraMath-Regular-1d45e" transform="translate(426.499924 0.796875)"/>
     </g>
    </g>
   </g>
   <g id="matplotlib.axis_2">
    <g id="ytick_1">
     <g id="line2d_5">
      <path d="M 35.78024 157.03227 
L 226.818569 157.03227 
" clip-path="url(#pdfa8bc9c05)" style="fill: none; stroke: #d8dce2; stroke-width: 0.4; stroke-linecap: square"/>
     </g>
     <g id="line2d_6">
      <defs>
       <path id="m569c139fc4" d="M 0 0 
L -3.5 0 
" style="stroke: #4c4d4f; stroke-width: 0.6"/>
      </defs>
      <g>
       <use xlink:href="#m569c139fc4" x="35.78024" y="157.03227" style="fill: #4c4d4f; stroke: #4c4d4f; stroke-width: 0.6"/>
      </g>
     </g>
     <g id="text_6">
      <!-- 0.0 -->
      <g style="fill: #4c4d4f" transform="translate(17.90024 160.03227) scale(0.08 -0.08)">
       <use xlink:href="#FiraMath-Regular-30"/>
       <use xlink:href="#FiraMath-Regular-2e" x="55.999985"/>
       <use xlink:href="#FiraMath-Regular-30" x="79.999969"/>
      </g>
     </g>
    </g>
    <g id="ytick_2">
     <g id="line2d_7">
      <path d="M 35.78024 135.44715 
L 226.818569 135.44715 
" clip-path="url(#pdfa8bc9c05)" style="fill: none; stroke: #d8dce2; stroke-width: 0.4; stroke-linecap: square"/>
     </g>
     <g id="line2d_8">
      <g>
       <use xlink:href="#m569c139fc4" x="35.78024" y="135.44715" style="fill: #4c4d4f; stroke: #4c4d4f; stroke-width: 0.6"/>
      </g>
     </g>
     <g id="text_7">
      <!-- 0.2 -->
      <g style="fill: #4c4d4f" transform="translate(17.90024 138.44715) scale(0.08 -0.08)">
       <use xlink:href="#FiraMath-Regular-30"/>
       <use xlink:href="#FiraMath-Regular-2e" x="55.999985"/>
       <use xlink:href="#FiraMath-Regular-32" x="79.999969"/>
      </g>
     </g>
    </g>
    <g id="ytick_3">
     <g id="line2d_9">
      <path d="M 35.78024 113.86203 
L 226.818569 113.86203 
" clip-path="url(#pdfa8bc9c05)" style="fill: none; stroke: #d8dce2; stroke-width: 0.4; stroke-linecap: square"/>
     </g>
     <g id="line2d_10">
      <g>
       <use xlink:href="#m569c139fc4" x="35.78024" y="113.86203" style="fill: #4c4d4f; stroke: #4c4d4f; stroke-width: 0.6"/>
      </g>
     </g>
     <g id="text_8">
      <!-- 0.4 -->
      <g style="fill: #4c4d4f" transform="translate(17.90024 116.86203) scale(0.08 -0.08)">
       <use xlink:href="#FiraMath-Regular-30"/>
       <use xlink:href="#FiraMath-Regular-2e" x="55.999985"/>
       <use xlink:href="#FiraMath-Regular-34" x="79.999969"/>
      </g>
     </g>
    </g>
    <g id="ytick_4">
     <g id="line2d_11">
      <path d="M 35.78024 92.27691 
L 226.818569 92.27691 
" clip-path="url(#pdfa8bc9c05)" style="fill: none; stroke: #d8dce2; stroke-width: 0.4; stroke-linecap: square"/>
     </g>
     <g id="line2d_12">
      <g>
       <use xlink:href="#m569c139fc4" x="35.78024" y="92.27691" style="fill: #4c4d4f; stroke: #4c4d4f; stroke-width: 0.6"/>
      </g>
     </g>
     <g id="text_9">
      <!-- 0.6 -->
      <g style="fill: #4c4d4f" transform="translate(17.90024 95.27691) scale(0.08 -0.08)">
       <use xlink:href="#FiraMath-Regular-30"/>
       <use xlink:href="#FiraMath-Regular-2e" x="55.999985"/>
       <use xlink:href="#FiraMath-Regular-36" x="79.999969"/>
      </g>
     </g>
    </g>
    <g id="ytick_5">
     <g id="line2d_13">
      <path d="M 35.78024 70.69179 
L 226.818569 70.69179 
" clip-path="url(#pdfa8bc9c05)" style="fill: none; stroke: #d8dce2; stroke-width: 0.4; stroke-linecap: square"/>
     </g>
     <g id="line2d_14">
      <g>
       <use xlink:href="#m569c139fc4" x="35.78024" y="70.69179" style="fill: #4c4d4f; stroke: #4c4d4f; stroke-width: 0.6"/>
      </g>
     </g>
     <g id="text_10">
      <!-- 0.8 -->
      <g style="fill: #4c4d4f" transform="translate(17.90024 73.69179) scale(0.08 -0.08)">
       <use xlink:href="#FiraMath-Regular-30"/>
       <use xlink:href="#FiraMath-Regular-2e" x="55.999985"/>
       <use xlink:href="#FiraMath-Regular-38" x="79.999969"/>
      </g>
     </g>
    </g>
    <g id="ytick_6">
     <g id="line2d_15">
      <path d="M 35.78024 49.10667 
L 226.818569 49.10667 
" clip-path="url(#pdfa8bc9c05)" style="fill: none; stroke: #d8dce2; stroke-width: 0.4; stroke-linecap: square"/>
     </g>
     <g id="line2d_16">
      <g>
       <use xlink:href="#m569c139fc4" x="35.78024" y="49.10667" style="fill: #4c4d4f; stroke: #4c4d4f; stroke-width: 0.6"/>
      </g>
     </g>
     <g id="text_11">
      <!-- 1.0 -->
      <g style="fill: #4c4d4f" transform="translate(17.90024 52.10667) scale(0.08 -0.08)">
       <defs>
        <path id="FiraMath-Regular-31" d="M 1766 0 
L 2355 0 
L 2355 4410 
L 1837 4410 
L 512 3590 
L 768 3174 
L 1766 3782 
L 1766 0 
z
" transform="scale(0.015625)"/>
       </defs>
       <use xlink:href="#FiraMath-Regular-31"/>
       <use xlink:href="#FiraMath-Regular-2e" x="55.999985"/>
       <use xlink:href="#FiraMath-Regular-30" x="79.999969"/>
      </g>
     </g>
    </g>
    <g id="ytick_7">
     <g id="line2d_17">
      <path d="M 35.78024 27.52155 
L 226.818569 27.52155 
" clip-path="url(#pdfa8bc9c05)" style="fill: none; stroke: #d8dce2; stroke-width: 0.4; stroke-linecap: square"/>
     </g>
     <g id="line2d_18">
      <g>
       <use xlink:href="#m569c139fc4" x="35.78024" y="27.52155" style="fill: #4c4d4f; stroke: #4c4d4f; stroke-width: 0.6"/>
      </g>
     </g>
     <g id="text_12">
      <!-- 1.2 -->
      <g style="fill: #4c4d4f" transform="translate(17.90024 30.52155) scale(0.08 -0.08)">
       <use xlink:href="#FiraMath-Regular-31"/>
       <use xlink:href="#FiraMath-Regular-2e" x="55.999985"/>
       <use xlink:href="#FiraMath-Regular-32" x="79.999969"/>
      </g>
     </g>
    </g>
    <g id="text_13">
     <!-- $D_{\rm KL}(\mathrm{Ber}(0.2)\|\mathrm{Ber}(q))$ -->
     <g style="fill: #3b4252" transform="translate(12.03024 125.00313) rotate(-90) scale(0.085 -0.085)">
      <defs>
       <path id="FiraMath-Regular-1d437" d="M 2010 3923 
C 2624 3923 3232 3782 3232 2752 
C 3232 1696 2829 480 1549 480 
L 1069 480 
L 1549 3923 
L 2010 3923 
z
M 1920 4410 
L 1018 4410 
L 397 0 
L 1459 0 
C 3200 0 3846 1325 3846 2739 
C 3846 4115 2918 4410 1920 4410 
z
" transform="scale(0.015625)"/>
       <path id="FiraMath-Regular-4b" d="M 3648 4410 
L 2957 4410 
L 1280 2355 
L 3021 0 
L 3770 0 
L 1978 2394 
L 3648 4410 
z
M 1248 4410 
L 640 4410 
L 640 0 
L 1248 0 
L 1248 4410 
z
" transform="scale(0.015625)"/>
       <path id="FiraMath-Regular-4c" d="M 1248 4410 
L 640 4410 
L 640 0 
L 2989 0 
L 3059 531 
L 1248 531 
L 1248 4410 
z
" transform="scale(0.015625)"/>
       <path id="FiraMath-Regular-28" d="M 1446 4960 
C 819 4070 256 3309 256 1792 
C 256 275 819 -486 1446 -1376 
L 1818 -1120 
C 1242 -269 870 422 870 1792 
C 870 3168 1242 3853 1818 4704 
L 1446 4960 
z
" transform="scale(0.015625)"/>
       <path id="FiraMath-Regular-42" d="M 1856 486 
L 1248 486 
L 1248 2074 
L 1971 2074 
C 2502 2074 2963 1875 2963 1254 
C 2963 614 2496 486 1856 486 
z
M 1747 3930 
C 2400 3930 2790 3795 2790 3251 
C 2790 2784 2406 2541 1914 2541 
L 1248 2541 
L 1248 3930 
L 1747 3930 
z
M 2586 2330 
C 3014 2419 3411 2752 3411 3296 
C 3411 4064 2771 4410 1683 4410 
L 640 4410 
L 640 0 
L 1856 0 
C 2880 0 3603 320 3603 1254 
C 3603 2003 3098 2240 2586 2330 
z
" transform="scale(0.015625)"/>
       <path id="FiraMath-Regular-65" d="M 2573 1920 
L 992 1920 
C 1037 2669 1331 2982 1779 2982 
C 2310 2982 2573 2618 2573 1958 
L 2573 1920 
z
M 3155 1786 
C 3155 2816 2675 3450 1766 3450 
C 896 3450 365 2701 365 1651 
C 365 582 915 -77 1856 -77 
C 2323 -77 2701 83 3034 346 
L 2778 698 
C 2483 493 2234 403 1901 403 
C 1414 403 1050 704 992 1485 
L 3142 1485 
C 3149 1562 3155 1670 3155 1786 
z
" transform="scale(0.015625)"/>
       <path id="FiraMath-Regular-72" d="M 2074 3450 
C 1664 3450 1350 3194 1171 2688 
L 1114 3373 
L 608 3373 
L 608 0 
L 1197 0 
L 1197 1926 
C 1338 2573 1581 2874 2003 2874 
C 2125 2874 2195 2861 2298 2835 
L 2406 3411 
C 2304 3437 2182 3450 2074 3450 
z
" transform="scale(0.015625)"/>
       <path id="FiraMath-Regular-29" d="M 627 4960 
L 256 4704 
C 832 3853 1203 3168 1203 1792 
C 1203 422 832 -269 256 -1120 
L 627 -1376 
C 1254 -486 1818 275 1818 1792 
C 1818 3309 1254 4070 627 4960 
z
" transform="scale(0.015625)"/>
       <path id="FiraMath-Regular-2016" d="M 2669 4774 
L 2138 4774 
L 2138 -1190 
L 2669 -1190 
L 2669 4774 
z
M 1555 4774 
L 1024 4774 
L 1024 -1190 
L 1555 -1190 
L 1555 4774 
z
" transform="scale(0.015625)"/>
      </defs>
      <use xlink:href="#FiraMath-Regular-1d437" transform="translate(0 0.5)"/>
      <use xlink:href="#FiraMath-Regular-4b" transform="translate(63.899994 -15.310937) scale(0.7)"/>
      <use xlink:href="#FiraMath-Regular-4c" transform="translate(105.12999 -15.310937) scale(0.7)"/>
      <use xlink:href="#FiraMath-Regular-28" transform="translate(142.625137 0.5)"/>
      <use xlink:href="#FiraMath-Regular-42" transform="translate(175.025131 0.5)"/>
      <use xlink:href="#FiraMath-Regular-65" transform="translate(235.825119 0.5)"/>
      <use xlink:href="#FiraMath-Regular-72" transform="translate(290.325104 0.5)"/>
      <use xlink:href="#FiraMath-Regular-28" transform="translate(328.925095 0.5)"/>
      <use xlink:href="#FiraMath-Regular-30" transform="translate(361.325089 0.5)"/>
      <use xlink:href="#FiraMath-Regular-2e" transform="translate(417.325073 0.5)"/>
      <use xlink:href="#FiraMath-Regular-32" transform="translate(441.325058 0.5)"/>
      <use xlink:href="#FiraMath-Regular-29" transform="translate(497.325043 0.5)"/>
      <use xlink:href="#FiraMath-Regular-2016" transform="translate(529.725037 0.5)"/>
      <use xlink:href="#FiraMath-Regular-42" transform="translate(587.425034 0.5)"/>
      <use xlink:href="#FiraMath-Regular-65" transform="translate(648.225021 0.5)"/>
      <use xlink:href="#FiraMath-Regular-72" transform="translate(702.725006 0.5)"/>
      <use xlink:href="#FiraMath-Regular-28" transform="translate(741.324997 0.5)"/>
      <use xlink:href="#FiraMath-Regular-1d45e" transform="translate(773.724991 0.5)"/>
      <use xlink:href="#FiraMath-Regular-29" transform="translate(831.324982 0.5)"/>
      <use xlink:href="#FiraMath-Regular-29" transform="translate(863.724976 0.5)"/>
     </g>
    </g>
   </g>
   <g id="line2d_19">
    <path d="M 35.78024 119.082445 
L 36.735432 123.754818 
L 37.690623 127.476791 
L 38.964212 131.464528 
L 40.237801 134.686865 
L 41.51139 137.367407 
L 43.103376 140.161223 
L 44.695362 142.491842 
L 46.287348 144.469069 
L 48.197731 146.478611 
L 50.108115 148.174752 
L 52.336895 149.839295 
L 54.565676 151.231022 
L 57.112853 152.550957 
L 59.660031 153.633592 
L 62.525606 154.616934 
L 65.709578 155.466637 
L 69.211948 156.154481 
L 73.032714 156.657017 
L 76.853481 156.939629 
L 80.992645 157.032063 
L 85.450206 156.914682 
L 90.226164 156.568764 
L 95.320519 155.975669 
L 100.733272 155.116018 
L 106.464422 153.968876 
L 112.195572 152.593722 
L 118.245119 150.906574 
L 124.294666 148.984754 
L 130.344213 146.831403 
L 136.39376 144.445887 
L 142.443307 141.824113 
L 148.492854 138.958638 
L 154.542401 135.838607 
L 160.273551 132.634882 
L 166.004701 129.174044 
L 171.417454 125.65197 
L 176.830206 121.863413 
L 181.924562 118.032844 
L 187.018917 113.920965 
L 191.794875 109.785055 
L 196.570834 105.348222 
L 201.028395 100.905719 
L 205.485956 96.13821 
L 209.625119 91.385344 
L 213.764283 86.279087 
L 217.58505 81.211536 
L 221.405816 75.7581 
L 224.908186 70.373477 
L 226.818569 67.26228 
L 226.818569 67.26228 
" clip-path="url(#pdfa8bc9c05)" style="fill: none; stroke: #7b95c6; stroke-width: 1.1; stroke-linecap: square"/>
   </g>
   <g id="line2d_20">
    <path d="M 35.78024 145.48929 
L 40.556198 147.808378 
L 45.332156 149.867675 
L 49.789717 151.555297 
L 54.247278 153.016612 
L 58.704839 154.251621 
L 63.1624 155.260323 
L 67.619962 156.042718 
L 72.077523 156.598806 
L 76.535084 156.928588 
L 80.992645 157.032063 
L 85.450206 156.909231 
L 89.907767 156.560093 
L 94.365328 155.984648 
L 98.822889 155.182896 
L 103.28045 154.154838 
L 107.738011 152.900473 
L 112.195572 151.419801 
L 116.653133 149.712823 
L 121.110694 147.779538 
L 125.886652 145.45703 
L 130.66261 142.874731 
L 135.438568 140.032642 
L 140.214527 136.930761 
L 144.990485 133.56909 
L 149.766443 129.947628 
L 154.860798 125.798388 
L 159.955154 121.353563 
L 165.049509 116.613155 
L 170.143865 111.577162 
L 175.556617 105.902547 
L 180.96937 99.894245 
L 186.382123 93.552256 
L 191.794875 86.87658 
L 197.526025 79.444511 
L 203.257175 71.638342 
L 208.988325 63.458075 
L 214.719475 54.903709 
L 220.769022 45.46825 
L 226.818569 35.61597 
L 226.818569 35.61597 
" clip-path="url(#pdfa8bc9c05)" style="fill: none; stroke-dasharray: 4.07,1.76; stroke-dashoffset: 0; stroke: #c85e62; stroke-width: 1.1"/>
   </g>
   <g id="line2d_21">
    <path d="M 80.802012 157.03227 
L 80.802012 16.72899 
" clip-path="url(#pdfa8bc9c05)" style="fill: none; stroke-dasharray: 0.6,0.99; stroke-dashoffset: 0; stroke: #6b7280; stroke-width: 0.6"/>
   </g>
   <g id="patch_3">
    <path d="M 35.78024 157.03227 
L 35.78024 16.72899 
" style="fill: none; stroke: #4c4d4f; stroke-width: 0.75; stroke-linejoin: miter; stroke-linecap: square"/>
   </g>
   <g id="patch_4">
    <path d="M 35.78024 157.03227 
L 226.818569 157.03227 
" style="fill: none; stroke: #4c4d4f; stroke-width: 0.75; stroke-linejoin: miter; stroke-linecap: square"/>
   </g>
   <g id="text_14">
    <!-- (a) 全部显示范围 -->
    <g style="fill: #3b4252" transform="translate(97.742061 10.72899) scale(0.09 -0.09)">
     <defs>
      <path id="FiraMath-Regular-61" d="M 1498 365 
C 1114 365 915 576 915 973 
C 915 1434 1229 1664 1850 1664 
L 2291 1664 
L 2291 890 
C 2099 538 1843 365 1498 365 
z
M 2880 787 
L 2880 2330 
C 2880 3034 2509 3450 1696 3450 
C 1318 3450 947 3373 531 3219 
L 678 2790 
C 1024 2906 1338 2970 1587 2970 
C 2054 2970 2291 2790 2291 2304 
L 2291 2054 
L 1773 2054 
C 832 2054 288 1664 288 941 
C 288 339 691 -77 1363 -77 
C 1773 -77 2131 77 2368 429 
C 2470 96 2688 -38 3027 -77 
L 3162 333 
C 2989 397 2880 493 2880 787 
z
" transform="scale(0.015625)"/>
      <path id="SourceHanSansSC-Normal-5168" d="M 5946 70 
L 3424 70 
L 3424 1178 
L 5190 1178 
L 5190 1562 
L 3424 1562 
L 3424 2605 
L 5178 2605 
L 5178 2995 
L 1261 2995 
L 1261 2605 
L 2976 2605 
L 2976 1562 
L 1293 1562 
L 1293 1178 
L 2976 1178 
L 2976 70 
L 486 70 
L 486 -320 
L 5946 -320 
L 5946 70 
z
M 3546 5261 
L 3168 5440 
C 2528 4416 1350 3456 179 2918 
C 288 2829 416 2682 480 2573 
C 1491 3078 2490 3878 3200 4781 
C 4019 3827 4922 3155 5939 2547 
C 6003 2675 6131 2822 6234 2906 
C 5197 3482 4237 4160 3437 5101 
L 3546 5261 
z
" transform="scale(0.015625)"/>
      <path id="SourceHanSansSC-Normal-90e8" d="M 1299 4134 
L 928 4038 
C 1107 3686 1280 3219 1331 2912 
L 1734 3027 
C 1664 3328 1498 3789 1299 4134 
z
M 5683 5018 
L 4032 5018 
L 4032 -493 
L 4422 -493 
L 4422 4621 
L 5510 4621 
C 5331 4115 5069 3430 4813 2874 
C 5402 2285 5574 1811 5574 1408 
C 5574 1178 5536 966 5402 890 
C 5331 845 5235 826 5139 819 
C 4998 813 4813 813 4621 838 
C 4685 717 4730 538 4736 429 
C 4922 416 5133 416 5293 435 
C 5446 448 5587 486 5690 557 
C 5894 698 5971 1005 5971 1370 
C 5971 1811 5830 2317 5242 2925 
C 5517 3526 5818 4256 6048 4845 
L 5754 5037 
L 5683 5018 
z
M 1984 5389 
L 1606 5280 
C 1702 5075 1811 4813 1882 4602 
L 525 4602 
L 525 4205 
L 3539 4205 
L 3539 4602 
L 2323 4602 
C 2259 4819 2118 5146 1984 5389 
z
M 3245 4058 
L 2816 4160 
C 2701 3776 2502 3232 2330 2867 
L 339 2867 
L 339 2477 
L 3680 2477 
L 3680 2867 
L 2746 2867 
C 2912 3206 3091 3667 3245 4058 
z
M 1126 243 
L 1126 1478 
L 2950 1478 
L 2950 243 
L 1126 243 
z
M 3373 1869 
L 723 1869 
L 723 -454 
L 1126 -454 
L 1126 -141 
L 2950 -141 
L 2950 -403 
L 3373 -403 
L 3373 1869 
z
" transform="scale(0.015625)"/>
      <path id="SourceHanSansSC-Normal-663e" d="M 1523 2957 
L 1523 3661 
L 4890 3661 
L 4890 2957 
L 1523 2957 
z
M 1523 4000 
L 1523 4698 
L 4890 4698 
L 4890 4000 
L 1523 4000 
z
M 5325 5050 
L 1107 5050 
L 1107 2605 
L 5325 2605 
L 5325 5050 
z
M 5638 1920 
L 5267 2086 
C 5050 1683 4653 1120 4352 774 
L 4691 608 
C 4992 960 5363 1472 5638 1920 
z
M 1158 2042 
L 813 1894 
C 1088 1485 1408 915 1549 582 
L 1907 755 
C 1760 1088 1427 1638 1158 2042 
z
M 4083 2336 
L 3674 2336 
L 3674 211 
L 2688 211 
L 2688 2336 
L 2285 2336 
L 2285 211 
L 269 211 
L 269 -198 
L 6138 -198 
L 6138 211 
L 4083 211 
L 4083 2336 
z
" transform="scale(0.015625)"/>
      <path id="SourceHanSansSC-Normal-793a" d="M 1978 2125 
L 1536 2246 
C 1254 1510 774 800 237 339 
C 352 282 544 154 627 77 
C 1146 570 1658 1338 1978 2125 
z
M 4781 2227 
L 4390 2061 
C 4864 1446 5357 614 5530 77 
L 5958 269 
C 5766 813 5261 1626 4781 2227 
z
M 5453 4877 
L 960 4877 
L 960 4454 
L 5453 4454 
L 5453 4877 
z
M 6016 3322 
L 390 3322 
L 390 2899 
L 2976 2899 
L 2976 83 
C 2976 -19 2938 -51 2822 -58 
C 2701 -64 2285 -58 1837 -45 
C 1907 -179 1978 -365 1997 -493 
C 2560 -493 2931 -486 3149 -422 
C 3360 -346 3437 -218 3437 77 
L 3437 2899 
L 6016 2899 
L 6016 3322 
z
" transform="scale(0.015625)"/>
      <path id="SourceHanSansSC-Normal-8303" d="M 486 -128 
L 781 -480 
C 1261 0 1824 627 2266 1178 
L 2035 1498 
C 1536 915 909 256 486 -128 
z
M 992 3680 
L 755 3405 
C 1139 3187 1664 2874 1926 2682 
L 2176 3008 
C 1901 3187 1376 3482 992 3680 
z
M 608 2464 
L 371 2176 
C 774 1997 1312 1728 1587 1562 
L 1824 1888 
C 1536 2054 992 2304 608 2464 
z
M 3072 378 
L 3072 3046 
L 5126 3046 
L 5126 1824 
C 5126 1741 5101 1709 4986 1709 
C 4864 1696 4474 1696 4000 1709 
C 4070 1594 4147 1427 4173 1306 
C 4723 1306 5075 1306 5293 1376 
C 5504 1440 5555 1574 5555 1824 
L 5555 3456 
L 2637 3456 
L 2637 378 
C 2637 -243 2854 -390 3590 -390 
C 3750 -390 5062 -390 5235 -390 
C 5907 -390 6054 -134 6125 736 
C 6003 768 5824 838 5715 909 
C 5670 166 5606 19 5216 19 
C 4934 19 3814 19 3603 19 
C 3155 19 3072 83 3072 378 
z
M 4538 5363 
L 4102 5363 
L 4102 4794 
L 2272 4794 
L 2272 5363 
L 1843 5363 
L 1843 4794 
L 378 4794 
L 378 4390 
L 1843 4390 
L 1843 3750 
L 2272 3750 
L 2272 4390 
L 4102 4390 
L 4102 3750 
L 4538 3750 
L 4538 4390 
L 6035 4390 
L 6035 4794 
L 4538 4794 
L 4538 5363 
z
" transform="scale(0.015625)"/>
      <path id="SourceHanSansSC-Normal-56f4" d="M 5037 2118 
L 3366 2118 
L 3366 2707 
L 4742 2707 
L 4742 3059 
L 3366 3059 
L 3366 3629 
L 4998 3629 
L 4998 3987 
L 3366 3987 
L 3366 4525 
L 2957 4525 
L 2957 3987 
L 1408 3987 
L 1408 3629 
L 2957 3629 
L 2957 3059 
L 1683 3059 
L 1683 2707 
L 2957 2707 
L 2957 2118 
L 1318 2118 
L 1318 1754 
L 2957 1754 
L 2957 397 
L 3366 397 
L 3366 1754 
L 4621 1754 
C 4570 1357 4518 1184 4448 1120 
C 4410 1075 4358 1069 4275 1069 
C 4192 1069 3974 1069 3731 1094 
C 3789 998 3827 851 3834 749 
C 4077 736 4320 736 4442 742 
C 4589 755 4672 787 4762 864 
C 4890 992 4954 1286 5024 1952 
C 5030 2016 5037 2118 5037 2118 
z
M 941 198 
L 941 4717 
L 5453 4717 
L 5453 198 
L 941 198 
z
M 5875 5094 
L 538 5094 
L 538 -493 
L 941 -493 
L 941 -173 
L 5453 -173 
L 5453 -493 
L 5875 -493 
L 5875 5094 
z
" transform="scale(0.015625)"/>
     </defs>
     <use xlink:href="#FiraMath-Regular-28"/>
     <use xlink:href="#FiraMath-Regular-61" x="32.399994"/>
     <use xlink:href="#FiraMath-Regular-29" x="86.799988"/>
     <use xlink:href="#FiraMath-Regular-20" x="119.199982"/>
     <use xlink:href="#SourceHanSansSC-Normal-5168" x="145.699966"/>
     <use xlink:href="#SourceHanSansSC-Normal-90e8" x="245.699951"/>
     <use xlink:href="#SourceHanSansSC-Normal-663e" x="345.699936"/>
     <use xlink:href="#SourceHanSansSC-Normal-793a" x="445.699921"/>
     <use xlink:href="#SourceHanSansSC-Normal-8303" x="545.699905"/>
     <use xlink:href="#SourceHanSansSC-Normal-56f4" x="645.69989"/>
    </g>
   </g>
   <g id="legend_1">
    <g id="line2d_22">
     <path d="M 97.071905 27.12899 
L 105.071905 27.12899 
L 113.071905 27.12899 
" style="fill: none; stroke: #7b95c6; stroke-width: 1.1; stroke-linecap: square"/>
    </g>
    <g id="text_15">
     <!-- 精确 KL -->
     <g style="fill: #3b4252" transform="translate(119.471905 29.92899) scale(0.08 -0.08)">
      <defs>
       <path id="SourceHanSansSC-Normal-7cbe" d="M 646 4947 
L 352 4870 
C 518 4435 672 3853 710 3475 
L 1030 3558 
C 986 3930 832 4506 646 4947 
z
M 2483 4877 
L 2118 4973 
C 2029 4544 1843 3917 1690 3539 
L 1965 3456 
C 2131 3808 2330 4403 2483 4877 
z
M 2317 3213 
L 1581 3213 
L 1581 5350 
L 1190 5350 
L 1190 3213 
L 269 3213 
L 269 2810 
L 1114 2810 
C 915 2086 544 1210 205 749 
C 275 634 390 442 442 314 
C 710 710 979 1350 1190 1990 
L 1190 -493 
L 1581 -493 
L 1581 2125 
C 1779 1779 2029 1331 2118 1114 
L 2413 1446 
C 2285 1645 1747 2451 1581 2656 
L 1581 2810 
L 2317 2810 
L 2317 3213 
z
M 4506 5363 
L 4096 5363 
L 4096 4832 
L 2733 4832 
L 2733 4499 
L 4096 4499 
L 4096 4077 
L 2893 4077 
L 2893 3757 
L 4096 3757 
L 4096 3296 
L 2554 3296 
L 2554 2957 
L 6131 2957 
L 6131 3296 
L 4506 3296 
L 4506 3757 
L 5824 3757 
L 5824 4077 
L 4506 4077 
L 4506 4499 
L 5971 4499 
L 5971 4832 
L 4506 4832 
L 4506 5363 
z
M 5702 -38 
L 5702 2547 
L 2970 2547 
L 2970 -493 
L 3373 -493 
L 3373 557 
L 5299 557 
L 5299 -38 
C 5299 -109 5274 -134 5190 -134 
C 5114 -141 4845 -141 4544 -128 
C 4608 -237 4659 -384 4678 -493 
C 5075 -493 5338 -486 5498 -429 
C 5658 -365 5702 -256 5702 -38 
z
M 5299 2214 
L 5299 1702 
L 3373 1702 
L 3373 2214 
L 5299 2214 
z
M 3373 1382 
L 5299 1382 
L 5299 877 
L 3373 877 
L 3373 1382 
z
" transform="scale(0.015625)"/>
       <path id="SourceHanSansSC-Normal-786e" d="M 3245 2010 
L 3245 2259 
L 4141 2259 
L 4141 1446 
L 3226 1446 
C 3238 1645 3245 1830 3245 2010 
z
M 4525 1446 
L 4525 2259 
L 5504 2259 
L 5504 1446 
L 4525 1446 
z
M 4998 4832 
L 3750 4832 
C 3821 4986 3878 5139 3936 5293 
L 3558 5389 
C 3277 4589 2790 3827 2240 3328 
C 2323 3251 2458 3091 2509 3008 
C 2624 3117 2739 3238 2848 3366 
L 2848 2010 
C 2848 1286 2771 378 2138 -269 
C 2234 -314 2406 -435 2470 -512 
C 2899 -77 3091 506 3181 1069 
L 4141 1069 
L 4141 -282 
L 4525 -282 
L 4525 1069 
L 5504 1069 
L 5504 38 
C 5504 -38 5485 -64 5402 -64 
C 5325 -70 5062 -70 4768 -58 
C 4819 -173 4864 -339 4883 -448 
C 5286 -448 5562 -448 5715 -378 
C 5869 -307 5920 -192 5920 38 
L 5920 3731 
L 4710 3731 
C 4941 4013 5184 4358 5344 4666 
L 5069 4851 
L 4998 4832 
z
M 4141 2611 
L 3245 2611 
L 3245 3360 
L 4141 3360 
L 4141 2611 
z
M 4525 2611 
L 4525 3360 
L 5504 3360 
L 5504 2611 
L 4525 2611 
z
M 3245 3731 
L 3130 3731 
C 3290 3962 3443 4205 3578 4467 
L 4762 4467 
C 4614 4211 4422 3930 4250 3731 
L 3245 3731 
z
M 2298 3046 
L 1158 3046 
C 1325 3539 1459 4070 1562 4621 
L 2509 4621 
L 2509 5011 
L 371 5011 
L 371 4621 
L 1152 4621 
C 979 3616 691 2688 237 2067 
C 307 1952 416 1722 448 1619 
C 576 1786 691 1971 794 2176 
L 794 -211 
L 1165 -211 
L 1165 314 
L 2298 314 
L 2298 3046 
z
M 1165 2656 
L 1926 2656 
L 1926 698 
L 1165 698 
L 1165 2656 
z
" transform="scale(0.015625)"/>
      </defs>
      <use xlink:href="#SourceHanSansSC-Normal-7cbe"/>
      <use xlink:href="#SourceHanSansSC-Normal-786e" x="99.999985"/>
      <use xlink:href="#FiraMath-Regular-20" x="199.999969"/>
      <use xlink:href="#FiraMath-Regular-4b" x="226.499954"/>
      <use xlink:href="#FiraMath-Regular-4c" x="285.399948"/>
     </g>
    </g>
    <g id="line2d_23">
     <path d="M 97.071905 38.83274 
L 105.071905 38.83274 
L 113.071905 38.83274 
" style="fill: none; stroke-dasharray: 4.07,1.76; stroke-dashoffset: 0; stroke: #c85e62; stroke-width: 1.1"/>
    </g>
    <g id="text_16">
     <!-- Fisher二阶项 -->
     <g style="fill: #3b4252" transform="translate(119.471905 41.63274) scale(0.08 -0.08)">
      <defs>
       <path id="FiraMath-Regular-46" d="M 640 0 
L 1248 0 
L 1248 1939 
L 2688 1939 
L 2688 2419 
L 1248 2419 
L 1248 3923 
L 2912 3923 
L 2982 4410 
L 640 4410 
L 640 0 
z
" transform="scale(0.015625)"/>
       <path id="FiraMath-Regular-69" d="M 1197 3373 
L 608 3373 
L 608 0 
L 1197 0 
L 1197 3373 
z
M 896 4992 
C 653 4992 486 4819 486 4589 
C 486 4365 653 4192 896 4192 
C 1146 4192 1312 4365 1312 4589 
C 1312 4819 1146 4992 896 4992 
z
" transform="scale(0.015625)"/>
       <path id="FiraMath-Regular-73" d="M 1523 3450 
C 826 3450 307 3059 307 2522 
C 307 2048 595 1734 1325 1542 
C 1978 1370 2144 1242 2144 909 
C 2144 589 1862 397 1421 397 
C 1056 397 742 518 474 723 
L 160 365 
C 454 109 864 -77 1434 -77 
C 2118 -77 2765 243 2765 947 
C 2765 1536 2355 1818 1645 1997 
C 1101 2138 922 2266 922 2541 
C 922 2810 1158 2982 1542 2982 
C 1856 2982 2118 2886 2419 2694 
L 2669 3066 
C 2349 3309 1997 3450 1523 3450 
z
" transform="scale(0.015625)"/>
       <path id="FiraMath-Regular-68" d="M 2195 3450 
C 1773 3450 1440 3238 1197 2906 
L 1197 4787 
L 608 4723 
L 608 0 
L 1197 0 
L 1197 2400 
C 1421 2752 1683 2989 2048 2989 
C 2368 2989 2586 2842 2586 2336 
L 2586 0 
L 3174 0 
L 3174 2419 
C 3174 3053 2810 3450 2195 3450 
z
" transform="scale(0.015625)"/>
       <path id="SourceHanSansSC-Normal-4e8c" d="M 5498 4442 
L 909 4442 
L 909 3987 
L 5498 3987 
L 5498 4442 
z
M 6042 634 
L 365 634 
L 365 160 
L 6042 160 
L 6042 634 
z
" transform="scale(0.015625)"/>
       <path id="SourceHanSansSC-Normal-9636" d="M 5171 2899 
L 4749 2899 
L 4749 -486 
L 5171 -486 
L 5171 2899 
z
M 3616 1933 
L 3616 2893 
L 3200 2893 
L 3200 1939 
C 3200 1197 3110 378 2304 -269 
C 2419 -326 2598 -442 2688 -525 
C 3526 179 3616 1088 3616 1933 
z
M 4467 5331 
L 4019 5395 
C 3782 4627 3226 3693 2278 3072 
C 2374 3002 2502 2848 2560 2752 
C 3309 3270 3827 3942 4166 4621 
C 4608 3885 5254 3219 5888 2842 
C 5952 2950 6080 3098 6182 3174 
C 5478 3533 4755 4282 4365 5056 
L 4467 5331 
z
M 2086 5101 
L 525 5101 
L 525 -506 
L 947 -506 
L 947 4698 
L 1888 4698 
C 1709 4262 1466 3706 1229 3238 
C 1818 2720 1978 2285 1984 1920 
C 1984 1715 1939 1542 1818 1472 
C 1754 1427 1664 1414 1568 1402 
C 1446 1402 1286 1402 1107 1414 
C 1178 1299 1222 1126 1229 1024 
C 1395 1011 1587 1011 1741 1030 
C 1875 1043 2003 1082 2106 1146 
C 2298 1280 2387 1549 2387 1888 
C 2387 2298 2246 2758 1670 3290 
C 1933 3795 2221 4410 2451 4928 
L 2157 5120 
L 2086 5101 
z
" transform="scale(0.015625)"/>
       <path id="SourceHanSansSC-Normal-9879" d="M 4403 1862 
L 4403 3219 
L 3974 3219 
L 3974 1862 
C 3974 1178 3814 339 2061 -141 
C 2157 -230 2285 -390 2330 -486 
C 4141 90 4403 1030 4403 1862 
z
M 4685 870 
L 4410 602 
C 4915 275 5542 -192 5850 -499 
L 6138 -186 
C 5824 109 5184 563 4685 870 
z
M 192 1146 
L 307 704 
C 890 902 1670 1165 2413 1427 
L 2355 1792 
L 1555 1549 
L 1555 4186 
L 2317 4186 
L 2317 4595 
L 301 4595 
L 301 4186 
L 1126 4186 
L 1126 1414 
C 774 1312 448 1216 192 1146 
z
M 5683 3987 
L 4166 3987 
C 4262 4192 4365 4442 4467 4685 
L 6118 4685 
L 6118 5075 
L 2432 5075 
L 2432 4685 
L 3962 4685 
C 3898 4454 3808 4192 3718 3987 
L 2682 3987 
L 2682 979 
L 3098 979 
L 3098 3597 
L 5248 3597 
L 5248 986 
L 5683 986 
L 5683 3987 
z
" transform="scale(0.015625)"/>
      </defs>
      <use xlink:href="#FiraMath-Regular-46"/>
      <use xlink:href="#FiraMath-Regular-69" x="49.099991"/>
      <use xlink:href="#FiraMath-Regular-73" x="77.299988"/>
      <use xlink:href="#FiraMath-Regular-68" x="123.999985"/>
      <use xlink:href="#FiraMath-Regular-65" x="182.599976"/>
      <use xlink:href="#FiraMath-Regular-72" x="237.09996"/>
      <use xlink:href="#SourceHanSansSC-Normal-4e8c" x="275.699951"/>
      <use xlink:href="#SourceHanSansSC-Normal-9636" x="375.699936"/>
      <use xlink:href="#SourceHanSansSC-Normal-9879" x="475.699921"/>
     </g>
    </g>
   </g>
  </g>
  <g id="axes_2">
   <g id="patch_5">
    <path d="M 277.321549 157.03227 
L 468.359878 157.03227 
L 468.359878 16.72899 
L 277.321549 16.72899 
z
" style="fill: #ffffff"/>
   </g>
   <g id="matplotlib.axis_3">
    <g id="xtick_5">
     <g id="line2d_24">
      <g>
       <use xlink:href="#m4ed90b27c0" x="277.321549" y="157.03227" style="fill: #4c4d4f; stroke: #4c4d4f; stroke-width: 0.6"/>
      </g>
     </g>
     <g id="text_17">
      <!-- 0.14 -->
      <g style="fill: #4c4d4f" transform="translate(269.641549 170.03227) scale(0.08 -0.08)">
       <use xlink:href="#FiraMath-Regular-30"/>
       <use xlink:href="#FiraMath-Regular-2e" x="55.999985"/>
       <use xlink:href="#FiraMath-Regular-31" x="79.999969"/>
       <use xlink:href="#FiraMath-Regular-34" x="135.999954"/>
      </g>
     </g>
    </g>
    <g id="xtick_6">
     <g id="line2d_25">
      <g>
       <use xlink:href="#m4ed90b27c0" x="309.161271" y="157.03227" style="fill: #4c4d4f; stroke: #4c4d4f; stroke-width: 0.6"/>
      </g>
     </g>
     <g id="text_18">
      <!-- 0.16 -->
      <g style="fill: #4c4d4f" transform="translate(301.481271 170.03227) scale(0.08 -0.08)">
       <use xlink:href="#FiraMath-Regular-30"/>
       <use xlink:href="#FiraMath-Regular-2e" x="55.999985"/>
       <use xlink:href="#FiraMath-Regular-31" x="79.999969"/>
       <use xlink:href="#FiraMath-Regular-36" x="135.999954"/>
      </g>
     </g>
    </g>
    <g id="xtick_7">
     <g id="line2d_26">
      <g>
       <use xlink:href="#m4ed90b27c0" x="341.000992" y="157.03227" style="fill: #4c4d4f; stroke: #4c4d4f; stroke-width: 0.6"/>
      </g>
     </g>
     <g id="text_19">
      <!-- 0.18 -->
      <g style="fill: #4c4d4f" transform="translate(333.320992 170.03227) scale(0.08 -0.08)">
       <use xlink:href="#FiraMath-Regular-30"/>
       <use xlink:href="#FiraMath-Regular-2e" x="55.999985"/>
       <use xlink:href="#FiraMath-Regular-31" x="79.999969"/>
       <use xlink:href="#FiraMath-Regular-38" x="135.999954"/>
      </g>
     </g>
    </g>
    <g id="xtick_8">
     <g id="line2d_27">
      <g>
       <use xlink:href="#m4ed90b27c0" x="372.840714" y="157.03227" style="fill: #4c4d4f; stroke: #4c4d4f; stroke-width: 0.6"/>
      </g>
     </g>
     <g id="text_20">
      <!-- 0.20 -->
      <g style="fill: #4c4d4f" transform="translate(365.160714 170.03227) scale(0.08 -0.08)">
       <use xlink:href="#FiraMath-Regular-30"/>
       <use xlink:href="#FiraMath-Regular-2e" x="55.999985"/>
       <use xlink:href="#FiraMath-Regular-32" x="79.999969"/>
       <use xlink:href="#FiraMath-Regular-30" x="135.999954"/>
      </g>
     </g>
    </g>
    <g id="xtick_9">
     <g id="line2d_28">
      <g>
       <use xlink:href="#m4ed90b27c0" x="404.680435" y="157.03227" style="fill: #4c4d4f; stroke: #4c4d4f; stroke-width: 0.6"/>
      </g>
     </g>
     <g id="text_21">
      <!-- 0.22 -->
      <g style="fill: #4c4d4f" transform="translate(397.000435 170.03227) scale(0.08 -0.08)">
       <use xlink:href="#FiraMath-Regular-30"/>
       <use xlink:href="#FiraMath-Regular-2e" x="55.999985"/>
       <use xlink:href="#FiraMath-Regular-32" x="79.999969"/>
       <use xlink:href="#FiraMath-Regular-32" x="135.999954"/>
      </g>
     </g>
    </g>
    <g id="xtick_10">
     <g id="line2d_29">
      <g>
       <use xlink:href="#m4ed90b27c0" x="436.520157" y="157.03227" style="fill: #4c4d4f; stroke: #4c4d4f; stroke-width: 0.6"/>
      </g>
     </g>
     <g id="text_22">
      <!-- 0.24 -->
      <g style="fill: #4c4d4f" transform="translate(428.840157 170.03227) scale(0.08 -0.08)">
       <use xlink:href="#FiraMath-Regular-30"/>
       <use xlink:href="#FiraMath-Regular-2e" x="55.999985"/>
       <use xlink:href="#FiraMath-Regular-32" x="79.999969"/>
       <use xlink:href="#FiraMath-Regular-34" x="135.999954"/>
      </g>
     </g>
    </g>
    <g id="xtick_11">
     <g id="line2d_30">
      <g>
       <use xlink:href="#m4ed90b27c0" x="468.359878" y="157.03227" style="fill: #4c4d4f; stroke: #4c4d4f; stroke-width: 0.6"/>
      </g>
     </g>
     <g id="text_23">
      <!-- 0.26 -->
      <g style="fill: #4c4d4f" transform="translate(460.679878 170.03227) scale(0.08 -0.08)">
       <use xlink:href="#FiraMath-Regular-30"/>
       <use xlink:href="#FiraMath-Regular-2e" x="55.999985"/>
       <use xlink:href="#FiraMath-Regular-32" x="79.999969"/>
       <use xlink:href="#FiraMath-Regular-36" x="135.999954"/>
      </g>
     </g>
    </g>
    <g id="text_24">
     <!-- 目标参数 $q$ -->
     <g style="fill: #3b4252" transform="translate(352.228214 182.96102) scale(0.085 -0.085)">
      <use xlink:href="#SourceHanSansSC-Normal-76ee" transform="translate(0 0.796875)"/>
      <use xlink:href="#SourceHanSansSC-Normal-6807" transform="translate(99.999985 0.796875)"/>
      <use xlink:href="#SourceHanSansSC-Normal-53c2" transform="translate(199.999969 0.796875)"/>
      <use xlink:href="#SourceHanSansSC-Normal-6570" transform="translate(299.999954 0.796875)"/>
      <use xlink:href="#FiraMath-Regular-20" transform="translate(399.999939 0.796875)"/>
      <use xlink:href="#FiraMath-Regular-1d45e" transform="translate(426.499924 0.796875)"/>
     </g>
    </g>
   </g>
   <g id="matplotlib.axis_4">
    <g id="ytick_8">
     <g id="line2d_31">
      <path d="M 277.321549 157.03227 
L 468.359878 157.03227 
" clip-path="url(#p7bb749bc37)" style="fill: none; stroke: #d8dce2; stroke-width: 0.4; stroke-linecap: square"/>
     </g>
     <g id="line2d_32">
      <g>
       <use xlink:href="#m569c139fc4" x="277.321549" y="157.03227" style="fill: #4c4d4f; stroke: #4c4d4f; stroke-width: 0.6"/>
      </g>
     </g>
     <g id="text_25">
      <!-- 0.000 -->
      <g style="fill: #4c4d4f" transform="translate(250.481549 160.03227) scale(0.08 -0.08)">
       <use xlink:href="#FiraMath-Regular-30"/>
       <use xlink:href="#FiraMath-Regular-2e" x="55.999985"/>
       <use xlink:href="#FiraMath-Regular-30" x="79.999969"/>
       <use xlink:href="#FiraMath-Regular-30" x="135.999954"/>
       <use xlink:href="#FiraMath-Regular-30" x="191.999939"/>
      </g>
     </g>
    </g>
    <g id="ytick_9">
     <g id="line2d_33">
      <path d="M 277.321549 139.49436 
L 468.359878 139.49436 
" clip-path="url(#p7bb749bc37)" style="fill: none; stroke: #d8dce2; stroke-width: 0.4; stroke-linecap: square"/>
     </g>
     <g id="line2d_34">
      <g>
       <use xlink:href="#m569c139fc4" x="277.321549" y="139.49436" style="fill: #4c4d4f; stroke: #4c4d4f; stroke-width: 0.6"/>
      </g>
     </g>
     <g id="text_26">
      <!-- 0.002 -->
      <g style="fill: #4c4d4f" transform="translate(250.481549 142.49436) scale(0.08 -0.08)">
       <use xlink:href="#FiraMath-Regular-30"/>
       <use xlink:href="#FiraMath-Regular-2e" x="55.999985"/>
       <use xlink:href="#FiraMath-Regular-30" x="79.999969"/>
       <use xlink:href="#FiraMath-Regular-30" x="135.999954"/>
       <use xlink:href="#FiraMath-Regular-32" x="191.999939"/>
      </g>
     </g>
    </g>
    <g id="ytick_10">
     <g id="line2d_35">
      <path d="M 277.321549 121.95645 
L 468.359878 121.95645 
" clip-path="url(#p7bb749bc37)" style="fill: none; stroke: #d8dce2; stroke-width: 0.4; stroke-linecap: square"/>
     </g>
     <g id="line2d_36">
      <g>
       <use xlink:href="#m569c139fc4" x="277.321549" y="121.95645" style="fill: #4c4d4f; stroke: #4c4d4f; stroke-width: 0.6"/>
      </g>
     </g>
     <g id="text_27">
      <!-- 0.004 -->
      <g style="fill: #4c4d4f" transform="translate(250.481549 124.95645) scale(0.08 -0.08)">
       <use xlink:href="#FiraMath-Regular-30"/>
       <use xlink:href="#FiraMath-Regular-2e" x="55.999985"/>
       <use xlink:href="#FiraMath-Regular-30" x="79.999969"/>
       <use xlink:href="#FiraMath-Regular-30" x="135.999954"/>
       <use xlink:href="#FiraMath-Regular-34" x="191.999939"/>
      </g>
     </g>
    </g>
    <g id="ytick_11">
     <g id="line2d_37">
      <path d="M 277.321549 104.41854 
L 468.359878 104.41854 
" clip-path="url(#p7bb749bc37)" style="fill: none; stroke: #d8dce2; stroke-width: 0.4; stroke-linecap: square"/>
     </g>
     <g id="line2d_38">
      <g>
       <use xlink:href="#m569c139fc4" x="277.321549" y="104.41854" style="fill: #4c4d4f; stroke: #4c4d4f; stroke-width: 0.6"/>
      </g>
     </g>
     <g id="text_28">
      <!-- 0.006 -->
      <g style="fill: #4c4d4f" transform="translate(250.481549 107.41854) scale(0.08 -0.08)">
       <use xlink:href="#FiraMath-Regular-30"/>
       <use xlink:href="#FiraMath-Regular-2e" x="55.999985"/>
       <use xlink:href="#FiraMath-Regular-30" x="79.999969"/>
       <use xlink:href="#FiraMath-Regular-30" x="135.999954"/>
       <use xlink:href="#FiraMath-Regular-36" x="191.999939"/>
      </g>
     </g>
    </g>
    <g id="ytick_12">
     <g id="line2d_39">
      <path d="M 277.321549 86.88063 
L 468.359878 86.88063 
" clip-path="url(#p7bb749bc37)" style="fill: none; stroke: #d8dce2; stroke-width: 0.4; stroke-linecap: square"/>
     </g>
     <g id="line2d_40">
      <g>
       <use xlink:href="#m569c139fc4" x="277.321549" y="86.88063" style="fill: #4c4d4f; stroke: #4c4d4f; stroke-width: 0.6"/>
      </g>
     </g>
     <g id="text_29">
      <!-- 0.008 -->
      <g style="fill: #4c4d4f" transform="translate(250.481549 89.88063) scale(0.08 -0.08)">
       <use xlink:href="#FiraMath-Regular-30"/>
       <use xlink:href="#FiraMath-Regular-2e" x="55.999985"/>
       <use xlink:href="#FiraMath-Regular-30" x="79.999969"/>
       <use xlink:href="#FiraMath-Regular-30" x="135.999954"/>
       <use xlink:href="#FiraMath-Regular-38" x="191.999939"/>
      </g>
     </g>
    </g>
    <g id="ytick_13">
     <g id="line2d_41">
      <path d="M 277.321549 69.34272 
L 468.359878 69.34272 
" clip-path="url(#p7bb749bc37)" style="fill: none; stroke: #d8dce2; stroke-width: 0.4; stroke-linecap: square"/>
     </g>
     <g id="line2d_42">
      <g>
       <use xlink:href="#m569c139fc4" x="277.321549" y="69.34272" style="fill: #4c4d4f; stroke: #4c4d4f; stroke-width: 0.6"/>
      </g>
     </g>
     <g id="text_30">
      <!-- 0.010 -->
      <g style="fill: #4c4d4f" transform="translate(250.481549 72.34272) scale(0.08 -0.08)">
       <use xlink:href="#FiraMath-Regular-30"/>
       <use xlink:href="#FiraMath-Regular-2e" x="55.999985"/>
       <use xlink:href="#FiraMath-Regular-30" x="79.999969"/>
       <use xlink:href="#FiraMath-Regular-31" x="135.999954"/>
       <use xlink:href="#FiraMath-Regular-30" x="191.999939"/>
      </g>
     </g>
    </g>
    <g id="ytick_14">
     <g id="line2d_43">
      <path d="M 277.321549 51.80481 
L 468.359878 51.80481 
" clip-path="url(#p7bb749bc37)" style="fill: none; stroke: #d8dce2; stroke-width: 0.4; stroke-linecap: square"/>
     </g>
     <g id="line2d_44">
      <g>
       <use xlink:href="#m569c139fc4" x="277.321549" y="51.80481" style="fill: #4c4d4f; stroke: #4c4d4f; stroke-width: 0.6"/>
      </g>
     </g>
     <g id="text_31">
      <!-- 0.012 -->
      <g style="fill: #4c4d4f" transform="translate(250.481549 54.80481) scale(0.08 -0.08)">
       <use xlink:href="#FiraMath-Regular-30"/>
       <use xlink:href="#FiraMath-Regular-2e" x="55.999985"/>
       <use xlink:href="#FiraMath-Regular-30" x="79.999969"/>
       <use xlink:href="#FiraMath-Regular-31" x="135.999954"/>
       <use xlink:href="#FiraMath-Regular-32" x="191.999939"/>
      </g>
     </g>
    </g>
    <g id="ytick_15">
     <g id="line2d_45">
      <path d="M 277.321549 34.2669 
L 468.359878 34.2669 
" clip-path="url(#p7bb749bc37)" style="fill: none; stroke: #d8dce2; stroke-width: 0.4; stroke-linecap: square"/>
     </g>
     <g id="line2d_46">
      <g>
       <use xlink:href="#m569c139fc4" x="277.321549" y="34.2669" style="fill: #4c4d4f; stroke: #4c4d4f; stroke-width: 0.6"/>
      </g>
     </g>
     <g id="text_32">
      <!-- 0.014 -->
      <g style="fill: #4c4d4f" transform="translate(250.481549 37.2669) scale(0.08 -0.08)">
       <use xlink:href="#FiraMath-Regular-30"/>
       <use xlink:href="#FiraMath-Regular-2e" x="55.999985"/>
       <use xlink:href="#FiraMath-Regular-30" x="79.999969"/>
       <use xlink:href="#FiraMath-Regular-31" x="135.999954"/>
       <use xlink:href="#FiraMath-Regular-34" x="191.999939"/>
      </g>
     </g>
    </g>
    <g id="ytick_16">
     <g id="line2d_47">
      <path d="M 277.321549 16.72899 
L 468.359878 16.72899 
" clip-path="url(#p7bb749bc37)" style="fill: none; stroke: #d8dce2; stroke-width: 0.4; stroke-linecap: square"/>
     </g>
     <g id="line2d_48">
      <g>
       <use xlink:href="#m569c139fc4" x="277.321549" y="16.72899" style="fill: #4c4d4f; stroke: #4c4d4f; stroke-width: 0.6"/>
      </g>
     </g>
     <g id="text_33">
      <!-- 0.016 -->
      <g style="fill: #4c4d4f" transform="translate(250.481549 19.72899) scale(0.08 -0.08)">
       <use xlink:href="#FiraMath-Regular-30"/>
       <use xlink:href="#FiraMath-Regular-2e" x="55.999985"/>
       <use xlink:href="#FiraMath-Regular-30" x="79.999969"/>
       <use xlink:href="#FiraMath-Regular-31" x="135.999954"/>
       <use xlink:href="#FiraMath-Regular-36" x="191.999939"/>
      </g>
     </g>
    </g>
    <g id="text_34">
     <!-- 散度 -->
     <g style="fill: #3b4252" transform="translate(244.671315 95.38063) rotate(-90) scale(0.085 -0.085)">
      <defs>
       <path id="SourceHanSansSC-Normal-6563" d="M 2701 5318 
L 2298 5318 
L 2298 4582 
L 1427 4582 
L 1427 5318 
L 1030 5318 
L 1030 4582 
L 371 4582 
L 371 4211 
L 1030 4211 
L 1030 3411 
L 269 3411 
L 269 3040 
L 3386 3040 
L 3386 3411 
L 2701 3411 
L 2701 4211 
L 3366 4211 
L 3366 4582 
L 2701 4582 
L 2701 5318 
z
M 1427 4211 
L 2298 4211 
L 2298 3411 
L 1427 3411 
L 1427 4211 
z
M 1133 1760 
L 1133 2240 
L 2592 2240 
L 2592 1760 
L 1133 1760 
z
M 1133 1421 
L 2592 1421 
L 2592 934 
L 1133 934 
L 1133 1421 
z
M 3002 -32 
L 3002 2586 
L 736 2586 
L 736 -499 
L 1133 -499 
L 1133 595 
L 2592 595 
L 2592 -32 
C 2592 -102 2573 -128 2496 -128 
C 2419 -134 2163 -134 1875 -122 
C 1926 -230 1984 -384 2003 -486 
C 2400 -486 2650 -486 2797 -429 
C 2957 -358 3002 -250 3002 -32 
z
M 4467 5306 
L 4045 5363 
C 3885 4288 3603 3226 3136 2547 
C 3226 2464 3392 2285 3443 2202 
C 3603 2445 3744 2733 3872 3040 
C 4019 2349 4211 1715 4467 1171 
C 4122 614 3661 179 3034 -147 
C 3117 -237 3251 -422 3290 -518 
C 3878 -179 4333 237 4691 749 
C 4998 218 5389 -211 5875 -506 
C 5946 -390 6080 -230 6182 -147 
C 5664 134 5254 582 4934 1146 
C 5318 1850 5555 2714 5709 3770 
L 6138 3770 
L 6138 4173 
L 4230 4173 
C 4326 4538 4403 4922 4467 5306 
z
M 4122 3770 
L 5280 3770 
C 5165 2925 4986 2208 4704 1606 
C 4429 2221 4237 2944 4109 3718 
L 4122 3770 
z
" transform="scale(0.015625)"/>
       <path id="SourceHanSansSC-Normal-5ea6" d="M 2880 4141 
L 2470 4141 
L 2470 3558 
L 1414 3558 
L 1414 3200 
L 2470 3200 
L 2470 2125 
L 4928 2125 
L 4928 3200 
L 5984 3200 
L 5984 3558 
L 4928 3558 
L 4928 4141 
L 4506 4141 
L 4506 3558 
L 2880 3558 
L 2880 4141 
z
M 4506 3200 
L 4506 2477 
L 2880 2477 
L 2880 3200 
L 4506 3200 
z
M 5171 1690 
L 1510 1690 
L 1510 1331 
L 2381 1331 
L 2157 1242 
C 2426 864 2797 557 3232 301 
C 2611 90 1907 -32 1203 -96 
C 1274 -192 1350 -358 1376 -461 
C 2182 -365 2982 -205 3680 77 
C 4320 -211 5082 -397 5894 -499 
C 5946 -384 6054 -218 6144 -128 
C 5421 -58 4742 83 4154 294 
C 4736 602 5216 1011 5517 1562 
L 5248 1709 
L 5171 1690 
z
M 4890 1331 
C 4602 973 4186 698 3699 480 
C 3226 704 2835 986 2566 1331 
L 4890 1331 
z
M 3469 5395 
L 3040 5293 
C 3136 5120 3238 4902 3315 4717 
L 826 4717 
L 826 2970 
C 826 2016 774 659 243 -301 
C 358 -339 550 -435 634 -499 
C 1171 506 1248 1958 1248 2970 
L 1248 4307 
L 6061 4307 
L 6061 4717 
L 3802 4717 
C 3725 4922 3590 5184 3469 5395 
z
" transform="scale(0.015625)"/>
      </defs>
      <use xlink:href="#SourceHanSansSC-Normal-6563"/>
      <use xlink:href="#SourceHanSansSC-Normal-5ea6" x="99.999985"/>
     </g>
    </g>
   </g>
   <g id="line2d_49">
    <path d="M 264.101676 -1 
L 267.862498 11.083429 
L 272.028195 23.755416 
L 276.193892 35.72001 
L 280.359589 47.000751 
L 284.525286 57.619866 
L 288.690983 67.598359 
L 292.85668 76.956098 
L 297.022377 85.711894 
L 301.188074 93.883573 
L 305.353771 101.488041 
L 309.519467 108.541344 
L 313.685164 115.058724 
L 317.850861 121.054671 
L 322.016558 126.542966 
L 326.182255 131.536731 
L 330.347952 136.048463 
L 334.513649 140.090072 
L 338.679346 143.67292 
L 342.845043 146.807846 
L 347.01074 149.505201 
L 351.176436 151.774871 
L 355.342133 153.626308 
L 359.50783 155.068548 
L 363.673527 156.110237 
L 367.839224 156.759649 
L 372.004921 157.024707 
L 376.170618 156.913002 
L 380.336315 156.431806 
L 384.502012 155.588092 
L 388.667708 154.388547 
L 392.833405 152.839585 
L 396.999102 150.947361 
L 401.164799 148.717784 
L 405.330496 146.156526 
L 409.496193 143.269035 
L 413.66189 140.060546 
L 417.827587 136.536087 
L 421.993284 132.700492 
L 426.158981 128.558405 
L 430.324677 124.114294 
L 434.490374 119.372452 
L 438.656071 114.33701 
L 442.821768 109.011939 
L 446.987465 103.401061 
L 451.153162 97.50805 
L 455.318859 91.336443 
L 459.484556 84.88964 
L 465.733101 74.71057 
L 471.981646 63.93017 
L 478.230192 52.558373 
L 480.055118 49.123454 
L 480.055118 49.123454 
" clip-path="url(#p7bb749bc37)" style="fill: none; stroke: #7b95c6; stroke-width: 1.1; stroke-linecap: square"/>
   </g>
   <g id="line2d_50">
    <path d="M 251.948486 -1 
L 257.448256 13.06155 
L 263.696802 28.231528 
L 269.945347 42.557186 
L 274.111044 51.638558 
L 278.276741 60.344676 
L 282.442438 68.675541 
L 286.608134 76.631153 
L 290.773831 84.211511 
L 294.939528 91.416615 
L 299.105225 98.246467 
L 303.270922 104.701065 
L 307.436619 110.780409 
L 311.602316 116.4845 
L 315.768013 121.813338 
L 319.93371 126.766922 
L 324.099407 131.345253 
L 328.265103 135.54833 
L 332.4308 139.376154 
L 336.596497 142.828725 
L 340.762194 145.906042 
L 344.927891 148.608105 
L 349.093588 150.934916 
L 353.259285 152.886472 
L 357.424982 154.462776 
L 361.590679 155.663826 
L 365.756376 156.489622 
L 369.922072 156.940165 
L 374.087769 157.015455 
L 378.253466 156.715491 
L 382.419163 156.040274 
L 386.58486 154.989804 
L 390.750557 153.56408 
L 394.916254 151.763102 
L 399.081951 149.586871 
L 403.247648 147.035387 
L 407.413345 144.108649 
L 411.579041 140.806658 
L 415.744738 137.129414 
L 419.910435 133.076916 
L 424.076132 128.649164 
L 428.241829 123.84616 
L 432.407526 118.667901 
L 436.573223 113.11439 
L 440.73892 107.185625 
L 444.904617 100.881606 
L 449.070313 94.202334 
L 453.23601 87.147809 
L 457.401707 79.71803 
L 461.567404 71.912998 
L 465.733101 63.732712 
L 469.898798 55.177173 
L 474.064495 46.246381 
L 480.055118 32.740208 
L 480.055118 32.740208 
" clip-path="url(#p7bb749bc37)" style="fill: none; stroke-dasharray: 4.07,1.76; stroke-dashoffset: 0; stroke: #c85e62; stroke-width: 1.1"/>
   </g>
   <g id="line2d_51">
    <path d="M 372.840714 157.03227 
L 372.840714 16.72899 
" clip-path="url(#p7bb749bc37)" style="fill: none; stroke-dasharray: 0.6,0.99; stroke-dashoffset: 0; stroke: #6b7280; stroke-width: 0.6"/>
   </g>
   <g id="patch_6">
    <path d="M 277.321549 157.03227 
L 277.321549 16.72899 
" style="fill: none; stroke: #4c4d4f; stroke-width: 0.75; stroke-linejoin: miter; stroke-linecap: square"/>
   </g>
   <g id="patch_7">
    <path d="M 277.321549 157.03227 
L 468.359878 157.03227 
" style="fill: none; stroke: #4c4d4f; stroke-width: 0.75; stroke-linejoin: miter; stroke-linecap: square"/>
   </g>
   <g id="text_35">
    <!-- (b) 局部放大 -->
    <g style="fill: #3b4252" transform="translate(348.05837 10.72899) scale(0.09 -0.09)">
     <defs>
      <path id="FiraMath-Regular-62" d="M 1939 390 
C 1638 390 1370 576 1197 845 
L 1197 2458 
C 1370 2726 1613 2982 1984 2982 
C 2458 2982 2771 2650 2771 1690 
C 2771 768 2432 390 1939 390 
z
M 2150 3450 
C 1741 3450 1427 3264 1197 2950 
L 1197 4800 
L 608 4730 
L 608 0 
L 1126 0 
L 1184 371 
C 1414 90 1709 -77 2080 -77 
C 2899 -77 3405 634 3405 1690 
C 3405 2816 2912 3450 2150 3450 
z
" transform="scale(0.015625)"/>
      <path id="SourceHanSansSC-Normal-5c40" d="M 5824 2829 
L 1402 2829 
L 1414 3411 
L 5382 3411 
L 5382 5024 
L 992 5024 
L 992 3501 
C 992 2458 915 986 186 -64 
C 282 -109 461 -250 531 -333 
C 1075 454 1293 1510 1376 2445 
L 5382 2445 
C 5312 755 5229 134 5088 -26 
C 5030 -90 4966 -109 4845 -109 
C 4723 -109 4397 -102 4038 -70 
C 4109 -186 4154 -358 4166 -474 
C 4512 -499 4851 -499 5030 -486 
C 5229 -467 5344 -429 5459 -288 
C 5658 -64 5734 646 5818 2630 
C 5824 2688 5824 2829 5824 2829 
z
M 1414 4646 
L 4954 4646 
L 4954 3782 
L 1414 3782 
L 1414 4646 
z
M 2374 1920 
L 1978 1920 
L 1978 -90 
L 2374 -90 
L 2374 288 
L 4410 288 
L 4410 1920 
L 2374 1920 
z
M 2374 1555 
L 4006 1555 
L 4006 646 
L 2374 646 
L 2374 1555 
z
" transform="scale(0.015625)"/>
      <path id="SourceHanSansSC-Normal-653e" d="M 1709 5376 
L 1338 5261 
C 1466 4992 1613 4621 1670 4390 
L 2067 4525 
C 1997 4749 1850 5107 1709 5376 
z
M 1478 2566 
L 1478 2624 
L 2413 2624 
C 2368 819 2317 179 2214 32 
C 2163 -38 2106 -51 2016 -51 
C 1914 -51 1664 -51 1395 -26 
C 1453 -134 1491 -307 1504 -429 
C 1779 -442 2048 -448 2195 -429 
C 2368 -410 2470 -365 2573 -224 
C 2739 -13 2778 691 2822 2816 
C 2822 2880 2829 3027 2829 3027 
L 1478 3027 
L 1478 3910 
L 3136 3910 
L 3136 4320 
L 288 4320 
L 288 3910 
L 1069 3910 
L 1069 2566 
C 1069 1645 973 614 173 -218 
C 275 -294 416 -410 493 -499 
C 1350 410 1478 1498 1478 2566 
z
M 4378 5299 
L 3942 5370 
C 3744 4262 3386 3194 2867 2515 
C 2963 2438 3136 2285 3206 2202 
C 3386 2445 3546 2739 3693 3059 
C 3853 2349 4058 1715 4339 1165 
C 3955 608 3443 179 2758 -141 
C 2842 -237 2970 -422 3014 -518 
C 3667 -186 4173 237 4570 768 
C 4915 224 5350 -205 5901 -486 
C 5965 -378 6106 -218 6202 -128 
C 5626 141 5178 589 4826 1158 
C 5242 1856 5504 2714 5677 3763 
L 6144 3763 
L 6144 4166 
L 4102 4166 
C 4211 4531 4301 4909 4378 5299 
z
M 3974 3763 
L 5248 3763 
C 5114 2906 4909 2182 4595 1581 
C 4294 2195 4090 2918 3949 3699 
L 3974 3763 
z
" transform="scale(0.015625)"/>
      <path id="SourceHanSansSC-Normal-5927" d="M 3443 5357 
L 2989 5357 
C 2982 4851 2989 4198 2886 3507 
L 403 3507 
L 403 3072 
L 2810 3072 
C 2547 1837 1901 563 282 -141 
C 397 -230 538 -384 608 -493 
C 2214 237 2906 1523 3206 2790 
C 3706 1286 4550 102 5798 -480 
C 5875 -365 6016 -186 6125 -90 
C 4877 435 4019 1619 3571 3072 
L 6022 3072 
L 6022 3507 
L 3341 3507 
C 3430 4192 3437 4838 3443 5357 
z
" transform="scale(0.015625)"/>
     </defs>
     <use xlink:href="#FiraMath-Regular-28"/>
     <use xlink:href="#FiraMath-Regular-62" x="32.399994"/>
     <use xlink:href="#FiraMath-Regular-29" x="91.799988"/>
     <use xlink:href="#FiraMath-Regular-20" x="124.199982"/>
     <use xlink:href="#SourceHanSansSC-Normal-5c40" x="150.699966"/>
     <use xlink:href="#SourceHanSansSC-Normal-90e8" x="250.699951"/>
     <use xlink:href="#SourceHanSansSC-Normal-653e" x="350.699936"/>
     <use xlink:href="#SourceHanSansSC-Normal-5927" x="450.699921"/>
    </g>
   </g>
   <g id="legend_2">
    <g id="line2d_52">
     <path d="M 284.521549 27.12899 
L 292.521549 27.12899 
L 300.521549 27.12899 
" style="fill: none; stroke: #7b95c6; stroke-width: 1.1; stroke-linecap: square"/>
    </g>
    <g id="text_36">
     <!-- 精确 KL -->
     <g style="fill: #3b4252" transform="translate(306.921549 29.92899) scale(0.08 -0.08)">
      <use xlink:href="#SourceHanSansSC-Normal-7cbe"/>
      <use xlink:href="#SourceHanSansSC-Normal-786e" x="99.999985"/>
      <use xlink:href="#FiraMath-Regular-20" x="199.999969"/>
      <use xlink:href="#FiraMath-Regular-4b" x="226.499954"/>
      <use xlink:href="#FiraMath-Regular-4c" x="285.399948"/>
     </g>
    </g>
    <g id="line2d_53">
     <path d="M 284.521549 38.83274 
L 292.521549 38.83274 
L 300.521549 38.83274 
" style="fill: none; stroke-dasharray: 4.07,1.76; stroke-dashoffset: 0; stroke: #c85e62; stroke-width: 1.1"/>
    </g>
    <g id="text_37">
     <!-- Fisher二阶项 -->
     <g style="fill: #3b4252" transform="translate(306.921549 41.63274) scale(0.08 -0.08)">
      <use xlink:href="#FiraMath-Regular-46"/>
      <use xlink:href="#FiraMath-Regular-69" x="49.099991"/>
      <use xlink:href="#FiraMath-Regular-73" x="77.299988"/>
      <use xlink:href="#FiraMath-Regular-68" x="123.999985"/>
      <use xlink:href="#FiraMath-Regular-65" x="182.599976"/>
      <use xlink:href="#FiraMath-Regular-72" x="237.09996"/>
      <use xlink:href="#SourceHanSansSC-Normal-4e8c" x="275.699951"/>
      <use xlink:href="#SourceHanSansSC-Normal-9636" x="375.699936"/>
      <use xlink:href="#SourceHanSansSC-Normal-9879" x="475.699921"/>
     </g>
    </g>
   </g>
  </g>
 </g>
 <defs>
  <clipPath id="pdfa8bc9c05">
   <rect x="35.78024" y="16.72899" width="191.038329" height="140.30328"/>
  </clipPath>
  <clipPath id="p7bb749bc37">
   <rect x="277.321549" y="16.72899" width="191.038329" height="140.30328"/>
  </clipPath>
 </defs>
</svg>
