<?xml version="1.0" encoding="utf-8" standalone="no"?>
<!DOCTYPE svg PUBLIC "-//W3C//DTD SVG 1.1//EN"
  "http://www.w3.org/Graphics/SVG/1.1/DTD/svg11.dtd">
<svg xmlns:xlink="http://www.w3.org/1999/xlink" width="316.8pt" height="164.16pt" viewBox="0 0 316.8 164.16" xmlns="http://www.w3.org/2000/svg" version="1.1">
 <metadata>
  <rdf:RDF xmlns:dc="http://purl.org/dc/elements/1.1/" xmlns:cc="http://creativecommons.org/ns#" xmlns:rdf="http://www.w3.org/1999/02/22-rdf-syntax-ns#">
   <cc:Work>
    <dc:type rdf:resource="http://purl.org/dc/dcmitype/StillImage"/>
    <dc:date>2026-10-06T13:52:40.754991</dc:date>
    <dc:format>image/svg+xml</dc:format>
    <dc:creator>
     <cc:Agent>
      <dc:title>Matplotlib v3.11.2, https://matplotlib.org/</dc:title>
     </cc:Agent>
    </dc:creator>
   </cc:Work>
  </rdf:RDF>
 </metadata>
 <defs>
  <style type="text/css">*{stroke-linejoin: round; stroke-linecap: butt}</style>
 </defs>
 <g id="figure_1">
  <g id="patch_1">
   <path d="M 0 164.16 
L 316.8 164.16 
L 316.8 0 
L 0 0 
z
" style="fill: #ffffff"/>
  </g>
  <g id="axes_1">
   <g id="patch_2">
    <path d="M 44.352 129.6864 
L 307.296 129.6864 
L 307.296 16.416 
L 44.352 16.416 
z
" style="fill: #ffffff"/>
   </g>
   <g id="line2d_1">
    <path d="M 44.352 88.497164 
L 307.296 88.497164 
" clip-path="url(#p2e1d0d79f5)" style="fill: none; stroke: #747a80; stroke-width: 0.6; stroke-linecap: square"/>
   </g>
   <g id="line2d_2">
    <path d="M 175.824 129.6864 
L 175.824 16.416 
" clip-path="url(#p2e1d0d79f5)" style="fill: none; stroke-dasharray: 0.6,0.99; stroke-dashoffset: 0; stroke: #c8cdcf; stroke-width: 0.6"/>
   </g>
   <g id="matplotlib.axis_1">
    <g id="xtick_1">
     <g id="line2d_3">
      <defs>
       <path id="m59391867cd" d="M 0 0 
L 0 3.5 
" style="stroke: #4c4d4f; stroke-width: 0.6"/>
      </defs>
      <g>
       <use xlink:href="#m59391867cd" x="59.819294" y="129.6864" style="fill: #4c4d4f; stroke: #4c4d4f; stroke-width: 0.6"/>
      </g>
     </g>
     <g id="text_1">
      <!-- 1 -->
      <g style="fill: #4c4d4f" transform="translate(57.831169 144.6864) scale(0.08 -0.08)">
       <defs>
        <path id="SourceSans3-Regular-536" d="M 506 0 
L 2810 0 
L 2810 435 
L 1965 435 
L 1965 4083 
L 1562 4083 
C 1338 3949 1069 3846 698 3782 
L 698 3443 
L 1440 3443 
L 1440 435 
L 506 435 
L 506 0 
z
" transform="scale(0.015625)"/>
       </defs>
       <use xlink:href="#SourceSans3-Regular-536"/>
      </g>
     </g>
    </g>
    <g id="xtick_2">
     <g id="line2d_4">
      <g>
       <use xlink:href="#m59391867cd" x="137.155765" y="129.6864" style="fill: #4c4d4f; stroke: #4c4d4f; stroke-width: 0.6"/>
      </g>
     </g>
     <g id="text_2">
      <!-- 2 -->
      <g style="fill: #4c4d4f" transform="translate(135.16764 144.6864) scale(0.08 -0.08)">
       <defs>
        <path id="SourceSans3-Regular-537" d="M 256 0 
L 2893 0 
L 2893 454 
L 1664 454 
C 1453 454 1203 435 979 416 
C 1971 1434 2688 2170 2688 2963 
C 2688 3680 2221 4160 1466 4160 
C 941 4160 576 3910 237 3526 
L 531 3238 
C 768 3514 1062 3731 1402 3731 
C 1920 3731 2176 3398 2176 2931 
C 2176 2272 1478 1517 256 320 
L 256 0 
z
" transform="scale(0.015625)"/>
       </defs>
       <use xlink:href="#SourceSans3-Regular-537"/>
      </g>
     </g>
    </g>
    <g id="xtick_3">
     <g id="line2d_5">
      <g>
       <use xlink:href="#m59391867cd" x="214.492235" y="129.6864" style="fill: #4c4d4f; stroke: #4c4d4f; stroke-width: 0.6"/>
      </g>
     </g>
     <g id="text_3">
      <!-- 3 -->
      <g style="fill: #4c4d4f" transform="translate(212.50411 144.6864) scale(0.08 -0.08)">
       <defs>
        <path id="SourceSans3-Regular-538" d="M 1510 -77 
C 2259 -77 2854 365 2854 1088 
C 2854 1651 2464 2010 1971 2125 
L 1971 2150 
C 2413 2317 2714 2630 2714 3123 
C 2714 3782 2202 4160 1491 4160 
C 1011 4160 634 3942 320 3648 
L 602 3315 
C 845 3558 1133 3731 1472 3731 
C 1907 3731 2176 3482 2176 3085 
C 2176 2656 1888 2323 1018 2323 
L 1018 1920 
C 1990 1920 2323 1594 2323 1107 
C 2323 653 1971 358 1478 358 
C 998 358 678 589 435 845 
L 166 499 
C 442 198 858 -77 1510 -77 
z
" transform="scale(0.015625)"/>
       </defs>
       <use xlink:href="#SourceSans3-Regular-538"/>
      </g>
     </g>
    </g>
    <g id="xtick_4">
     <g id="line2d_6">
      <g>
       <use xlink:href="#m59391867cd" x="291.828706" y="129.6864" style="fill: #4c4d4f; stroke: #4c4d4f; stroke-width: 0.6"/>
      </g>
     </g>
     <g id="text_4">
      <!-- 4 -->
      <g style="fill: #4c4d4f" transform="translate(289.840581 144.6864) scale(0.08 -0.08)">
       <defs>
        <path id="SourceSans3-Regular-539" d="M 666 1549 
L 1619 2944 
C 1734 3142 1850 3322 1952 3520 
L 1978 3520 
C 1965 3302 1946 2950 1946 2733 
L 1946 1549 
L 666 1549 
z
M 1946 0 
L 2445 0 
L 2445 1126 
L 3002 1126 
L 3002 1549 
L 2445 1549 
L 2445 4083 
L 1856 4083 
L 109 1472 
L 109 1126 
L 1946 1126 
L 1946 0 
z
" transform="scale(0.015625)"/>
       </defs>
       <use xlink:href="#SourceSans3-Regular-539"/>
      </g>
     </g>
    </g>
    <g id="text_5">
     <!-- 路径上的顶点编号 -->
     <g style="fill: #222222" transform="translate(141.824 159.7944) scale(0.085 -0.085)">
      <defs>
       <path id="LXGWWenKai-Regular-40a4" d="M 5389 90 
Q 5536 -90 5536 -163 
Q 5536 -237 5481 -246 
Q 5427 -256 5357 -262 
L 3827 -333 
L 3834 -461 
L 3834 -480 
Q 3834 -634 3718 -634 
Q 3661 -634 3584 -595 
Q 3418 -518 3418 -371 
L 3418 -333 
Q 3430 -192 3430 -83 
L 3424 70 
L 3341 1107 
Q 3315 1331 3238 1466 
L 3206 1530 
Q 2925 1363 2691 1254 
Q 2458 1146 2400 1146 
Q 2342 1146 2342 1178 
Q 2342 1235 2490 1338 
Q 2925 1632 3366 1977 
Q 3808 2323 4160 2733 
Q 4006 2893 3856 3110 
Q 3706 3328 3558 3507 
Q 2880 2605 2701 2605 
Q 2669 2605 2669 2653 
Q 2669 2701 2810 2893 
Q 3142 3347 3513 4102 
Q 3885 4858 3885 5114 
L 3878 5190 
L 3878 5210 
Q 3878 5286 3942 5286 
Q 4006 5286 4096 5235 
Q 4333 5114 4333 5011 
Q 4333 4954 4237 4736 
Q 4141 4518 4070 4390 
L 5178 4486 
L 5242 4486 
Q 5325 4486 5430 4416 
Q 5536 4346 5536 4275 
Q 5536 4205 5501 4160 
Q 5466 4115 5389 3936 
Q 5312 3757 5097 3395 
Q 4883 3034 4659 2752 
Q 5453 2067 6246 1709 
Q 6362 1664 6362 1593 
Q 6362 1523 6218 1430 
Q 6074 1338 6029 1338 
Q 5920 1338 5414 1677 
Q 4909 2016 4422 2470 
Q 4006 2029 3322 1600 
Q 3462 1587 3725 1491 
L 5222 1581 
L 5280 1581 
Q 5376 1581 5469 1497 
Q 5562 1414 5562 1360 
Q 5562 1306 5546 1280 
Q 5530 1254 5523 1222 
L 5389 90 
z
M 800 3027 
Q 819 3181 819 3264 
L 819 3386 
Q 819 3424 813 3456 
L 742 4282 
Q 730 4474 669 4576 
Q 608 4678 608 4713 
Q 608 4749 688 4749 
Q 768 4749 1126 4627 
L 2451 4723 
L 2509 4723 
Q 2605 4723 2694 4652 
Q 2784 4582 2784 4515 
Q 2784 4448 2765 4409 
Q 2746 4371 2739 4320 
L 2618 3411 
Q 2758 3238 2758 3177 
Q 2758 3117 2707 3104 
Q 2656 3091 2579 3085 
L 1952 3046 
L 1946 2170 
L 2163 2182 
Q 2298 2195 2387 2224 
Q 2477 2253 2515 2253 
Q 2554 2253 2637 2202 
Q 2848 2061 2848 1958 
Q 2848 1882 2694 1869 
L 1939 1830 
L 1926 570 
Q 2253 666 2617 787 
Q 2982 909 3036 909 
Q 3091 909 3091 870 
Q 3091 723 1952 252 
Q 813 -218 557 -218 
Q 416 -218 304 -48 
Q 192 122 192 157 
Q 192 192 323 192 
Q 454 192 813 275 
L 762 2086 
Q 762 2221 714 2310 
Q 666 2400 666 2438 
Q 666 2477 765 2477 
Q 864 2477 1043 2419 
Q 1146 2381 1146 2298 
L 1171 358 
L 1549 461 
L 1568 3021 
L 1222 3002 
L 1222 2938 
Q 1222 2784 1114 2784 
Q 979 2784 889 2864 
Q 800 2944 800 3027 
z
M 2342 4384 
L 1120 4307 
L 1190 3322 
L 2259 3392 
L 2342 4384 
z
M 3891 4019 
L 3750 3789 
Q 4186 3213 4384 3008 
Q 4749 3488 4979 4102 
L 3891 4019 
z
M 5107 1216 
L 3718 1139 
L 3795 32 
L 5011 83 
L 5107 1216 
z
" transform="scale(0.015625)"/>
       <path id="LXGWWenKai-Regular-1f34" d="M 1293 1773 
Q 845 1254 557 1056 
Q 269 858 224 858 
Q 179 858 179 906 
Q 179 954 397 1190 
Q 896 1734 1389 2473 
Q 1882 3213 1882 3482 
Q 1882 3597 1952 3597 
Q 2022 3597 2108 3533 
Q 2195 3469 2262 3389 
Q 2330 3309 2330 3264 
Q 2330 3110 1670 2240 
L 1677 -518 
Q 1677 -640 1555 -640 
Q 1459 -640 1344 -566 
Q 1229 -493 1229 -378 
Q 1229 -339 1248 -252 
Q 1267 -166 1267 70 
L 1293 1773 
z
M 3302 1434 
L 3110 1427 
L 3078 1427 
Q 2931 1427 2829 1606 
Q 2778 1702 2778 1747 
Q 2778 1792 2810 1792 
Q 2842 1792 2906 1779 
Q 2970 1766 3110 1766 
L 3200 1766 
L 4934 1843 
Q 5133 1862 5184 1875 
Q 5235 1888 5289 1888 
Q 5344 1888 5427 1837 
Q 5626 1709 5626 1600 
Q 5626 1536 5485 1523 
L 4326 1478 
L 4320 102 
L 5530 128 
Q 5696 128 5769 147 
Q 5843 166 5897 166 
Q 5952 166 6029 115 
Q 6234 -26 6234 -122 
Q 6234 -192 6086 -205 
L 2714 -294 
L 2534 -301 
Q 2413 -301 2368 -243 
Q 2176 -32 2176 64 
Q 2176 102 2208 102 
Q 2240 102 2310 83 
Q 2381 64 2598 64 
L 3917 90 
L 3917 1459 
L 3302 1434 
z
M 2336 4672 
Q 1562 3578 877 3104 
Q 602 2912 531 2912 
Q 461 2912 461 2944 
Q 461 3008 640 3181 
Q 1075 3603 1481 4166 
Q 1888 4730 1901 4979 
Q 1901 5094 1984 5094 
Q 2093 5094 2298 4877 
Q 2374 4800 2374 4765 
Q 2374 4730 2361 4714 
Q 2349 4698 2336 4672 
z
M 5677 2042 
Q 5645 2042 5574 2099 
Q 5338 2291 5075 2483 
Q 4806 2675 4243 3021 
Q 3443 2336 2662 2086 
Q 2432 2022 2387 2022 
Q 2368 2022 2368 2089 
Q 2368 2157 2515 2240 
Q 3264 2624 3923 3226 
Q 4518 3782 4813 4301 
Q 3130 4179 3066 4179 
Q 2976 4179 2889 4246 
Q 2803 4314 2758 4403 
Q 2714 4493 2714 4531 
Q 2714 4576 2746 4582 
Q 2874 4563 3027 4563 
L 5043 4691 
Q 5133 4691 5248 4627 
Q 5363 4563 5363 4470 
Q 5363 4378 5315 4336 
Q 5267 4294 5248 4269 
Q 4998 3770 4518 3283 
Q 4576 3245 4666 3200 
Q 4954 3027 5142 2921 
Q 5331 2816 5507 2697 
Q 5683 2579 5801 2486 
Q 5920 2394 5920 2342 
Q 5920 2291 5869 2217 
Q 5818 2144 5760 2093 
Q 5702 2042 5677 2042 
z
" transform="scale(0.015625)"/>
       <path id="LXGWWenKai-Regular-1188" d="M 666 237 
L 2803 314 
L 2771 4595 
Q 2771 4781 2675 4922 
Q 2650 4966 2650 4992 
Q 2650 5037 2723 5037 
Q 2797 5037 2944 4992 
Q 3226 4896 3226 4781 
L 3232 2918 
L 4390 2982 
Q 4627 3002 4700 3030 
Q 4774 3059 4841 3059 
Q 4909 3059 5001 2992 
Q 5094 2925 5158 2845 
Q 5222 2765 5222 2726 
Q 5222 2650 5062 2630 
L 3232 2522 
L 3245 333 
L 5325 410 
Q 5504 422 5597 448 
Q 5690 474 5731 474 
Q 5773 474 5865 416 
Q 5958 358 6035 275 
Q 6112 192 6112 134 
Q 6112 38 5952 26 
L 941 -154 
L 730 -160 
Q 442 -160 346 102 
Q 301 211 301 243 
Q 301 275 333 275 
Q 365 275 445 256 
Q 525 237 666 237 
z
" transform="scale(0.015625)"/>
       <path id="LXGWWenKai-Regular-300d" d="M 3846 4890 
L 3834 4992 
Q 3834 5069 3898 5069 
Q 3917 5069 4019 5024 
Q 4307 4896 4307 4762 
Q 4307 4589 3898 3738 
L 5504 3834 
L 5530 3834 
Q 5613 3834 5696 3773 
Q 5779 3712 5779 3616 
L 5760 3469 
Q 5709 1747 5530 301 
Q 5427 -544 5082 -544 
Q 4934 -544 4841 -483 
Q 4749 -422 4605 -313 
Q 4461 -205 4301 -70 
Q 4141 64 4025 179 
Q 3910 294 3910 345 
Q 3910 397 3984 397 
Q 4058 397 4282 262 
Q 4506 128 4947 -45 
L 4960 -45 
Q 4998 -45 5018 6 
Q 5299 1107 5338 3469 
L 3731 3366 
Q 3450 2880 3232 2595 
Q 3014 2310 2944 2310 
Q 2912 2310 2912 2371 
Q 2912 2432 3104 2787 
Q 3296 3142 3571 3875 
Q 3846 4608 3846 4845 
L 3846 4890 
z
M 1715 4749 
Q 1715 4768 1702 4845 
Q 1702 4922 1779 4922 
Q 1920 4922 2035 4832 
Q 2150 4742 2150 4665 
Q 2150 4589 1920 4160 
Q 1715 3802 1581 3603 
L 2483 3654 
L 2560 3654 
Q 2746 3654 2803 3507 
Q 2822 3462 2822 3456 
L 2790 3328 
L 2688 480 
Q 2842 282 2842 214 
Q 2842 147 2790 134 
Q 2739 122 2656 115 
L 1229 64 
L 1235 -147 
L 1235 -166 
Q 1235 -307 1126 -307 
Q 979 -307 892 -233 
Q 806 -160 806 -77 
L 851 243 
L 794 3232 
Q 794 3418 717 3539 
Q 672 3629 672 3664 
Q 672 3699 768 3699 
Q 864 3699 1165 3584 
L 1222 3584 
Q 1715 4512 1715 4749 
z
M 2400 3302 
L 1171 3238 
L 1190 2061 
L 2368 2118 
L 2400 3302 
z
M 4755 1446 
Q 4755 1318 4589 1229 
Q 4525 1190 4483 1190 
Q 4442 1190 4358 1299 
Q 4160 1619 3913 1913 
Q 3667 2208 3564 2307 
Q 3462 2406 3462 2464 
Q 3462 2522 3532 2589 
Q 3603 2656 3657 2656 
Q 3712 2656 3869 2505 
Q 4026 2355 4390 1939 
Q 4755 1523 4755 1446 
z
M 2355 1773 
L 1197 1722 
L 1222 422 
L 2317 461 
L 2355 1773 
z
" transform="scale(0.015625)"/>
       <path id="LXGWWenKai-Regular-4890" d="M 422 4141 
Q 518 4122 602 4122 
L 2246 4230 
Q 2394 4250 2458 4275 
Q 2522 4301 2566 4301 
Q 2611 4301 2694 4256 
Q 2899 4134 2899 4013 
Q 2899 3930 2771 3917 
L 2758 3917 
L 1920 3859 
L 1901 461 
L 1907 275 
Q 1907 115 1833 41 
Q 1760 -32 1686 -54 
Q 1613 -77 1577 -77 
Q 1542 -77 1379 19 
Q 1216 115 931 387 
Q 646 659 646 713 
Q 646 768 700 768 
Q 755 768 972 656 
Q 1190 544 1510 442 
L 1536 3834 
L 877 3789 
Q 832 3782 794 3782 
L 717 3782 
Q 531 3782 448 3974 
Q 397 4096 397 4118 
Q 397 4141 422 4141 
z
M 2669 4666 
Q 2854 4634 2957 4634 
L 3040 4634 
L 5274 4794 
Q 5440 4806 5517 4832 
Q 5594 4858 5619 4858 
Q 5645 4858 5728 4813 
Q 5958 4685 5958 4570 
Q 5958 4506 5843 4493 
L 4314 4390 
Q 4442 4314 4442 4211 
Q 4442 4109 4064 3654 
L 5293 3731 
L 5382 3738 
Q 5478 3738 5561 3658 
Q 5645 3578 5645 3530 
Q 5645 3482 5625 3446 
Q 5606 3411 5600 3379 
L 5517 1434 
L 5510 1254 
L 5510 934 
L 5504 826 
Q 5491 653 5289 733 
Q 5088 813 5101 960 
L 5139 1306 
L 5210 3392 
L 3418 3283 
L 3469 1434 
L 3475 1178 
L 3488 858 
L 3488 749 
Q 3488 627 3366 627 
Q 3245 627 3161 700 
Q 3078 774 3078 858 
Q 3104 1069 3104 1210 
L 3046 3213 
Q 3034 3469 2995 3568 
Q 2957 3667 2957 3693 
Q 2957 3738 3027 3738 
Q 3098 3738 3418 3610 
L 3674 3629 
Q 3821 3859 3917 4035 
Q 4013 4211 4013 4371 
L 3194 4314 
Q 3142 4307 3091 4307 
L 3008 4307 
Q 2752 4307 2662 4518 
Q 2624 4595 2624 4630 
Q 2624 4666 2669 4666 
z
M 5715 -486 
Q 5178 64 4544 486 
Q 4461 550 4461 611 
Q 4461 672 4541 749 
Q 4621 826 4669 826 
Q 4717 826 4915 701 
Q 5114 576 5536 233 
Q 5958 -109 6006 -176 
Q 6054 -243 6054 -307 
Q 6054 -371 5977 -473 
Q 5901 -576 5853 -576 
Q 5805 -576 5715 -486 
z
M 2669 -602 
Q 2618 -627 2582 -627 
Q 2547 -627 2547 -553 
Q 2547 -480 2656 -416 
Q 3430 45 3744 621 
Q 3923 947 4003 1382 
Q 4083 1818 4083 2733 
Q 4083 2810 4032 2877 
Q 3981 2944 3981 2976 
Q 3981 3046 4061 3046 
Q 4141 3046 4272 3008 
Q 4403 2970 4448 2934 
Q 4493 2899 4493 2822 
Q 4474 1920 4406 1449 
Q 4339 979 4147 602 
Q 3776 -154 2669 -602 
z
" transform="scale(0.015625)"/>
       <path id="LXGWWenKai-Regular-2bd5" d="M 1632 1197 
Q 1658 1376 1658 1449 
Q 1658 1523 1645 1613 
L 1523 2560 
Q 1510 2746 1456 2854 
Q 1402 2963 1402 3001 
Q 1402 3040 1494 3040 
Q 1587 3040 1926 2912 
L 2880 2963 
L 2886 4717 
Q 2886 4845 2838 4931 
Q 2790 5018 2790 5053 
Q 2790 5088 2860 5088 
Q 2931 5088 3034 5069 
Q 3309 5018 3309 4864 
L 3290 4077 
L 4538 4147 
Q 4659 4154 4729 4186 
Q 4800 4218 4854 4218 
Q 4909 4218 4979 4166 
Q 5158 4045 5158 3917 
Q 5158 3827 4992 3814 
L 3283 3725 
L 3270 2989 
L 4499 3053 
L 4576 3053 
Q 4704 3053 4790 2979 
Q 4877 2906 4877 2848 
Q 4877 2790 4857 2761 
Q 4838 2733 4832 2707 
L 4659 1683 
Q 4800 1485 4800 1414 
Q 4800 1344 4745 1337 
Q 4691 1331 4608 1325 
L 2061 1235 
L 2074 1101 
L 2074 1069 
Q 2074 941 1952 941 
Q 1818 941 1725 1024 
Q 1632 1107 1632 1197 
z
M 4416 2701 
L 1926 2573 
L 2022 1587 
L 4269 1677 
L 4416 2701 
z
M 6029 -461 
Q 5805 -704 5677 -506 
Q 5235 96 4723 570 
Q 4646 646 4646 691 
Q 4646 736 4716 819 
Q 4787 902 4835 902 
Q 4883 902 5020 790 
Q 5158 678 5337 505 
Q 5517 333 5686 153 
Q 5856 -26 5968 -163 
Q 6080 -301 6080 -349 
Q 6080 -397 6029 -461 
z
M 4045 -352 
Q 3725 173 3347 576 
Q 3277 659 3277 698 
Q 3277 762 3357 826 
Q 3437 890 3481 890 
Q 3526 890 3638 784 
Q 3750 678 3888 518 
Q 4026 358 4157 195 
Q 4288 32 4374 -89 
Q 4461 -211 4461 -246 
Q 4461 -282 4361 -374 
Q 4262 -467 4188 -467 
Q 4115 -467 4045 -352 
z
M 486 -230 
Q 973 256 1210 755 
Q 1254 858 1331 858 
Q 1408 858 1491 810 
Q 1574 762 1574 698 
Q 1574 634 1497 486 
Q 1421 339 1305 153 
Q 1190 -32 1065 -208 
Q 941 -384 838 -499 
Q 736 -614 685 -614 
Q 634 -614 528 -531 
Q 422 -448 422 -371 
Q 422 -294 486 -230 
z
M 2611 -326 
Q 2381 205 2131 538 
Q 2067 621 2067 665 
Q 2067 710 2144 771 
Q 2221 832 2272 832 
Q 2323 832 2412 733 
Q 2502 634 2608 486 
Q 2714 339 2813 182 
Q 2912 26 2973 -92 
Q 3034 -211 3034 -249 
Q 3034 -288 2938 -368 
Q 2842 -448 2755 -448 
Q 2669 -448 2611 -326 
z
" transform="scale(0.015625)"/>
       <path id="LXGWWenKai-Regular-3621" d="M 2547 1203 
Q 2746 2182 2746 3667 
L 2746 3802 
Q 2746 4090 2704 4192 
Q 2662 4294 2662 4326 
Q 2662 4358 2739 4358 
Q 2816 4358 3174 4218 
L 5293 4320 
L 5325 4320 
Q 5491 4320 5564 4227 
Q 5638 4134 5638 4086 
Q 5638 4038 5594 3962 
L 5510 3341 
Q 5683 3142 5683 3091 
Q 5683 3040 5632 3027 
Q 5581 3014 5504 3008 
L 3117 2912 
Q 3110 2803 3107 2716 
Q 3104 2630 3091 2522 
Q 3206 2509 3437 2426 
L 5581 2522 
L 5645 2522 
Q 5811 2522 5875 2419 
Q 5939 2317 5939 2291 
L 5907 2125 
L 5882 -38 
L 5888 -224 
Q 5888 -416 5785 -489 
Q 5683 -563 5612 -563 
Q 5542 -563 5446 -473 
Q 5350 -384 5209 -182 
Q 5069 19 5069 83 
Q 5069 173 5254 64 
Q 5376 -32 5523 -115 
L 5530 1069 
L 4966 1056 
L 4960 -51 
Q 4960 -198 4864 -198 
Q 4819 -198 4704 -134 
Q 4589 -70 4589 13 
Q 4627 243 4627 531 
L 4634 1050 
L 4224 1037 
L 4230 -77 
Q 4230 -237 4115 -237 
Q 4058 -237 3949 -173 
Q 3840 -109 3840 -48 
Q 3840 13 3853 102 
Q 3866 192 3866 512 
L 3866 1024 
L 3418 1005 
L 3418 -358 
Q 3418 -467 3315 -512 
Q 3315 -486 3232 -461 
Q 3002 -397 3002 -230 
Q 3040 38 3040 198 
L 3059 1997 
L 3059 2099 
Q 3059 2144 3053 2195 
Q 2957 1222 2662 563 
Q 2522 224 2298 -141 
Q 2195 -307 2125 -307 
Q 2086 -307 2086 -243 
Q 2086 -179 2189 45 
Q 2246 166 2317 365 
Q 2368 531 2432 742 
L 2547 1203 
z
M 4301 4416 
Q 3987 4710 3635 4941 
Q 3533 5005 3533 5043 
Q 3533 5082 3597 5155 
Q 3661 5229 3709 5229 
Q 3757 5229 3913 5149 
Q 4070 5069 4348 4870 
Q 4627 4672 4627 4598 
Q 4627 4525 4544 4441 
Q 4461 4358 4409 4358 
Q 4358 4358 4301 4416 
z
M 4640 2144 
L 4211 2131 
L 4218 1357 
L 4634 1370 
L 4640 2144 
z
M 5536 2176 
L 4973 2157 
L 4966 1382 
L 5530 1408 
L 5536 2176 
z
M 5197 3968 
L 3149 3866 
L 3130 3251 
L 5146 3334 
L 5197 3968 
z
M 3866 2118 
L 3418 2106 
L 3418 1325 
L 3866 1344 
L 3866 2118 
z
M 1421 704 
Q 1920 922 2125 1018 
Q 2330 1114 2384 1120 
Q 2438 1126 2438 1107 
Q 2451 966 1676 470 
Q 902 -26 749 -38 
Q 710 -45 633 32 
Q 557 109 499 205 
Q 442 301 435 352 
Q 435 378 493 384 
L 557 390 
Q 646 397 813 454 
L 1421 704 
z
M 1754 1958 
Q 2042 2010 2189 2045 
Q 2336 2080 2416 2073 
Q 2496 2067 2490 2016 
Q 2483 1926 2105 1756 
Q 1728 1587 1363 1478 
Q 998 1370 937 1376 
Q 877 1382 845 1421 
Q 742 1568 713 1673 
Q 685 1779 685 1792 
Q 691 1850 742 1843 
L 826 1837 
Q 966 1824 1107 1830 
Q 1389 2259 1587 2605 
Q 1126 2944 666 3149 
Q 563 3200 550 3251 
Q 538 3302 579 3401 
Q 621 3501 681 3513 
Q 742 3526 858 3482 
Q 877 3469 902 3462 
Q 1421 4250 1529 4544 
Q 1638 4838 1638 4979 
L 1638 5043 
Q 1638 5114 1690 5114 
Q 1722 5114 1805 5062 
Q 2042 4915 2042 4781 
Q 2003 4621 1805 4250 
Q 1619 3904 1210 3290 
L 1357 3206 
Q 1613 3053 1786 2938 
L 1843 3034 
Q 2118 3520 2157 3718 
Q 2170 3776 2176 3872 
Q 2182 3968 2217 3968 
Q 2253 3968 2330 3917 
Q 2560 3776 2566 3635 
Q 2566 3590 2547 3546 
Q 2176 2842 1562 1920 
Q 1658 1939 1754 1958 
z
" transform="scale(0.015625)"/>
       <path id="LXGWWenKai-Regular-1658" d="M 4493 3693 
Q 4653 3507 4653 3443 
Q 4653 3379 4598 3366 
Q 4544 3354 4461 3347 
L 2278 3226 
L 2291 3123 
L 2291 3110 
Q 2291 2982 2157 2982 
Q 2048 2982 1952 3052 
Q 1856 3123 1856 3232 
L 1856 3258 
Q 1869 3360 1869 3453 
Q 1869 3546 1856 3635 
L 1766 4352 
Q 1754 4557 1690 4669 
Q 1626 4781 1626 4822 
Q 1626 4864 1690 4864 
Q 1754 4864 2118 4730 
L 4314 4864 
L 4410 4864 
Q 4602 4864 4672 4710 
Q 4698 4659 4698 4627 
Q 4698 4595 4682 4563 
Q 4666 4531 4659 4506 
L 4493 3693 
z
M 4224 4506 
L 2157 4384 
L 2240 3571 
L 4096 3680 
L 4224 4506 
z
M 3744 -134 
Q 3789 -134 3808 -102 
Q 4128 550 4282 1395 
L 2368 1312 
Q 2285 1306 2237 1290 
Q 2189 1274 2150 1274 
Q 2112 1274 2048 1293 
Q 1869 1357 1869 1491 
Q 1869 1542 1888 1587 
L 2214 2330 
L 819 2266 
Q 768 2259 730 2259 
L 653 2259 
Q 506 2259 458 2307 
Q 410 2355 352 2451 
Q 294 2547 294 2601 
Q 294 2656 329 2656 
Q 365 2656 445 2637 
Q 525 2618 666 2618 
L 723 2618 
L 5440 2835 
Q 5619 2848 5718 2873 
Q 5818 2899 5859 2899 
Q 5901 2899 5971 2841 
Q 6042 2784 6090 2710 
Q 6138 2637 6138 2598 
Q 6138 2522 6042 2509 
L 6029 2509 
L 2656 2349 
L 2368 1670 
L 4371 1754 
L 4422 1754 
Q 4525 1754 4640 1693 
Q 4755 1632 4755 1510 
Q 4755 1459 4736 1408 
L 4704 1331 
Q 4538 486 4250 -205 
Q 4070 -640 3789 -640 
Q 3642 -640 3312 -435 
Q 2982 -230 2797 -90 
Q 2368 224 2368 333 
Q 2368 384 2448 384 
Q 2528 384 2918 182 
Q 3309 -19 3725 -134 
L 3744 -134 
z
" transform="scale(0.015625)"/>
      </defs>
      <use xlink:href="#LXGWWenKai-Regular-40a4"/>
      <use xlink:href="#LXGWWenKai-Regular-1f34" transform="translate(100 0)"/>
      <use xlink:href="#LXGWWenKai-Regular-1188" transform="translate(200 0)"/>
      <use xlink:href="#LXGWWenKai-Regular-300d" transform="translate(300 0)"/>
      <use xlink:href="#LXGWWenKai-Regular-4890" transform="translate(400 0)"/>
      <use xlink:href="#LXGWWenKai-Regular-2bd5" transform="translate(500 0)"/>
      <use xlink:href="#LXGWWenKai-Regular-3621" transform="translate(600 0)"/>
      <use xlink:href="#LXGWWenKai-Regular-1658" transform="translate(700 0)"/>
     </g>
    </g>
   </g>
   <g id="matplotlib.axis_2">
    <g id="ytick_1">
     <g id="line2d_7">
      <defs>
       <path id="ma9baf59720" d="M 0 0 
L -3.5 0 
" style="stroke: #4c4d4f; stroke-width: 0.6"/>
      </defs>
      <g>
       <use xlink:href="#ma9baf59720" x="44.352" y="114.240436" style="fill: #4c4d4f; stroke: #4c4d4f; stroke-width: 0.6"/>
      </g>
     </g>
     <g id="text_6">
      <!-- -1 -->
      <g style="fill: #4c4d4f" transform="translate(30.88825 118.240436) scale(0.08 -0.08)">
       <defs>
        <path id="SourceSans3-Regular-587" d="M 262 1402 
L 1734 1402 
L 1734 1805 
L 262 1805 
L 262 1402 
z
" transform="scale(0.015625)"/>
       </defs>
       <use xlink:href="#SourceSans3-Regular-587"/>
       <use xlink:href="#SourceSans3-Regular-536" transform="translate(31.09375 0)"/>
      </g>
     </g>
    </g>
    <g id="ytick_2">
     <g id="line2d_8">
      <g>
       <use xlink:href="#ma9baf59720" x="44.352" y="88.497164" style="fill: #4c4d4f; stroke: #4c4d4f; stroke-width: 0.6"/>
      </g>
     </g>
     <g id="text_7">
      <!-- 0 -->
      <g style="fill: #4c4d4f" transform="translate(33.37575 92.497164) scale(0.08 -0.08)">
       <defs>
        <path id="SourceSans3-Regular-535" d="M 1594 -77 
C 2406 -77 2899 685 2899 2054 
C 2899 3424 2406 4160 1594 4160 
C 774 4160 282 3424 282 2054 
C 282 685 774 -77 1594 -77 
z
M 1594 346 
C 1114 346 794 858 794 2054 
C 794 3251 1114 3738 1594 3738 
C 2067 3738 2387 3251 2387 2054 
C 2387 858 2067 346 1594 346 
z
" transform="scale(0.015625)"/>
       </defs>
       <use xlink:href="#SourceSans3-Regular-535"/>
      </g>
     </g>
    </g>
    <g id="ytick_3">
     <g id="line2d_9">
      <g>
       <use xlink:href="#ma9baf59720" x="44.352" y="62.753891" style="fill: #4c4d4f; stroke: #4c4d4f; stroke-width: 0.6"/>
      </g>
     </g>
     <g id="text_8">
      <!-- 1 -->
      <g style="fill: #4c4d4f" transform="translate(33.37575 66.753891) scale(0.08 -0.08)">
       <use xlink:href="#SourceSans3-Regular-536"/>
      </g>
     </g>
    </g>
    <g id="ytick_4">
     <g id="line2d_10">
      <g>
       <use xlink:href="#ma9baf59720" x="44.352" y="37.010618" style="fill: #4c4d4f; stroke: #4c4d4f; stroke-width: 0.6"/>
      </g>
     </g>
     <g id="text_9">
      <!-- 2 -->
      <g style="fill: #4c4d4f" transform="translate(33.37575 41.010618) scale(0.08 -0.08)">
       <use xlink:href="#SourceSans3-Regular-537"/>
      </g>
     </g>
    </g>
    <g id="text_10">
     <!-- 谱坐标 -->
     <g style="fill: #222222" transform="translate(24.11725 85.8012) rotate(-90) scale(0.085 -0.085)">
      <defs>
       <path id="LXGWWenKai-Regular-3f60" d="M 1472 2522 
L 806 2451 
Q 768 2445 742 2445 
L 678 2445 
Q 518 2445 416 2566 
Q 314 2688 314 2752 
Q 314 2816 352 2816 
Q 506 2790 563 2790 
L 640 2790 
Q 666 2790 691 2797 
L 1677 2912 
Q 1728 2912 1824 2845 
Q 1920 2778 1920 2710 
Q 1920 2643 1875 2605 
L 1837 2566 
L 1760 486 
Q 1869 563 2192 819 
Q 2515 1075 2585 1078 
Q 2656 1082 2659 1043 
Q 2662 1005 2556 883 
Q 2451 762 2124 381 
Q 1798 0 1651 -93 
Q 1504 -186 1437 -195 
Q 1370 -205 1267 -134 
Q 1165 -64 1085 22 
Q 1005 109 998 147 
Q 998 179 1113 201 
Q 1229 224 1395 294 
L 1472 2522 
z
M 2458 3994 
Q 2579 3962 2746 3962 
L 2829 3962 
L 4045 4038 
Q 4307 4384 4476 4691 
Q 4646 4998 4649 5110 
Q 4653 5222 4704 5222 
Q 4755 5222 4826 5178 
Q 5043 5056 5043 4957 
Q 5043 4858 4803 4547 
Q 4563 4237 4390 4058 
L 5210 4109 
Q 5427 4122 5500 4150 
Q 5574 4179 5616 4179 
Q 5658 4179 5728 4134 
Q 5926 4032 5926 3930 
Q 5926 3846 5786 3834 
L 4653 3770 
L 4621 2432 
L 5594 2477 
Q 5843 2496 5904 2512 
Q 5965 2528 5997 2528 
Q 6029 2528 6106 2490 
Q 6291 2374 6291 2253 
Q 6291 2182 6170 2170 
L 2650 2029 
L 2515 2029 
Q 2342 2029 2278 2080 
Q 2112 2214 2074 2330 
Q 2074 2368 2131 2368 
L 2157 2368 
Q 2285 2336 2470 2336 
L 2541 2336 
L 3533 2381 
L 3488 3699 
L 2950 3667 
Q 2893 3661 2848 3661 
L 2765 3661 
Q 2656 3661 2576 3699 
Q 2496 3738 2419 3930 
Q 2413 3949 2413 3971 
Q 2413 3994 2432 3994 
L 2458 3994 
z
M 3546 4154 
Q 3283 4531 3046 4736 
Q 2989 4800 2989 4845 
Q 2989 4890 3053 4950 
Q 3117 5011 3168 5011 
Q 3219 5011 3337 4908 
Q 3456 4806 3584 4668 
Q 3712 4531 3805 4406 
Q 3898 4282 3898 4250 
Q 3898 4218 3830 4131 
Q 3763 4045 3692 4045 
Q 3622 4045 3546 4154 
z
M 4314 3750 
L 3834 3718 
L 3859 2400 
L 4288 2419 
L 4314 3750 
z
M 5203 3597 
L 5197 3661 
L 5197 3680 
Q 5197 3744 5235 3744 
Q 5299 3744 5446 3654 
Q 5594 3565 5594 3482 
Q 5594 3450 5568 3392 
Q 5293 2880 4979 2611 
Q 4864 2502 4832 2502 
Q 4800 2502 4800 2560 
Q 4800 2618 4870 2726 
Q 5203 3302 5203 3597 
z
M 2778 3533 
Q 2880 3533 3290 2848 
Q 3366 2726 3366 2659 
Q 3366 2592 3257 2547 
Q 3149 2502 3123 2502 
Q 3046 2502 3008 2598 
Q 2861 2950 2720 3142 
Q 2579 3334 2579 3372 
Q 2579 3411 2656 3472 
Q 2733 3533 2778 3533 
z
M 5216 38 
Q 5408 -141 5408 -224 
Q 5408 -282 5267 -294 
L 3290 -333 
L 3296 -570 
L 3296 -608 
Q 3296 -691 3245 -691 
Q 3194 -691 3107 -652 
Q 3021 -614 2953 -553 
Q 2886 -493 2886 -435 
L 2886 -422 
Q 2912 -250 2912 -58 
L 2912 58 
L 2842 1261 
Q 2829 1504 2793 1632 
Q 2758 1760 2758 1805 
Q 2758 1850 2819 1850 
Q 2880 1850 3238 1670 
L 4992 1766 
L 5062 1766 
Q 5178 1766 5286 1689 
Q 5395 1613 5395 1545 
Q 5395 1478 5379 1443 
Q 5363 1408 5357 1382 
L 5216 38 
z
M 4966 1421 
L 3200 1350 
L 3232 845 
L 4934 896 
L 4966 1421 
z
M 4915 589 
L 3245 538 
L 3277 -6 
L 4883 19 
L 4915 589 
z
M 1811 3590 
Q 1485 4038 1126 4384 
Q 1056 4454 1056 4496 
Q 1056 4538 1107 4614 
Q 1158 4691 1219 4691 
Q 1280 4691 1392 4598 
Q 1504 4506 1651 4368 
Q 1798 4230 1932 4083 
Q 2067 3936 2156 3824 
Q 2246 3712 2246 3654 
Q 2246 3597 2156 3513 
Q 2067 3430 1996 3430 
Q 1926 3430 1811 3590 
z
" transform="scale(0.015625)"/>
       <path id="LXGWWenKai-Regular-1928" d="M 1363 1587 
Q 1491 1562 1632 1562 
L 1715 1562 
L 2925 1619 
L 2931 4646 
Q 2931 4832 2835 4973 
Q 2803 5024 2803 5056 
Q 2803 5088 2860 5088 
Q 2918 5088 3034 5056 
Q 3360 4979 3360 4832 
L 3341 1638 
L 4326 1683 
Q 4467 1690 4540 1718 
Q 4614 1747 4659 1747 
Q 4704 1747 4787 1696 
Q 4870 1645 4934 1571 
Q 4998 1498 4998 1446 
Q 4998 1350 4851 1338 
L 3341 1267 
L 3334 205 
L 5331 262 
Q 5510 275 5603 300 
Q 5696 326 5744 326 
Q 5792 326 5885 259 
Q 5978 192 6048 112 
Q 6118 32 6118 -13 
Q 6118 -77 5958 -96 
L 736 -250 
Q 557 -250 464 -157 
Q 371 -64 339 26 
L 307 122 
Q 307 160 339 160 
Q 371 160 451 141 
Q 531 122 672 122 
L 2918 192 
L 2925 1254 
L 1837 1203 
L 1690 1197 
Q 1555 1197 1494 1251 
Q 1434 1306 1379 1402 
Q 1325 1498 1325 1542 
Q 1325 1587 1363 1587 
z
M 3686 2010 
Q 3597 1939 3549 1939 
Q 3501 1939 3501 1971 
Q 3501 2016 3664 2227 
Q 3827 2438 3993 2761 
Q 4160 3085 4297 3488 
Q 4435 3891 4435 4048 
Q 4435 4205 4409 4265 
Q 4384 4326 4384 4361 
Q 4384 4397 4429 4397 
Q 4474 4397 4582 4365 
Q 4902 4256 4902 4122 
Q 4902 4064 4812 3776 
Q 4723 3488 4653 3309 
Q 5216 2893 5574 2515 
Q 5651 2438 5651 2368 
Q 5651 2298 5555 2208 
Q 5459 2118 5408 2118 
Q 5357 2118 5174 2355 
Q 4992 2592 4512 2995 
Q 4192 2381 3686 2010 
z
M 1702 2906 
Q 1523 2586 1299 2333 
Q 1075 2080 883 1936 
Q 691 1792 633 1792 
Q 576 1792 576 1824 
Q 576 1869 659 1971 
Q 1338 2784 1562 3571 
Q 1651 3866 1651 3965 
Q 1651 4064 1625 4125 
Q 1600 4186 1600 4221 
Q 1600 4256 1645 4256 
Q 1690 4256 1798 4224 
Q 2118 4115 2118 3981 
Q 2118 3910 2025 3641 
Q 1933 3373 1856 3206 
Q 2374 2810 2669 2483 
Q 2746 2406 2746 2336 
Q 2746 2266 2650 2176 
Q 2554 2086 2502 2086 
Q 2451 2086 2368 2189 
Q 2080 2566 1702 2906 
z
" transform="scale(0.015625)"/>
       <path id="LXGWWenKai-Regular-2599" d="M 1792 -454 
Q 1792 -608 1670 -608 
Q 1664 -608 1587 -589 
Q 1376 -518 1376 -352 
Q 1376 -320 1405 -205 
Q 1434 -90 1434 115 
L 1440 294 
Q 1440 474 1443 755 
Q 1446 1037 1449 1341 
Q 1453 1645 1462 1910 
Q 1472 2176 1472 2310 
L 1478 2400 
Q 1293 1754 691 998 
Q 378 602 282 602 
Q 243 602 243 669 
Q 243 736 314 832 
Q 915 1683 1376 3040 
L 902 3002 
Q 800 2989 717 2989 
Q 634 2989 582 3021 
Q 454 3130 397 3277 
Q 390 3290 390 3315 
Q 390 3360 442 3360 
L 474 3360 
Q 589 3341 691 3341 
L 768 3341 
L 1472 3392 
L 1485 4678 
Q 1485 4794 1430 4877 
Q 1376 4960 1376 4992 
Q 1376 5043 1449 5043 
Q 1523 5043 1657 4995 
Q 1792 4947 1824 4905 
Q 1856 4864 1856 4794 
L 1837 3424 
L 2106 3443 
Q 2266 3462 2307 3478 
Q 2349 3494 2390 3494 
Q 2432 3494 2560 3404 
Q 2688 3315 2688 3232 
Q 2688 3149 2554 3136 
L 1837 3078 
L 1830 2522 
Q 1882 2566 1936 2566 
Q 1990 2566 2112 2445 
Q 2406 2144 2586 1862 
Q 2637 1805 2637 1734 
Q 2637 1664 2534 1606 
Q 2432 1549 2374 1549 
Q 2317 1549 2246 1658 
Q 2042 2010 1824 2253 
L 1792 -454 
z
M 3123 2035 
Q 3117 2246 3341 2138 
Q 3424 2086 3523 1987 
Q 3622 1888 3565 1766 
Q 3251 1133 2950 758 
Q 2650 384 2445 214 
Q 2240 45 2185 32 
Q 2131 19 2131 77 
Q 2125 147 2304 393 
Q 2483 640 2806 1177 
Q 3130 1715 3123 1997 
L 3123 2035 
z
M 5958 294 
Q 5869 230 5789 259 
Q 5709 288 5677 397 
Q 5306 1133 4787 1894 
Q 4698 2010 4883 2125 
Q 4941 2163 4992 2144 
Q 5043 2125 5315 1760 
Q 5587 1395 6016 621 
Q 6131 403 5958 294 
z
M 3322 4115 
L 3187 4115 
Q 3002 4115 2899 4339 
Q 2848 4429 2848 4464 
Q 2848 4499 2880 4499 
Q 2912 4499 2976 4473 
Q 3040 4448 3200 4448 
L 3251 4448 
L 4909 4563 
Q 5126 4589 5180 4611 
Q 5235 4634 5273 4634 
Q 5312 4634 5389 4582 
Q 5606 4422 5606 4326 
Q 5606 4275 5472 4256 
Q 3360 4115 3322 4115 
z
M 4442 -102 
L 4448 -294 
Q 4448 -397 4381 -505 
Q 4314 -614 4211 -614 
Q 4109 -614 3910 -502 
Q 3712 -390 3462 -176 
Q 3213 38 3213 115 
Q 3213 154 3289 154 
Q 3366 154 3603 42 
Q 3840 -70 4045 -128 
L 4032 1869 
L 4026 2221 
L 4026 2637 
L 2982 2579 
Q 2938 2573 2899 2573 
L 2822 2573 
Q 2669 2573 2605 2624 
Q 2432 2810 2432 2918 
Q 2432 2957 2461 2957 
Q 2490 2957 2563 2934 
Q 2637 2912 2778 2912 
L 2829 2912 
L 5459 3059 
Q 5645 3066 5709 3098 
Q 5773 3130 5821 3130 
Q 5869 3130 5952 3072 
Q 6035 3014 6092 2944 
Q 6150 2874 6150 2835 
Q 6150 2758 6022 2746 
L 4422 2656 
L 4422 1888 
L 4442 -102 
z
" transform="scale(0.015625)"/>
      </defs>
      <use xlink:href="#LXGWWenKai-Regular-3f60"/>
      <use xlink:href="#LXGWWenKai-Regular-1928" transform="translate(100 0)"/>
      <use xlink:href="#LXGWWenKai-Regular-2599" transform="translate(200 0)"/>
     </g>
    </g>
   </g>
   <g id="line2d_11">
    <path d="M 59.819294 54.861957 
L 137.155765 74.565005 
L 214.492235 102.429322 
L 291.828706 122.13237 
" clip-path="url(#p2e1d0d79f5)" style="fill: none; stroke: #7998ad; stroke-width: 1.1; stroke-linecap: square"/>
    <defs>
     <path id="mfdb8ae50f3" d="M 0 2 
C 0.530406 2 1.03916 1.789267 1.414214 1.414214 
C 1.789267 1.03916 2 0.530406 2 0 
C 2 -0.530406 1.789267 -1.03916 1.414214 -1.414214 
C 1.03916 -1.789267 0.530406 -2 0 -2 
C -0.530406 -2 -1.03916 -1.789267 -1.414214 -1.414214 
C -1.789267 -1.03916 -2 -0.530406 -2 0 
C -2 0.530406 -1.789267 1.03916 -1.414214 1.414214 
C -1.03916 1.789267 -0.530406 2 0 2 
z
" style="stroke: #7998ad"/>
    </defs>
    <g clip-path="url(#p2e1d0d79f5)">
     <use xlink:href="#mfdb8ae50f3" x="59.819294" y="54.861957" style="fill: #7998ad; stroke: #7998ad"/>
     <use xlink:href="#mfdb8ae50f3" x="137.155765" y="74.565005" style="fill: #7998ad; stroke: #7998ad"/>
     <use xlink:href="#mfdb8ae50f3" x="214.492235" y="102.429322" style="fill: #7998ad; stroke: #7998ad"/>
     <use xlink:href="#mfdb8ae50f3" x="291.828706" y="122.13237" style="fill: #7998ad; stroke: #7998ad"/>
    </g>
   </g>
   <g id="line2d_12">
    <path d="M 59.819294 55.934213 
L 137.155765 72.215688 
L 214.492235 104.778639 
L 291.828706 121.060114 
" clip-path="url(#p2e1d0d79f5)" style="fill: none; stroke-dasharray: 4.07,1.76; stroke-dashoffset: 0; stroke: #d57b70; stroke-width: 1.1"/>
    <defs>
     <path id="m1061384e2c" d="M -2 2 
L 2 2 
L 2 -2 
L -2 -2 
z
" style="stroke: #d57b70; stroke-linejoin: miter"/>
    </defs>
    <g clip-path="url(#p2e1d0d79f5)">
     <use xlink:href="#m1061384e2c" x="59.819294" y="55.934213" style="fill: #d57b70; stroke: #d57b70; stroke-linejoin: miter"/>
     <use xlink:href="#m1061384e2c" x="137.155765" y="72.215688" style="fill: #d57b70; stroke: #d57b70; stroke-linejoin: miter"/>
     <use xlink:href="#m1061384e2c" x="214.492235" y="104.778639" style="fill: #d57b70; stroke: #d57b70; stroke-linejoin: miter"/>
     <use xlink:href="#m1061384e2c" x="291.828706" y="121.060114" style="fill: #d57b70; stroke: #d57b70; stroke-linejoin: miter"/>
    </g>
   </g>
   <g id="patch_3">
    <path d="M 44.352 129.6864 
L 44.352 16.416 
" style="fill: none; stroke: #4c4d4f; stroke-width: 0.9; stroke-linejoin: miter; stroke-linecap: square"/>
   </g>
   <g id="patch_4">
    <path d="M 44.352 129.6864 
L 307.296 129.6864 
" style="fill: none; stroke: #4c4d4f; stroke-width: 0.9; stroke-linejoin: miter; stroke-linecap: square"/>
   </g>
   <g id="legend_1">
    <g id="line2d_13">
     <path d="M 181.616 25.936 
L 189.616 25.936 
L 197.616 25.936 
" style="fill: none; stroke: #7998ad; stroke-width: 1.1; stroke-linecap: square"/>
     <g>
      <use xlink:href="#mfdb8ae50f3" x="189.616" y="25.936" style="fill: #7998ad; stroke: #7998ad"/>
     </g>
    </g>
    <g id="text_11">
     <!-- RatioCut：$L u_2=(2-\sqrt{2})u_2$ -->
     <g style="fill: #222222" transform="translate(204.016 28.736) scale(0.08 -0.08)">
      <defs>
       <path id="LXGWWenKai-Regular-35" d="M 1114 2368 
Q 1203 2483 1286 2483 
L 1414 2483 
Q 2195 2483 2598 2726 
Q 2822 2867 2960 3056 
Q 3098 3245 3098 3437 
Q 3098 3757 2829 3955 
Q 2560 4154 2013 4154 
Q 1466 4154 1114 4032 
L 1114 2368 
z
M 666 109 
L 678 742 
L 678 3942 
L 672 3942 
Q 544 3942 422 4147 
Q 378 4224 378 4278 
Q 378 4333 429 4339 
Q 557 4365 723 4384 
Q 890 4403 1194 4470 
Q 1498 4538 2064 4538 
Q 2630 4538 2944 4378 
Q 3258 4218 3402 3971 
Q 3546 3725 3546 3421 
Q 3546 3117 3363 2861 
Q 3181 2605 2851 2419 
Q 2522 2234 2154 2202 
Q 1786 2170 1741 2170 
Q 1939 1971 2214 1664 
Q 3437 294 3821 160 
Q 4096 45 4096 -26 
Q 4096 -83 3917 -83 
Q 3443 -83 3110 182 
Q 2778 448 2221 1075 
L 1786 1568 
Q 1440 1952 1309 2035 
Q 1178 2118 1114 2144 
L 1114 736 
L 1133 -6 
Q 1133 -70 1017 -70 
Q 902 -70 784 -22 
Q 666 26 666 109 
z
" transform="scale(0.015625)"/>
       <path id="LXGWWenKai-Regular-44" d="M 794 1152 
Q 794 269 1408 269 
Q 1690 269 1965 474 
Q 2630 960 2630 2112 
Q 2630 2272 2637 2432 
Q 2579 2374 2540 2374 
Q 2502 2374 2483 2400 
Q 2285 2739 1904 2739 
Q 1523 2739 1158 2278 
Q 794 1818 794 1152 
z
M 3008 -83 
Q 2746 -83 2656 755 
Q 2419 307 2083 96 
Q 1747 -115 1389 -115 
Q 922 -115 640 201 
Q 358 518 358 1120 
Q 358 1920 858 2522 
Q 1082 2797 1363 2953 
Q 1645 3110 1939 3110 
Q 2438 3110 2643 2688 
L 2643 3040 
Q 2643 3104 2764 3104 
Q 2886 3104 3008 3059 
Q 3130 3014 3130 2938 
L 3130 2925 
Q 3046 2355 3046 1248 
Q 3046 576 3270 224 
Q 3283 198 3283 156 
Q 3283 115 3196 16 
Q 3110 -83 3008 -83 
z
" transform="scale(0.015625)"/>
       <path id="LXGWWenKai-Regular-57" d="M 1171 3949 
L 1158 3379 
L 1158 3072 
L 1338 3078 
Q 1568 3091 1824 3117 
L 1830 3117 
Q 1914 3117 1974 3021 
Q 2035 2925 2035 2835 
Q 2035 2746 1965 2746 
L 1715 2746 
Q 1536 2746 1408 2739 
L 1158 2733 
L 1158 691 
Q 1158 435 1203 364 
Q 1248 294 1370 294 
Q 1638 294 1984 557 
Q 2093 640 2157 640 
Q 2221 640 2221 576 
Q 2221 442 1933 166 
Q 1613 -115 1305 -115 
Q 998 -115 860 89 
Q 723 294 723 704 
L 723 2714 
L 691 2714 
Q 685 2714 301 2688 
L 294 2688 
Q 211 2688 153 2784 
Q 96 2880 96 2966 
Q 96 3053 166 3053 
L 723 3053 
L 723 3379 
L 710 4064 
Q 710 4128 825 4128 
Q 941 4128 1056 4080 
Q 1171 4032 1171 3949 
z
" transform="scale(0.015625)"/>
       <path id="LXGWWenKai-Regular-4c" d="M 608 109 
L 621 672 
L 621 2355 
L 602 3040 
Q 602 3098 717 3098 
Q 832 3098 953 3050 
Q 1075 3002 1075 2925 
L 1062 2355 
L 1062 672 
L 1082 -6 
Q 1082 -64 970 -64 
Q 858 -64 733 -16 
Q 608 32 608 109 
z
M 816 4467 
Q 954 4467 1053 4339 
Q 1152 4211 1152 4080 
Q 1152 3949 1069 3862 
Q 986 3776 851 3776 
Q 717 3776 617 3901 
Q 518 4026 518 4157 
Q 518 4288 598 4377 
Q 678 4467 816 4467 
z
" transform="scale(0.015625)"/>
       <path id="LXGWWenKai-Regular-52" d="M 1709 275 
Q 2022 275 2268 444 
Q 2515 614 2662 908 
Q 2810 1203 2810 1651 
Q 2810 2099 2602 2412 
Q 2394 2726 1926 2726 
Q 1459 2726 1123 2288 
Q 787 1850 787 1328 
Q 787 806 1027 540 
Q 1267 275 1709 275 
z
M 1242 2848 
Q 1594 3110 1978 3110 
Q 2362 3110 2643 2925 
Q 3238 2534 3238 1568 
Q 3238 915 2842 422 
Q 2419 -115 1744 -115 
Q 1069 -115 713 272 
Q 358 659 358 1325 
Q 358 1837 678 2394 
Q 806 2624 934 2765 
Q 1062 2906 1129 2906 
Q 1197 2906 1242 2848 
z
" transform="scale(0.015625)"/>
       <path id="LXGWWenKai-Regular-26" d="M 4224 960 
Q 4006 582 3558 282 
Q 2989 -115 2285 -115 
Q 1728 -115 1283 89 
Q 838 294 582 732 
Q 326 1171 326 1804 
Q 326 2438 499 2928 
Q 672 3418 982 3786 
Q 1293 4154 1709 4358 
Q 2125 4563 2611 4563 
Q 3565 4563 4019 4019 
Q 4038 3994 4038 3926 
Q 4038 3859 3955 3750 
Q 3872 3642 3798 3642 
Q 3725 3642 3686 3699 
Q 3392 4154 2621 4154 
Q 1850 4154 1331 3520 
Q 787 2874 787 1846 
Q 787 819 1523 461 
Q 1869 288 2243 288 
Q 2618 288 2944 400 
Q 3270 512 3571 717 
Q 3872 922 4070 1184 
Q 4147 1280 4230 1280 
Q 4314 1280 4314 1197 
Q 4314 1114 4224 960 
z
" transform="scale(0.015625)"/>
       <path id="LXGWWenKai-Regular-58" d="M 1037 2918 
L 1024 2355 
L 1024 1120 
Q 1024 749 1158 509 
Q 1293 269 1552 269 
Q 1811 269 2070 480 
Q 2330 691 2528 1097 
Q 2726 1504 2726 2189 
L 2726 3040 
Q 2726 3104 2848 3104 
Q 2970 3104 3085 3059 
Q 3200 3014 3200 2938 
L 3200 2925 
Q 3123 2464 3123 1542 
Q 3123 621 3366 224 
Q 3373 211 3373 163 
Q 3373 115 3286 16 
Q 3200 -83 3104 -83 
Q 2944 -83 2864 198 
Q 2784 480 2765 730 
Q 2592 378 2269 131 
Q 1946 -115 1562 -115 
Q 1178 -115 973 58 
Q 589 371 589 1094 
L 589 2355 
L 570 3034 
Q 570 3098 685 3098 
Q 800 3098 918 3050 
Q 1037 3002 1037 2918 
z
" transform="scale(0.015625)"/>
       <path id="LXGWWenKai-Regular-4f36" d="M 1574 646 
Q 1709 646 1814 515 
Q 1920 384 1920 253 
Q 1920 122 1840 38 
Q 1760 -45 1606 -45 
Q 1453 -45 1350 86 
Q 1248 218 1248 355 
Q 1248 493 1344 569 
Q 1440 646 1574 646 
z
M 1574 3021 
Q 1709 3021 1814 2889 
Q 1920 2758 1920 2627 
Q 1920 2496 1840 2413 
Q 1760 2330 1606 2330 
Q 1453 2330 1350 2461 
Q 1248 2592 1248 2729 
Q 1248 2867 1344 2944 
Q 1440 3021 1574 3021 
z
" transform="scale(0.015625)"/>
       <path id="STIXGeneral-Italic-2f" d="M 3578 1152 
L 3206 0 
L -51 0 
L -51 102 
Q 218 128 301 211 
Q 384 294 474 602 
L 1254 3405 
Q 1325 3642 1325 3802 
Q 1325 3942 1225 4000 
Q 1126 4058 832 4077 
L 832 4179 
L 2579 4179 
L 2579 4077 
Q 2285 4058 2147 3955 
Q 2010 3853 1933 3584 
L 1165 838 
Q 1101 595 1101 493 
Q 1101 346 1241 288 
Q 1382 230 1773 230 
Q 2266 230 2480 275 
Q 2694 320 2925 474 
Q 3187 646 3450 1190 
L 3578 1152 
z
" transform="scale(0.015625)"/>
       <path id="STIXGeneral-Italic-58" d="M 2950 762 
L 3040 704 
Q 2733 237 2560 89 
Q 2387 -58 2157 -58 
Q 1850 -58 1850 250 
Q 1850 538 2138 1510 
Q 1568 576 1257 253 
Q 947 -70 608 -70 
Q 269 -70 269 269 
Q 269 384 442 1088 
L 666 1978 
Q 755 2349 755 2406 
Q 755 2483 684 2521 
Q 614 2560 365 2560 
L 365 2650 
Q 806 2701 1325 2822 
L 1350 2803 
L 781 531 
Q 762 474 762 429 
Q 762 269 890 269 
Q 1178 269 1798 1210 
Q 2010 1530 2128 1795 
Q 2246 2061 2502 2765 
L 2976 2765 
L 2470 851 
Q 2349 390 2349 352 
Q 2349 243 2419 243 
Q 2496 243 2605 345 
Q 2714 448 2950 762 
z
" transform="scale(0.015625)"/>
       <path id="STIXGeneral-Regular-15" d="M 3034 877 
L 2688 0 
L 186 0 
L 186 77 
L 1325 1286 
Q 1773 1754 1965 2144 
Q 2157 2534 2157 2950 
Q 2157 3379 1920 3616 
Q 1683 3853 1267 3853 
Q 922 3853 720 3673 
Q 518 3494 326 3021 
L 192 3053 
Q 301 3648 630 3987 
Q 960 4326 1523 4326 
Q 2054 4326 2380 4006 
Q 2707 3686 2707 3200 
Q 2707 2477 1888 1613 
L 832 486 
L 2330 486 
Q 2541 486 2665 569 
Q 2790 653 2944 915 
L 3034 877 
z
" transform="scale(0.015625)"/>
       <path id="STIXGeneral-Regular-20" d="M 4077 2048 
L 307 2048 
L 307 2470 
L 4077 2470 
L 4077 2048 
z
M 4077 768 
L 307 768 
L 307 1190 
L 4077 1190 
L 4077 768 
z
" transform="scale(0.015625)"/>
       <path id="STIXGeneral-Regular-b" d="M 1946 -1030 
L 1869 -1133 
Q 1126 -710 716 32 
Q 307 774 307 1613 
Q 307 3386 1888 4326 
L 1946 4224 
Q 1293 3667 1075 3126 
Q 858 2586 858 1632 
Q 858 685 1082 96 
Q 1306 -493 1946 -1030 
z
" transform="scale(0.015625)"/>
       <path id="STIXGeneral-Regular-425" d="M 3974 1408 
L 410 1408 
L 410 1830 
L 3974 1830 
L 3974 1408 
z
" transform="scale(0.015625)"/>
       <path id="STIXGeneral-Regular-42d" d="M 6163 6227 
L 3104 -1658 
L 2899 -1658 
L 1606 1734 
Q 1466 2112 1210 2112 
Q 1011 2112 794 1914 
L 717 2042 
L 1715 2835 
L 1837 2835 
L 3142 -595 
L 3168 -595 
L 5818 6227 
L 6163 6227 
z
" transform="scale(0.015625)"/>
       <path id="STIXGeneral-Regular-c" d="M 186 4224 
L 262 4326 
Q 992 3891 1408 3148 
Q 1824 2406 1824 1581 
Q 1824 -166 243 -1133 
L 186 -1030 
Q 845 -486 1059 54 
Q 1274 595 1274 1562 
Q 1274 2534 1059 3120 
Q 845 3706 186 4224 
z
" transform="scale(0.015625)"/>
      </defs>
      <use xlink:href="#LXGWWenKai-Regular-35" transform="translate(0 0.703125)"/>
      <use xlink:href="#LXGWWenKai-Regular-44" transform="translate(63.499939 0.703125)"/>
      <use xlink:href="#LXGWWenKai-Regular-57" transform="translate(120.999878 0.703125)"/>
      <use xlink:href="#LXGWWenKai-Regular-4c" transform="translate(156.999847 0.703125)"/>
      <use xlink:href="#LXGWWenKai-Regular-52" transform="translate(183.29982 0.703125)"/>
      <use xlink:href="#LXGWWenKai-Regular-26" transform="translate(239.499771 0.703125)"/>
      <use xlink:href="#LXGWWenKai-Regular-58" transform="translate(309.799698 0.703125)"/>
      <use xlink:href="#LXGWWenKai-Regular-57" transform="translate(368.799637 0.703125)"/>
      <use xlink:href="#LXGWWenKai-Regular-4f36" transform="translate(404.799606 0.703125)"/>
      <use xlink:href="#STIXGeneral-Italic-2f" transform="translate(504.799515 0.703125)"/>
      <use xlink:href="#STIXGeneral-Italic-58" transform="translate(560.39946 0.703125)"/>
      <use xlink:href="#STIXGeneral-Regular-15" transform="translate(610.399414 -14.296875) scale(0.7)"/>
      <use xlink:href="#STIXGeneral-Regular-20" transform="translate(669.899382 0.703125)"/>
      <use xlink:href="#STIXGeneral-Regular-b" transform="translate(758.399321 0.703125)"/>
      <use xlink:href="#STIXGeneral-Regular-15" transform="translate(791.699294 0.703125)"/>
      <use xlink:href="#STIXGeneral-Regular-425" transform="translate(861.699248 0.703125)"/>
      <use xlink:href="#STIXGeneral-Regular-42d" transform="translate(950.199187 0.703125)"/>
      <use xlink:href="#STIXGeneral-Regular-15" transform="translate(1055.499098 1.15625)"/>
      <use xlink:href="#STIXGeneral-Regular-c" transform="translate(1117.999052 0.703125)"/>
      <use xlink:href="#STIXGeneral-Italic-58" transform="translate(1151.299025 0.703125)"/>
      <use xlink:href="#STIXGeneral-Regular-15" transform="translate(1201.298979 -14.296875) scale(0.7)"/>
      <path d="M 1042.999098 97.75 
L 1042.999098 104 
L 1117.999052 104 
L 1117.999052 97.75 
L 1042.999098 97.75 
z
"/>
     </g>
    </g>
    <g id="line2d_14">
     <path d="M 181.616 39.136 
L 189.616 39.136 
L 197.616 39.136 
" style="fill: none; stroke-dasharray: 4.07,1.76; stroke-dashoffset: 0; stroke: #d57b70; stroke-width: 1.1"/>
     <g>
      <use xlink:href="#m1061384e2c" x="189.616" y="39.136" style="fill: #d57b70; stroke: #d57b70; stroke-linejoin: miter"/>
     </g>
    </g>
    <g id="text_12">
     <!-- NCut：$L y_2=\frac{1}{2} D^{(w)}y_2$ -->
     <g style="fill: #222222" transform="translate(204.016 41.936) scale(0.08 -0.08)">
      <defs>
       <path id="LXGWWenKai-Regular-31" d="M 678 4102 
L 634 4339 
Q 634 4429 778 4480 
Q 922 4531 989 4531 
Q 1056 4531 1094 4524 
Q 1133 4518 1165 4467 
Q 1325 4173 2077 2969 
Q 2829 1766 3622 666 
L 3622 3770 
L 3597 4448 
Q 3597 4512 3718 4512 
Q 3840 4512 3958 4464 
Q 4077 4416 4077 4333 
L 4064 3763 
L 4064 557 
L 4090 205 
Q 4090 141 4032 77 
Q 3885 -83 3747 -83 
Q 3610 -83 3549 6 
Q 3488 96 3328 326 
Q 2099 2054 1120 3706 
L 1120 672 
L 1139 -6 
Q 1139 -70 1024 -70 
Q 909 -70 787 -22 
Q 666 26 666 109 
L 678 678 
L 678 4102 
z
" transform="scale(0.015625)"/>
       <path id="STIXGeneral-Italic-5c" d="M 1555 1190 
L 1690 486 
Q 2118 1190 2294 1558 
Q 2470 1926 2470 2131 
Q 2470 2234 2304 2336 
Q 2138 2445 2138 2586 
Q 2138 2688 2211 2755 
Q 2285 2822 2394 2822 
Q 2534 2822 2630 2720 
Q 2726 2618 2726 2470 
Q 2726 1914 1888 518 
Q 1389 -307 918 -812 
Q 448 -1318 173 -1318 
Q 26 -1318 -64 -1241 
Q -154 -1165 -154 -1043 
Q -154 -934 -80 -860 
Q -6 -787 96 -787 
Q 218 -787 314 -876 
Q 410 -966 486 -966 
Q 602 -966 794 -755 
Q 877 -672 1040 -457 
Q 1203 -243 1248 -173 
Q 1312 -45 1312 51 
Q 1312 243 1113 1046 
Q 915 1850 787 2176 
Q 698 2413 592 2499 
Q 486 2586 294 2586 
Q 192 2586 96 2560 
L 96 2669 
Q 237 2694 301 2707 
Q 563 2758 986 2822 
L 1011 2822 
Q 1082 2822 1277 2227 
Q 1472 1632 1555 1190 
z
" transform="scale(0.015625)"/>
       <path id="STIXGeneral-Regular-14" d="M 2522 0 
L 755 0 
L 755 96 
Q 1107 115 1235 227 
Q 1363 339 1363 608 
L 1363 3482 
Q 1363 3795 1171 3795 
Q 1082 3795 883 3718 
L 710 3654 
L 710 3744 
L 1856 4326 
L 1914 4307 
L 1914 486 
Q 1914 275 2042 185 
Q 2170 96 2522 96 
L 2522 0 
z
" transform="scale(0.015625)"/>
       <path id="STIXGeneral-Italic-27" d="M 838 4179 
L 2611 4179 
Q 3469 4179 3974 3731 
Q 4480 3283 4480 2458 
Q 4480 1325 3456 531 
Q 2778 0 1594 0 
L -51 0 
L -51 102 
Q 224 154 310 230 
Q 397 307 474 589 
L 1254 3437 
Q 1325 3686 1325 3814 
Q 1325 3949 1222 4009 
Q 1120 4070 838 4077 
L 838 4179 
z
M 1984 3738 
L 1229 1037 
Q 1088 525 1088 429 
Q 1088 192 1523 192 
Q 2470 192 3066 768 
Q 3398 1088 3584 1597 
Q 3770 2106 3770 2611 
Q 3770 3386 3270 3763 
Q 2970 3987 2432 3987 
Q 2227 3987 2128 3939 
Q 2029 3891 1984 3738 
z
" transform="scale(0.015625)"/>
       <path id="STIXGeneral-Italic-5a" d="M 2579 2726 
L 2784 474 
Q 3418 1261 3629 1597 
Q 3840 1933 3840 2138 
Q 3840 2227 3699 2362 
Q 3565 2490 3565 2624 
Q 3565 2701 3638 2761 
Q 3712 2822 3814 2822 
Q 3955 2822 4051 2720 
Q 4147 2618 4147 2464 
Q 4147 1882 2790 230 
L 2733 160 
Q 2509 -115 2445 -115 
Q 2394 -115 2374 109 
L 2189 2093 
L 1619 1120 
Q 1472 877 1267 486 
Q 954 -115 858 -115 
Q 813 -115 800 -57 
Q 787 0 774 186 
L 749 768 
Q 698 1818 576 2317 
Q 531 2490 476 2538 
Q 422 2586 275 2586 
L 96 2586 
L 96 2669 
Q 602 2752 704 2778 
Q 736 2784 777 2797 
Q 819 2810 844 2816 
Q 870 2822 890 2822 
Q 941 2822 960 2790 
Q 979 2758 1011 2605 
Q 1171 1837 1216 806 
L 2445 2752 
Q 2483 2816 2528 2816 
Q 2579 2816 2579 2726 
z
" transform="scale(0.015625)"/>
      </defs>
      <use xlink:href="#LXGWWenKai-Regular-31" transform="translate(0 0.384375)"/>
      <use xlink:href="#LXGWWenKai-Regular-26" transform="translate(73.799927 0.384375)"/>
      <use xlink:href="#LXGWWenKai-Regular-58" transform="translate(144.099854 0.384375)"/>
      <use xlink:href="#LXGWWenKai-Regular-57" transform="translate(203.099792 0.384375)"/>
      <use xlink:href="#LXGWWenKai-Regular-4f36" transform="translate(239.099762 0.384375)"/>
      <use xlink:href="#STIXGeneral-Italic-2f" transform="translate(339.09967 0.384375)"/>
      <use xlink:href="#STIXGeneral-Italic-5c" transform="translate(394.699615 0.384375)"/>
      <use xlink:href="#STIXGeneral-Regular-15" transform="translate(439.099579 -14.615625) scale(0.7)"/>
      <use xlink:href="#STIXGeneral-Regular-20" transform="translate(498.599547 0.384375)"/>
      <use xlink:href="#STIXGeneral-Regular-14" transform="translate(593.349486 34.759375) scale(0.7)"/>
      <use xlink:href="#STIXGeneral-Regular-15" transform="translate(593.349486 -31.30625) scale(0.7)"/>
      <use xlink:href="#STIXGeneral-Italic-27" transform="translate(634.599454 0.384375)"/>
      <use xlink:href="#STIXGeneral-Regular-b" transform="translate(717.361733 41.684375) scale(0.7)"/>
      <use xlink:href="#STIXGeneral-Italic-5a" transform="translate(740.671714 41.684375) scale(0.7)"/>
      <use xlink:href="#STIXGeneral-Regular-c" transform="translate(787.361669 41.684375) scale(0.7)"/>
      <use xlink:href="#STIXGeneral-Italic-5c" transform="translate(815.17165 0.384375)"/>
      <use xlink:href="#STIXGeneral-Regular-15" transform="translate(859.571613 -14.615625) scale(0.7)"/>
      <path d="M 593.349486 22.259375 
L 593.349486 28.509375 
L 628.349454 28.509375 
L 628.349454 22.259375 
L 593.349486 22.259375 
z
"/>
     </g>
    </g>
   </g>
  </g>
 </g>
 <defs>
  <clipPath id="p2e1d0d79f5">
   <rect x="44.352" y="16.416" width="262.944" height="113.2704"/>
  </clipPath>
 </defs>
</svg>
