<svg xmlns="http://www.w3.org/2000/svg" xmlns:xlink="http://www.w3.org/1999/xlink" xmlns:inkscape="http://www.inkscape.org/namespaces/inkscape" version="1.1" width="321.46" height="253.43" viewBox="0 0 321.46 253.43">
<defs>
<path id="font_1_59062" d="M.70098879 .37948609C.70098879 .18748474 .7779999 .02947998 .8999939-.09552002L.95399478-.06651306C.83599856 .054489137 .7659912 .20347595 .7659912 .37948609 .7659912 .55548098 .83599856 .70448306 .95399478 .8254852L.8999939 .8544922C.7779999 .7294769 .70098879 .5714874 .70098879 .37948609Z"/>
<path id="font_2_34" d="M.1769867 .25 .2849884 .6103668 .3919983 .25H.1769867M.46699525 0H.5669861L.34700013 .6894531H.22698975L.005996704 0H.101989749L.1539917 .17298889H.4149933L.46699525 0Z"/>
<path id="font_1_59063" d="M.29899598 .37948609C.29899598 .5714874 .22200012 .7294769 .099990848 .8544922L.04598999 .8254852C.1639862 .70448306 .23399353 .55548098 .23399353 .37948609 .23399353 .20347595 .1639862 .054489137 .04598999-.06651306L.099990848-.09552002C.22200012 .02947998 .29899598 .18748474 .29899598 .37948609Z"/>
<path id="font_1_20139" d="M.5089874 .8433075 .44499208 .8182831C.46998597 .7702179 .5009918 .70513918 .5139923 .66508486L.58200076 .6941223C.5669861 .73417666 .5359955 .7962494 .5089874 .8433075M.83399966 .43066407H.40499879C.41299439 .48680116 .4169922 .54293826 .41999818 .5980835H.93299868V.66308596H.070999149V.5980835H.34799195C.33499146 .36566163 .30899049 .09957886 .04798889-.028457642 .06599426-.04145813 .08699036-.064453128 .09799194-.08151245 .28799439 .017547608 .36299134 .18659973 .394989 .36566163H.7609863C.74398806 .12957764 .723999 .031555177 .69400027 .0055389406 .6819916-.0034637452 .66999819-.006454468 .6469879-.006454468 .62098696-.006454468 .5509949-.0054626467 .47799684 .0015411377 .4909973-.016464234 .5-.04446411 .5019989-.064453128 .56900027-.06846619 .6349945-.07048035 .66999819-.06846619 .70700076-.065460208 .73098757-.0594635 .7519989-.035461427 .79100039 .003540039 .8109894 .111572269 .83200076 .39665223 .83299258 .4076538 .83399966 .43066407 .83399966 .43066407Z"/>
<path id="font_1_11985" d="M.5239868 .82728579 .44198609 .8413086C.4269867 .79022219 .40098573 .7191162 .37599183 .66503909H.100997928V-.07879639H.16699219V.59902957H.83799746V.014312744C.83799746-.004776001 .83299258-.009796143 .8129883-.010803223 .79100039-.011795044 .7220001-.012802124 .6469879-.0087890629 .6579895-.028793335 .66799929-.059799196 .67099-.07879639 .7630005-.07879639 .82499697-.07778931 .8600006-.0677948 .8939972-.05580139 .9049988-.032791139 .9049988 .013305664V.66503909H.44999696C.47499085 .71310427 .5019989 .77319338 .5239868 .82728579M.69599917 .45996095H.3039856V.058517457H.3659973V.13085938H.69599917V.45996095M.3659973 .3989563H.6339874V.19184876H.3659973V.3989563Z"/>
<path id="font_2_1174" d="M.74398806 .53125H.59298709L.5289917 .11804199 .45599366 .53125H.3019867L.21899414 .11804199 .1639862 .53125H.0039978029L.116989139 0H.3039856L.37399293 .39016725 .44499208 0H.6339874L.74398806 .53125Z"/>
<path id="font_1_63163" d="M.25 .4892578C.28799439 .4892578 .32199098 .5162506 .32199098 .56025698 .32199098 .60424807 .28799439 .6322479 .25 .6322479 .21199036 .6322479 .17799378 .60424807 .17799378 .56025698 .17799378 .5162506 .21199036 .4892578 .25 .4892578M.25-.0033569337C.28799439-.0033569337 .32199098 .023635865 .32199098 .06764221 .32199098 .11264038 .28799439 .13964844 .25 .13964844 .21199036 .13964844 .17799378 .11264038 .17799378 .06764221 .17799378 .023635865 .21199036-.0033569337 .25-.0033569337Z"/>
<path id="font_1_18754" d="M.2519989 .009719849V.29899598L.3600006 .33203126 .34999085 .39302064 .2519989 .36502076V.57128909H.3809967V.63427737H.2519989V.8383026H.18699646V.63427737H.04699707V.57128909H.18699646V.34703065L.034988405 .30499269 .054992677 .2399292 .18699646 .27996827V.009719849C.18699646-.0042877199 .18099976-.009292603 .16699219-.009292603 .15499878-.009292603 .11099243-.010299683 .06298828-.008300781 .07199097-.026290894 .08099365-.05329895 .08299255-.07128906 .1519928-.07128906 .19299317-.06929016 .21798706-.058303834 .24299622-.048294069 .2519989-.029296875 .2519989 .009719849M.7859955 .567276V.8012543H.47499085V.6912689C.47499085 .61927798 .45700074 .53526309 .34599305 .4712677 .35798646 .46122743 .38198854 .43615724 .3899994 .42311097 .5119934 .49327088 .5389862 .60028079 .5389862 .68927V.7392578H.7220001V.5692749C.7220001 .49726869 .73599246 .4712677 .8009949 .4712677 .81399539 .4712677 .871994 .4712677 .8880005 .4712677 .9079895 .4712677 .92900088 .47225953 .94200137 .47627259 .93899539 .49127198 .93699648 .51727297 .93499758 .53427127 .9229889 .53126528 .901001 .53027346 .8869934 .53027346 .8730011 .53027346 .81900027 .53027346 .8049927 .53027346 .78900149 .53027346 .7859955 .5392761 .7859955 .567276M.8279877 .39501954H.37599183V.33203126H.41299439L.40499879 .32902528C.44599916 .2359314 .5029907 .15686035 .57499697 .091796878 .48999024 .038742067 .3939972 .0017089844 .29499818-.019302369 .30799867-.034301759 .32299806-.062301637 .32998658-.08035278 .43499757-.05429077 .5379944-.012298584 .6279907 .04875183 .70799258-.010299683 .80400088-.05329895 .9129944-.0793457 .9229889-.061294557 .94099429-.033294679 .95700076-.018295289 .85398867 .0027160645 .7619934 .039749147 .6839905 .090789798 .7719879 .16285706 .84298709 .25794984 .8849945 .37802125L.84098818 .39804078 .8279877 .39501954M.7939911 .33203126C.7559967 .25094605 .69898989 .18489075 .6299896 .13082886 .56199648 .18588257 .5079956 .25395204 .47099305 .33203126H.7939911Z"/>
<path id="font_1_17364" d="M.9069977 .7922363 .8450012 .8182831C.7869873 .73817446 .68299868 .65205386 .59498599 .6019745 .6119995 .5899658 .6319885 .5709381 .6429901 .5559082 .7369995 .61299136 .83999636 .703125 .9069977 .7922363M.9399872 .52186587 .8789978 .54789736C.8149872 .4607849 .69699099 .37165834 .59498599 .32063294 .6119995 .30763246 .6309967 .2876587 .6419983 .27268983 .7480011 .33062745 .86698916 .4247284 .9399872 .52186587M.96099856 .23274231 .8999939 .25671388C.8299866 .14273072 .69799807 .036590578 .5629883-.021484375 .5799866-.035507204 .598999-.057525636 .60899356-.07255554 .75-.0064697267 .8829956 .10668945 .96099856 .23274231M.18099976 .21777344V.30664063H.47999574V.21777344H.18099976M.46798707 .14472962 .41999818 .1217041C.45498658 .07563782 .49398805 .0135650639 .5119934-.026489258L.5629883 .0015411377C.54499819 .039596559 .5029907 .09967041 .46798707 .14472962M.1749878 .5800781V.6463928H.48999024V.5800781H.1749878M.1749878 .69140627V.7558594H.48999024V.69140627H.1749878M.55599978 .80285647H.11099243V.5330658H.55599978V.80285647M.21499634 .12571717 .15699768 .14172364C.1349945 .089660648 .09799194 .036590578 .057998659-.00045776368 .07199097-.010467529 .09599304-.02848816 .10598755-.037506105 .1459961 .0035552979 .18899536 .06663513 .21499634 .12571717M.33399964 .52905276 .27198792 .5139923C.27999879 .49993897 .2899933 .48287965 .29699708 .4658203H.06098938V.41081239H.59098818V.4658203H.36898805C.35899354 .4868927 .34599305 .5119934 .33399964 .52905276M.3619995-.0044555666V.16777039H.54499819V.35662843H.117996219V.16777039H.29699708V-.0035858155C.29699708-.01260376 .29499818-.016601563 .28199769-.016601563 .2709961-.017608643 .23699951-.017608643 .19400025-.015609741 .20298767-.032608034 .21199036-.054611207 .21499634-.07261658 .27198792-.07261658 .30899049-.07261658 .33198548-.06260681 .35598756-.053604127 .3619995-.037612916 .3619995-.0045776369V-.0044555666Z"/>
<path id="font_1_11982" d="M.22099304 .4910736V.49609376H.95199587V.56108096H.22099304V.6920624C.44999696 .70606997 .70899966 .7340698 .8809967 .77412417L.82398989 .82925418C.66999819 .7911682 .3899994 .7621002 .15299988 .7470703V.4910736C.15299988 .33467103 .14199829 .119659427 .033996583-.03437805 .049987794-.043395997 .07798767-.066467288 .08999634-.08050537 .20498657 .08364868 .22099304 .3246765 .22099304 .4910736M.37799073 .03564453V.28466798H.8069916V.03564453H.37799073M.8769989 .3466797H.31098939V-.07949829H.37799073V-.02734375H.8069916V-.07849121H.8769989V.3466797Z"/>
<path id="font_1_11168" d="M.39698792 .797287 .32699586 .8173065C.2679901 .6631775 .1659851 .5240631 .04499817 .43800355 .06298828 .42599488 .09098816 .40100099 .102996829 .3869934 .22200012 .48202516 .33099366 .6311493 .39698792 .797287M.66999819 .8193054 .60899356 .79429629C.67900088 .647171 .7999878 .48402406 .9049988 .3959961 .91799929 .4149933 .94200137 .43899537 .95899966 .45300294 .8549957 .529068 .73298647 .683197 .66999819 .8193054M.80999758 .4580078H.18598938V.3919983H.38398744C.36099244 .21780396 .3039856 .053634645 .06599426-.025436402 .08099365-.03944397 .09899902-.064437869 .10798645-.08148193 .3619995 .0095825199 .42799378 .19277954 .45399476 .3919983H.7389984C.7259979 .13371277 .70999148 .032608034 .68499758 .006576538 .6749878-.0024414063 .6629944-.005432129 .6419983-.005432129 .6179962-.005432129 .5549927-.0044403078 .48799134 .0015716553 .5-.017440796 .5089874-.045440675 .5099945-.06542969 .57398989-.06944275 .6369934-.07044983 .66999819-.06744385 .70399478-.06643677 .72499087-.058441163 .7449951-.03543091 .7799988 .0025787354 .7939911 .11669922 .8089905 .42500306 .80999758 .43400575 .80999758 .4580078 .80999758 .4580078Z"/>
<path id="font_1_29073" d="M.49598695 .8453064 .43699647 .8262787C.44898988 .80122378 .46299745 .7711792 .47299195 .7441406H.06599426V.6851349H.93699648V.7441406H.54299929C.5309906 .7741852 .5130005 .81425479 .49598695 .8453064M.23899842 .6490936H.17399597V.3688202H.46899415C.45599366 .3438568 .44299317 .31887818 .42900086 .29492188H.10998535V-.07751465H.1749878V.23591614H.3939972C.36799623 .19384766 .34498597 .16178894 .33299256 .14776612 .30999757 .11772156 .29100038 .09667969 .27198792 .091674808 .27999879 .073638919 .29100038 .04058838 .29499818 .026565552 .31698609 .036575319 .35299684 .04159546 .6609955 .072647098 .673996 .052612306 .68499758 .034576417 .69299319 .019546509L.73999026 .052612306C.71598818 .09567261 .6629944 .1678009 .6199951 .21987915L.57499697 .1918335C.59098818 .17080689 .60899356 .14675904 .6269989 .12272644L.36898805 .09968567C.40299989 .13975525 .43598939 .18682862 .46798707 .23591614H.82598879V-.004486084C.82598879-.01651001 .82099917-.020507813 .80599978-.021514893 .79100039-.022521973 .73599246-.022521973 .6799927-.020507813 .68899539-.036514284 .69999697-.057510377 .7029877-.07450867 .7769928-.07450867 .82398989-.07450867 .85398867-.06552124 .8819885-.055511476 .8909912-.039520265 .8909912-.0034942628V.29492188H.5039978L.54499819 .3688202H.8279877V.6490936H.7619934V.42382813H.23899842V.6490936M.6779938 .64408877 .6329956 .6661072C.598999 .6370697 .55799868 .6090393 .5119934 .5830078 .45599366 .6110382 .397995 .6380768 .34700013 .6621094L.31799317 .628067C.36299134 .6060333 .4139862 .582016 .46398927 .5559845 .4059906 .52593997 .34498597 .49891664 .2889862 .47789 .30099488 .46887208 .31799317 .44784547 .32499696 .4378357 .38398744 .4628601 .44898988 .49591065 .5119934 .5319519 .57299807 .49990846 .6299896 .46887208 .66799929 .44483949L.69999697 .48388673C.6639862 .50491335 .6139984 .5319519 .5589905 .5599823 .6029968 .5870209 .6439972 .61505129 .6779938 .64408877Z"/>
<path id="font_2_1226" d="M.54299929 .52734377H.43699647L.29899598 .33221437 .21499634 .52734377H.11399841L.23899842 .2831726 .017990113 0H.125L.28599549 .22213745 .38598634 0H.48799134L.34700013 .275177 .54299929 .52734377Z"/>
<path id="font_2_18" d="M.27598573 0H.36799623V.6894531H.2869873L.07998657 .5613556 .11999512 .49632264 .27598573 .5913849V0Z"/>
<path id="font_2_19" d="M.2579956 .7011719C.16299439 .7011719 .09899902 .66716006 .04499817 .6001587L.10699463 .5521393C.1499939 .6031647 .18699646 .62516787 .25299073 .62516787 .32798768 .62516787 .37298585 .57914736 .37298585 .5041199 .37298585 .39509584 .31498719 .31906129 .05899048 .07299805V0H.47399903L.4850006 .07699585H.1639862C.3889923 .28205873 .46899415 .38308717 .46899415 .50813296 .46899415 .617157 .3909912 .7011719 .2579956 .7011719Z"/>
<path id="font_2_1228" d="M.47599793 .52734377H.12399292L.11299133 .44934083H.35299684L.035995485 .068984989 .026992798 0H.394989L.41600038 .07699585H.14898682L.46699525 .45733644 .47599793 .52734377Z"/>
<path id="font_2_30" d="M.06199646 .14567566H.43798829V.22167969H.06199646V.14567566M.06199646 .33805848H.43798829V.4140625H.06199646V.33805848Z"/>
<path id="font_3_6464" d="M.72499087 .671875V.75587466H.07499695V.671875H.35499574V0H.44499208V.671875H.72499087Z"/>
<path id="font_2_1175" d="M.35099793 .28411866 .49598695 .53125H.32798768L.25698854 .36116029 .18299866 .53125H.005996704L.1599884 .27912904-.011001587 0H.16099549L.25099183 .19908142 .34298707 0H.5219879L.35099793 .28411866Z"/>
<path id="font_2_754" d="M.06199646 .2421875H.43798829V.31817628H.06199646V.2421875Z"/>
<path id="font_2_17" d="M.27999879 .62815859C.36299134 .62815859 .4079895 .55218508 .4079895 .34521485 .4079895 .13725281 .36299134 .061279298 .27999879 .061279298 .19599915 .061279298 .1519928 .13725281 .1519928 .34521485 .1519928 .55218508 .19599915 .62815859 .27999879 .62815859M.27999879 .7011719C.12998963 .7011719 .055999757 .5781708 .055999757 .34521485 .055999757 .11225891 .12998963-.01171875 .27999879-.01171875 .42999269-.01171875 .5039978 .11225891 .5039978 .34521485 .5039978 .57717898 .42999269 .7011719 .27999879 .7011719Z"/>
<path id="font_2_35" d="M.2899933 .07598877H.19499207V.32421876H.30799867C.3909912 .32421876 .46299745 .29318238 .46299745 .1960907 .46299745 .0960083 .3899994 .07598877 .2899933 .07598877M.272995 .6144409C.375 .6144409 .43598939 .59342959 .43598939 .5083313 .43598939 .43525697 .37599183 .3972168 .29899598 .3972168H.19499207V.6144409H.272995M.4039917 .36421205C.47099305 .37820436 .5329895 .43025209 .5329895 .5153351 .5329895 .6354523 .43299867 .6894531 .2630005 .6894531H.099990848V0H.2899933C.44999696 0 .5629883 .049987794 .5629883 .1960907 .5629883 .3132019 .48399354 .35020448 .4039917 .36421205Z"/>
<path id="font_1_9733" d="M.3869934 .5721588 .32199098 .5971832C.26098634 .5211029 .1619873 .44100953 .07299805 .3899536 .08799744 .37794496 .11399841 .35292054 .125 .3388977 .21299744 .39796449 .31799317 .48706056 .3869934 .5721588M.673996 .5971832 .621994 .55914309C.71598818 .4950714 .82699587 .39996339 .8779907 .33589173L.9339905 .37994386C.8789978 .4440155 .7659912 .53512576 .673996 .5971832M.34899903 .42199708 .2889862 .40296937C.32899476 .30386354 .38398744 .22076416 .45399476 .1506958 .34799195 .068603519 .21099854 .014541626 .04699707-.020507813 .05999756-.03552246 .08099365-.06555176 .08898926-.08157349 .25299073-.040527345 .3929901 .018539429 .5039978 .10664368 .61099246 .018539429 .7480011-.040527345 .91600039-.07255554 .9249878-.05354309 .94299319-.025512696 .95799258-.010482788 .7939911 .016540528 .6589966 .07060242 .55400088 .1506958 .625 .21977234 .6819916 .30485536 .7220001 .40898133L.6549988 .42799378C.6199951 .33389283 .56900027 .25680543 .5039978 .19374085 .43598939 .25680543 .38398744 .33389283 .34899903 .42199708M.48399354 .8473358 .42099 .8253174C.44799806 .78630068 .47599793 .732254 .48999024 .6982422H.067993167V.63223269H.9299927V.6982422H.5049896L.55799868 .71824648C.54499819 .75227358 .5119934 .807312 .48399354 .8473358Z"/>
<path id="font_1_42730" d="M.3999939 .7163086H.19699097C.21299744 .7493286 .22698975 .7843323 .23899842 .8183441L.17999268 .83535769C.15098572 .74331668 .099990848 .65431216 .040985109 .5941162 .051986696 .58006289 .069992069 .5479584 .07499695 .53393557 .10598755 .5670166 .13598633 .6081543 .16299439 .6533203H.3999939V.7163086M.4079895 .3408203H.2679901V.48294068H.3849945V.5439453H.10598755V.48294068H.20698548V.3408203H.06399536V.2788086H.20698548V.07258606C.20698548 .029541016 .17599488 .0025177003 .15899658-.0074920656 .17098999-.021514893 .18699646-.048538209 .19198609-.06455994 .20698548-.048538209 .23199463-.03352356 .397995 .060577394 .3929901 .07460022 .38598634 .100616458 .38398744 .11764526L.2679901 .05557251V.2788086H.4079895V.3408203M.81399539 .83935549H.7519989V.70410159H.60598757V.83929446H.54499819V.70410159H.44499208V.64408877H.54499819V.5048828H.42099V.44387818H.95700076V.5048828H.81399539V.64408877H.9339905V.70410159H.81399539V.83935549M.60598757 .64408877H.7519989V.5048828H.60598757V.64408877M.54100039 .19174195V.3017578H.82398989V.19174195H.54100039M.54100039 .13574219H.82398989V.0234375H.54100039V.13574219M.8880005 .3587494H.47898866V-.07658386H.54100039V-.032577516H.82398989V-.07258606H.8880005V.3587494Z"/>
</defs>
<use data-text="&#xff08;" xlink:href="#font_1_59062" transform="matrix(7.9701,0,0,-7.9701,9.006996,18.171998)" fill="#3b4252"/>
<use data-text="A" xlink:href="#font_2_34" transform="matrix(7.9701,0,0,-7.9701,16.976998,18.171998)" fill="#3b4252"/>
<use data-text="&#xff09;" xlink:href="#font_1_59063" transform="matrix(7.9701,0,0,-7.9701,21.543999,18.171998)" fill="#3b4252"/>
<use data-text="&#x65b9;" xlink:href="#font_1_20139" transform="matrix(7.9701,0,0,-7.9701,29.5141,18.171998)" fill="#3b4252"/>
<use data-text="&#x5411;" xlink:href="#font_1_11985" transform="matrix(7.9701,0,0,-7.9701,37.4842,18.171998)" fill="#3b4252"/>
<use data-text="&#x1d430;" xlink:href="#font_2_1174" transform="matrix(7.9701,0,0,-7.9701,47.565999,18.171998)" fill="#3b4252"/>
<use data-text="A" xlink:href="#font_2_34" transform="matrix(5.9776,0,0,-5.9776,53.535997,20.96199)" fill="#3b4252"/>
<use data-text="&#xff1a;" xlink:href="#font_1_63163" transform="matrix(7.9701,0,0,-7.9701,57.459,18.171998)" fill="#3b4252"/>
<use data-text="&#x6295;" xlink:href="#font_1_18754" transform="matrix(7.9701,0,0,-7.9701,65.4291,18.171998)" fill="#3b4252"/>
<use data-text="&#x5f71;" xlink:href="#font_1_17364" transform="matrix(7.9701,0,0,-7.9701,73.3992,18.171998)" fill="#3b4252"/>
<use data-text="&#x540e;" xlink:href="#font_1_11982" transform="matrix(7.9701,0,0,-7.9701,81.3693,18.171998)" fill="#3b4252"/>
<use data-text="&#x5206;" xlink:href="#font_1_11168" transform="matrix(7.9701,0,0,-7.9701,89.3394,18.171998)" fill="#3b4252"/>
<use data-text="&#x79bb;" xlink:href="#font_1_29073" transform="matrix(7.9701,0,0,-7.9701,97.309497,18.171998)" fill="#3b4252"/>
<path transform="matrix(1,0,0,-1,1.9929962,251.437)" stroke-width=".69739" stroke-linecap="butt" stroke-miterlimit="10" stroke-linejoin="miter" fill="none" stroke="#6b7280" d="M17.00781 184.25337H95.56332"/>
<path transform="matrix(1,0,0,-1,95.990909,67.183628)" d="M3.01491 0 1.08115 .7361 1.73282 0 1.08115-.7361Z" fill="#6b7280"/>
<path transform="matrix(1,0,0,-1,95.990909,67.183628)" stroke-width=".66968" stroke-linecap="butt" stroke-miterlimit="10" stroke-linejoin="miter" fill="none" stroke="#6b7280" d="M3.01491 0 1.08115 .7361 1.73282 0 1.08115-.7361Z"/>
<use data-text="&#x1d465;" xlink:href="#font_2_1226" transform="matrix(7.9701,0,0,-7.9701,101.304,67.88899)" fill="#6b7280"/>
<use data-text="1" xlink:href="#font_2_18" transform="matrix(5.9776,0,0,-5.9776,105.528,70.678989)" fill="#6b7280"/>
<path transform="matrix(1,0,0,-1,1.9929962,251.437)" stroke-width=".69739" stroke-linecap="butt" stroke-miterlimit="10" stroke-linejoin="miter" fill="none" stroke="#6b7280" d="M56.69334 157.46552V210.02692"/>
<path transform="matrix(0,-1,-1,-0,58.686338,42.97548)" d="M3.01491 0 1.08115 .7361 1.73282 0 1.08115-.7361Z" fill="#6b7280"/>
<path transform="matrix(0,-1,-1,-0,58.686338,42.97548)" stroke-width=".66968" stroke-linecap="butt" stroke-miterlimit="10" stroke-linejoin="miter" fill="none" stroke="#6b7280" d="M3.01491 0 1.08115 .7361 1.73282 0 1.08115-.7361Z"/>
<use data-text="&#x1d465;" xlink:href="#font_2_1226" transform="matrix(7.9701,0,0,-7.9701,54.651,34.871995)" fill="#6b7280"/>
<use data-text="2" xlink:href="#font_2_19" transform="matrix(5.9776,0,0,-5.9776,58.875,37.661989)" fill="#6b7280"/>
<path transform="matrix(1,0,0,-1,1.9929962,251.437)" d="M28.70702 164.4106C28.70702 165.23595 28.03795 165.90502 27.2126 165.90502 26.38725 165.90502 25.71819 165.23595 25.71819 164.4106 25.71819 163.58527 26.38725 162.91619 27.2126 162.91619 28.03795 162.91619 28.70702 163.58527 28.70702 164.4106ZM27.2126 164.4106" fill="#7b95c6"/>
<path transform="matrix(1,0,0,-1,1.9929962,251.437)" d="M33.24243 204.09613C33.24243 204.92148 32.57336 205.59055 31.74802 205.59055 30.92267 205.59055 30.2536 204.92148 30.2536 204.09613 30.2536 203.27079 30.92267 202.60172 31.74802 202.60172 32.57336 202.60172 33.24243 203.27079 33.24243 204.09613ZM31.74802 204.09613" fill="#7b95c6"/>
<path transform="matrix(1,0,0,-1,1.9929962,251.437)" d="M37.7782 204.09613C37.7782 204.92148 37.10913 205.59055 36.28378 205.59055 35.45844 205.59055 34.78937 204.92148 34.78937 204.09613 34.78937 203.27079 35.45844 202.60172 36.28378 202.60172 37.10913 202.60172 37.7782 203.27079 37.7782 204.09613ZM36.28378 204.09613" fill="#7b95c6"/>
<path transform="matrix(1,0,0,-1,1.9929962,251.437)" d="M42.31361 164.4106C42.31361 165.23595 41.64455 165.90502 40.8192 165.90502 39.99387 165.90502 39.32478 165.23595 39.32478 164.4106 39.32478 163.58527 39.99387 162.91619 40.8192 162.91619 41.64455 162.91619 42.31361 163.58527 42.31361 164.4106ZM40.8192 164.4106" fill="#7b95c6"/>
<path transform="matrix(1,0,0,-1,1.9929962,251.437)" d="M71.07306 162.91619V165.90502H74.06189V162.91619ZM74.06189 165.90502" fill="#c85e62"/>
<path transform="matrix(1,0,0,-1,1.9929962,251.437)" d="M75.60847 202.60172V205.59055H78.5973V202.60172ZM78.5973 205.59055" fill="#c85e62"/>
<path transform="matrix(1,0,0,-1,1.9929962,251.437)" d="M80.14424 202.60172V205.59055H83.13307V202.60172ZM83.13307 205.59055" fill="#c85e62"/>
<path transform="matrix(1,0,0,-1,1.9929962,251.437)" d="M84.67966 162.91619V165.90502H87.66849V162.91619ZM87.66849 165.90502" fill="#c85e62"/>
<path transform="matrix(1,0,0,-1,1.9929962,251.437)" stroke-width="1.0959" stroke-linecap="butt" stroke-miterlimit="10" stroke-linejoin="miter" fill="none" stroke="#67a583" d="M56.69334 184.25337H86.6575"/>
<path transform="matrix(1,0,0,-1,86.74962,67.183628)" d="M3.66093 0 1.31302 .89377 2.10417 0 1.31302-.89377Z" fill="#67a583"/>
<path transform="matrix(1,0,0,-1,86.74962,67.183628)" stroke-width=".81319" stroke-linecap="butt" stroke-miterlimit="10" stroke-linejoin="miter" fill="none" stroke="#67a583" d="M3.66093 0 1.31302 .89377 2.10417 0 1.31302-.89377Z"/>
<use data-text="&#x1d430;" xlink:href="#font_2_1174" transform="matrix(7.9701,0,0,-7.9701,93.11299,62.84999)" fill="#67a583"/>
<use data-text="A" xlink:href="#font_2_34" transform="matrix(5.9776,0,0,-5.9776,99.08199,65.639987)" fill="#67a583"/>
<path transform="matrix(1,0,0,-1,1.9929962,251.437)" stroke-width=".69739" stroke-linecap="butt" stroke-miterlimit="10" stroke-linejoin="miter" fill="none" stroke="#6b7280" d="M104.88268 184.25337H158.03627"/>
<path transform="matrix(1,0,0,-1,157.89968,67.183628)" d="M4.67627 0 1.12604 1.34274 2.30391 0 1.12604-1.34274Z" fill="#6b7280"/>
<path transform="matrix(1,0,0,-1,157.89968,67.183628)" stroke-width=".69739" stroke-linecap="butt" stroke-miterlimit="10" stroke-linejoin="miter" fill="none" stroke="#6b7280" d="M4.67627 0 1.12604 1.34274 2.30391 0 1.12604-1.34274Z"/>
<use data-text="&#x1d467;" xlink:href="#font_2_1228" transform="matrix(7.9701,0,0,-7.9701,121.193988,63.048997)" fill="#3b4252"/>
<use data-text="=" xlink:href="#font_2_30" transform="matrix(7.9701,0,0,-7.9701,127.31502,63.048997)" fill="#3b4252"/>
<use data-text="&#x1d430;" xlink:href="#font_2_1174" transform="matrix(7.9701,0,0,-7.9701,133.51575,63.048997)" fill="#3b4252"/>
<use data-text="&#x22a4;" xlink:href="#font_3_6464" transform="matrix(5.9776,0,0,-5.9776,139.72899,59.860994)" fill="#3b4252"/>
<use data-text="A" xlink:href="#font_2_34" transform="matrix(5.9776,0,0,-5.9776,139.48999,65.83899)" fill="#3b4252"/>
<use data-text="&#x1d431;" xlink:href="#font_2_1175" transform="matrix(7.9701,0,0,-7.9701,145.00899,63.048997)" fill="#3b4252"/>
<path transform="matrix(1,0,0,-1,1.9929962,251.437)" stroke-width=".69739" stroke-linecap="butt" stroke-miterlimit="10" stroke-linejoin="miter" fill="none" stroke="#6b7280" d="M170.78838 184.25337H299.94309"/>
<path transform="matrix(1,0,0,-1,300.37068,67.183628)" d="M3.01491 0 1.08115 .7361 1.73282 0 1.08115-.7361Z" fill="#6b7280"/>
<path transform="matrix(1,0,0,-1,300.37068,67.183628)" stroke-width=".66968" stroke-linecap="butt" stroke-miterlimit="10" stroke-linejoin="miter" fill="none" stroke="#6b7280" d="M3.01491 0 1.08115 .7361 1.73282 0 1.08115-.7361Z"/>
<use data-text="&#x1d467;" xlink:href="#font_2_1228" transform="matrix(7.9701,0,0,-7.9701,305.68403,69.284)" fill="#6b7280"/>
<path transform="matrix(1,0,0,-1,1.9929962,251.437)" stroke-width=".69739" stroke-linecap="butt" stroke-miterlimit="10" stroke-linejoin="miter" fill="none" stroke="#6b7280" d="M198.42652 181.4187V187.08803"/>
<use data-text="&#x2212;" xlink:href="#font_2_754" transform="matrix(7.9701,0,0,-7.9701,196.19499,84.79199)" fill="#3b4252"/>
<use data-text="1" xlink:href="#font_2_18" transform="matrix(7.9701,0,0,-7.9701,200.18004,84.79199)" fill="#3b4252"/>
<path transform="matrix(1,0,0,-1,1.9929962,251.437)" stroke-width=".69739" stroke-linecap="butt" stroke-miterlimit="10" stroke-linejoin="miter" fill="none" stroke="#6b7280" d="M235.27738 181.4187V187.08803"/>
<use data-text="0" xlink:href="#font_2_17" transform="matrix(7.9701,0,0,-7.9701,235.03902,84.88699)" fill="#3b4252"/>
<path transform="matrix(1,0,0,-1,1.9929962,251.437)" stroke-width=".69739" stroke-linecap="butt" stroke-miterlimit="10" stroke-linejoin="miter" fill="none" stroke="#6b7280" d="M272.12825 181.4187V187.08803"/>
<use data-text="1" xlink:href="#font_2_18" transform="matrix(7.9701,0,0,-7.9701,271.89,84.79199)" fill="#3b4252"/>
<path transform="matrix(1,0,0,-1,1.9929962,251.437)" stroke-width=".89664" stroke-linecap="butt" stroke-miterlimit="10" stroke-linejoin="miter" fill="none" stroke="#7b95c6" d="M198.42652 170.08003V198.4267"/>
<path transform="matrix(1,0,0,-1,1.9929962,251.437)" d="M188.86557 191.34003C188.86557 192.16538 188.1965 192.83444 187.37116 192.83444 186.5458 192.83444 185.87674 192.16538 185.87674 191.34003 185.87674 190.51468 186.5458 189.84561 187.37116 189.84561 188.1965 189.84561 188.86557 190.51468 188.86557 191.34003ZM187.37116 191.34003" fill="#7b95c6"/>
<path transform="matrix(1,0,0,-1,1.9929962,251.437)" d="M196.23563 191.34003C196.23563 192.16538 195.56656 192.83444 194.74121 192.83444 193.91587 192.83444 193.2468 192.16538 193.2468 191.34003 193.2468 190.51468 193.91587 189.84561 194.74121 189.84561 195.56656 189.84561 196.23563 190.51468 196.23563 191.34003ZM194.74121 191.34003" fill="#7b95c6"/>
<path transform="matrix(1,0,0,-1,1.9929962,251.437)" d="M203.60626 191.34003C203.60626 192.16538 202.9372 192.83444 202.11185 192.83444 201.2865 192.83444 200.61743 192.16538 200.61743 191.34003 200.61743 190.51468 201.2865 189.84561 202.11185 189.84561 202.9372 189.84561 203.60626 190.51468 203.60626 191.34003ZM202.11185 191.34003" fill="#7b95c6"/>
<path transform="matrix(1,0,0,-1,1.9929962,251.437)" d="M210.97632 191.34003C210.97632 192.16538 210.30725 192.83444 209.4819 192.83444 208.65656 192.83444 207.98749 192.16538 207.98749 191.34003 207.98749 190.51468 208.65656 189.84561 209.4819 189.84561 210.30725 189.84561 210.97632 190.51468 210.97632 191.34003ZM209.4819 191.34003" fill="#7b95c6"/>
<path transform="matrix(1,0,0,-1,1.9929962,251.437)" stroke-width=".89664" stroke-linecap="butt" stroke-miterlimit="10" stroke-linejoin="miter" fill="none" stroke="#c85e62" d="M272.12825 170.08003V198.4267"/>
<path transform="matrix(1,0,0,-1,1.9929962,251.437)" d="M259.57847 175.67229V178.66112H262.5673V175.67229ZM262.5673 178.66112" fill="#c85e62"/>
<path transform="matrix(1,0,0,-1,1.9929962,251.437)" d="M266.9485 175.67229V178.66112H269.93733V175.67229ZM269.93733 178.66112" fill="#c85e62"/>
<path transform="matrix(1,0,0,-1,1.9929962,251.437)" d="M274.31913 175.67229V178.66112H277.30796V175.67229ZM277.30796 178.66112" fill="#c85e62"/>
<path transform="matrix(1,0,0,-1,1.9929962,251.437)" d="M281.68919 175.67229V178.66112H284.678V175.67229ZM284.678 178.66112" fill="#c85e62"/>
<use data-text="&#xff08;" xlink:href="#font_1_59062" transform="matrix(7.9701,0,0,-7.9701,9.006996,131.55899)" fill="#3b4252"/>
<use data-text="B" xlink:href="#font_2_35" transform="matrix(7.9701,0,0,-7.9701,16.976998,131.55899)" fill="#3b4252"/>
<use data-text="&#xff09;" xlink:href="#font_1_59063" transform="matrix(7.9701,0,0,-7.9701,21.821999,131.55899)" fill="#3b4252"/>
<use data-text="&#x65b9;" xlink:href="#font_1_20139" transform="matrix(7.9701,0,0,-7.9701,29.792099,131.55899)" fill="#3b4252"/>
<use data-text="&#x5411;" xlink:href="#font_1_11985" transform="matrix(7.9701,0,0,-7.9701,37.7622,131.55899)" fill="#3b4252"/>
<use data-text="&#x1d430;" xlink:href="#font_2_1174" transform="matrix(7.9701,0,0,-7.9701,47.845,131.55899)" fill="#3b4252"/>
<use data-text="B" xlink:href="#font_2_35" transform="matrix(5.9776,0,0,-5.9776,53.814,134.349)" fill="#3b4252"/>
<use data-text="&#xff1a;" xlink:href="#font_1_63163" transform="matrix(7.9701,0,0,-7.9701,57.947,131.55899)" fill="#3b4252"/>
<use data-text="&#x6295;" xlink:href="#font_1_18754" transform="matrix(7.9701,0,0,-7.9701,65.9171,131.55899)" fill="#3b4252"/>
<use data-text="&#x5f71;" xlink:href="#font_1_17364" transform="matrix(7.9701,0,0,-7.9701,73.8872,131.55899)" fill="#3b4252"/>
<use data-text="&#x540e;" xlink:href="#font_1_11982" transform="matrix(7.9701,0,0,-7.9701,81.8573,131.55899)" fill="#3b4252"/>
<use data-text="&#x4ea4;" xlink:href="#font_1_9733" transform="matrix(7.9701,0,0,-7.9701,89.8274,131.55899)" fill="#3b4252"/>
<use data-text="&#x9519;" xlink:href="#font_1_42730" transform="matrix(7.9701,0,0,-7.9701,97.7975,131.55899)" fill="#3b4252"/>
<path transform="matrix(1,0,0,-1,1.9929962,251.437)" stroke-width=".69739" stroke-linecap="butt" stroke-miterlimit="10" stroke-linejoin="miter" fill="none" stroke="#6b7280" d="M17.00781 70.86667H95.56332"/>
<path transform="matrix(1,0,0,-1,95.990909,180.57033)" d="M3.01491 0 1.08115 .7361 1.73282 0 1.08115-.7361Z" fill="#6b7280"/>
<path transform="matrix(1,0,0,-1,95.990909,180.57033)" stroke-width=".66968" stroke-linecap="butt" stroke-miterlimit="10" stroke-linejoin="miter" fill="none" stroke="#6b7280" d="M3.01491 0 1.08115 .7361 1.73282 0 1.08115-.7361Z"/>
<use data-text="&#x1d465;" xlink:href="#font_2_1226" transform="matrix(7.9701,0,0,-7.9701,101.304,181.276)" fill="#6b7280"/>
<use data-text="1" xlink:href="#font_2_18" transform="matrix(5.9776,0,0,-5.9776,105.528,184.06598)" fill="#6b7280"/>
<path transform="matrix(1,0,0,-1,1.9929962,251.437)" stroke-width=".69739" stroke-linecap="butt" stroke-miterlimit="10" stroke-linejoin="miter" fill="none" stroke="#6b7280" d="M56.69334 44.07883V96.64023"/>
<path transform="matrix(0,-1,-1,-0,58.686338,156.36217)" d="M3.01491 0 1.08115 .7361 1.73282 0 1.08115-.7361Z" fill="#6b7280"/>
<path transform="matrix(0,-1,-1,-0,58.686338,156.36217)" stroke-width=".66968" stroke-linecap="butt" stroke-miterlimit="10" stroke-linejoin="miter" fill="none" stroke="#6b7280" d="M3.01491 0 1.08115 .7361 1.73282 0 1.08115-.7361Z"/>
<use data-text="&#x1d465;" xlink:href="#font_2_1226" transform="matrix(7.9701,0,0,-7.9701,54.651,148.259)" fill="#6b7280"/>
<use data-text="2" xlink:href="#font_2_19" transform="matrix(5.9776,0,0,-5.9776,58.875,151.04898)" fill="#6b7280"/>
<path transform="matrix(1,0,0,-1,1.9929962,251.437)" d="M28.70702 51.02391C28.70702 51.84926 28.03795 52.51833 27.2126 52.51833 26.38725 52.51833 25.71819 51.84926 25.71819 51.02391 25.71819 50.19856 26.38725 49.5295 27.2126 49.5295 28.03795 49.5295 28.70702 50.19856 28.70702 51.02391ZM27.2126 51.02391" fill="#7b95c6"/>
<path transform="matrix(1,0,0,-1,1.9929962,251.437)" d="M33.24243 90.70944C33.24243 91.53479 32.57336 92.20386 31.74802 92.20386 30.92267 92.20386 30.2536 91.53479 30.2536 90.70944 30.2536 89.8841 30.92267 89.21503 31.74802 89.21503 32.57336 89.21503 33.24243 89.8841 33.24243 90.70944ZM31.74802 90.70944" fill="#7b95c6"/>
<path transform="matrix(1,0,0,-1,1.9929962,251.437)" d="M37.7782 90.70944C37.7782 91.53479 37.10913 92.20386 36.28378 92.20386 35.45844 92.20386 34.78937 91.53479 34.78937 90.70944 34.78937 89.8841 35.45844 89.21503 36.28378 89.21503 37.10913 89.21503 37.7782 89.8841 37.7782 90.70944ZM36.28378 90.70944" fill="#7b95c6"/>
<path transform="matrix(1,0,0,-1,1.9929962,251.437)" d="M42.31361 51.02391C42.31361 51.84926 41.64455 52.51833 40.8192 52.51833 39.99387 52.51833 39.32478 51.84926 39.32478 51.02391 39.32478 50.19856 39.99387 49.5295 40.8192 49.5295 41.64455 49.5295 42.31361 50.19856 42.31361 51.02391ZM40.8192 51.02391" fill="#7b95c6"/>
<path transform="matrix(1,0,0,-1,1.9929962,251.437)" d="M71.07306 49.5295V52.51833H74.06189V49.5295ZM74.06189 52.51833" fill="#c85e62"/>
<path transform="matrix(1,0,0,-1,1.9929962,251.437)" d="M75.60847 89.21503V92.20386H78.5973V89.21503ZM78.5973 92.20386" fill="#c85e62"/>
<path transform="matrix(1,0,0,-1,1.9929962,251.437)" d="M80.14424 89.21503V92.20386H83.13307V89.21503ZM83.13307 92.20386" fill="#c85e62"/>
<path transform="matrix(1,0,0,-1,1.9929962,251.437)" d="M84.67966 49.5295V52.51833H87.66849V49.5295ZM87.66849 52.51833" fill="#c85e62"/>
<path transform="matrix(1,0,0,-1,1.9929962,251.437)" stroke-width="1.0959" stroke-linecap="butt" stroke-miterlimit="10" stroke-linejoin="miter" fill="none" stroke="#67a583" d="M56.69334 70.86667 74.52367 91.66861"/>
<path transform="matrix(.65076,-.75922,-.75922,-.65076,75.27965,161.21158)" d="M3.66093 0 1.31302 .89377 2.10417 0 1.31302-.89377Z" fill="#67a583"/>
<path transform="matrix(.65076,-.75922,-.75922,-.65076,75.27965,161.21158)" stroke-width=".81319" stroke-linecap="butt" stroke-miterlimit="10" stroke-linejoin="miter" fill="none" stroke="#67a583" d="M3.66093 0 1.31302 .89377 2.10417 0 1.31302-.89377Z"/>
<use data-text="&#x1d430;" xlink:href="#font_2_1174" transform="matrix(7.9701,0,0,-7.9701,79.96001,153.219)" fill="#67a583"/>
<use data-text="B" xlink:href="#font_2_35" transform="matrix(5.9776,0,0,-5.9776,85.92901,156.00899)" fill="#67a583"/>
<path transform="matrix(1,0,0,-1,1.9929962,251.437)" stroke-width=".69739" stroke-linecap="butt" stroke-miterlimit="10" stroke-linejoin="miter" fill="none" stroke="#6b7280" d="M104.88268 70.86667H158.03627"/>
<path transform="matrix(1,0,0,-1,157.89968,180.57033)" d="M4.67627 0 1.12604 1.34274 2.30391 0 1.12604-1.34274Z" fill="#6b7280"/>
<path transform="matrix(1,0,0,-1,157.89968,180.57033)" stroke-width=".69739" stroke-linecap="butt" stroke-miterlimit="10" stroke-linejoin="miter" fill="none" stroke="#6b7280" d="M4.67627 0 1.12604 1.34274 2.30391 0 1.12604-1.34274Z"/>
<use data-text="&#x1d467;" xlink:href="#font_2_1228" transform="matrix(7.9701,0,0,-7.9701,121.193988,176.435)" fill="#3b4252"/>
<use data-text="=" xlink:href="#font_2_30" transform="matrix(7.9701,0,0,-7.9701,127.31502,176.435)" fill="#3b4252"/>
<use data-text="&#x1d430;" xlink:href="#font_2_1174" transform="matrix(7.9701,0,0,-7.9701,133.51575,176.435)" fill="#3b4252"/>
<use data-text="&#x22a4;" xlink:href="#font_3_6464" transform="matrix(5.9776,0,0,-5.9776,139.72899,173.247)" fill="#3b4252"/>
<use data-text="B" xlink:href="#font_2_35" transform="matrix(5.9776,0,0,-5.9776,139.48999,179.22499)" fill="#3b4252"/>
<use data-text="&#x1d431;" xlink:href="#font_2_1175" transform="matrix(7.9701,0,0,-7.9701,145.00899,176.435)" fill="#3b4252"/>
<path transform="matrix(1,0,0,-1,1.9929962,251.437)" stroke-width=".69739" stroke-linecap="butt" stroke-miterlimit="10" stroke-linejoin="miter" fill="none" stroke="#6b7280" d="M170.78838 70.86667H299.94309"/>
<path transform="matrix(1,0,0,-1,300.37068,180.57033)" d="M3.01491 0 1.08115 .7361 1.73282 0 1.08115-.7361Z" fill="#6b7280"/>
<path transform="matrix(1,0,0,-1,300.37068,180.57033)" stroke-width=".66968" stroke-linecap="butt" stroke-miterlimit="10" stroke-linejoin="miter" fill="none" stroke="#6b7280" d="M3.01491 0 1.08115 .7361 1.73282 0 1.08115-.7361Z"/>
<use data-text="&#x1d467;" xlink:href="#font_2_1228" transform="matrix(7.9701,0,0,-7.9701,305.68403,182.67)" fill="#6b7280"/>
<path transform="matrix(1,0,0,-1,1.9929962,251.437)" stroke-width=".69739" stroke-linecap="butt" stroke-miterlimit="10" stroke-linejoin="miter" fill="none" stroke="#6b7280" d="M198.42652 68.03201V73.70134"/>
<use data-text="&#x2212;" xlink:href="#font_2_754" transform="matrix(7.9701,0,0,-7.9701,196.19499,198.179)" fill="#3b4252"/>
<use data-text="1" xlink:href="#font_2_18" transform="matrix(7.9701,0,0,-7.9701,200.18004,198.179)" fill="#3b4252"/>
<path transform="matrix(1,0,0,-1,1.9929962,251.437)" stroke-width=".69739" stroke-linecap="butt" stroke-miterlimit="10" stroke-linejoin="miter" fill="none" stroke="#6b7280" d="M235.27738 68.03201V73.70134"/>
<use data-text="0" xlink:href="#font_2_17" transform="matrix(7.9701,0,0,-7.9701,235.03902,198.274)" fill="#3b4252"/>
<path transform="matrix(1,0,0,-1,1.9929962,251.437)" stroke-width=".69739" stroke-linecap="butt" stroke-miterlimit="10" stroke-linejoin="miter" fill="none" stroke="#6b7280" d="M272.12825 68.03201V73.70134"/>
<use data-text="1" xlink:href="#font_2_18" transform="matrix(7.9701,0,0,-7.9701,271.89,198.179)" fill="#3b4252"/>
<path transform="matrix(1,0,0,-1,1.9929962,251.437)" stroke-width=".89664" stroke-linecap="butt" stroke-miterlimit="10" stroke-linejoin="miter" fill="none" stroke="#7b95c6" d="M213.16664 56.69334V85.04001"/>
<path transform="matrix(1,0,0,-1,1.9929962,251.437)" d="M178.54738 77.95334C178.54738 78.77869 177.87831 79.44775 177.05297 79.44775 176.22762 79.44775 175.55855 78.77869 175.55855 77.95334 175.55855 77.12799 176.22762 76.45892 177.05297 76.45892 177.87831 76.45892 178.54738 77.12799 178.54738 77.95334ZM177.05297 77.95334" fill="#7b95c6"/>
<path transform="matrix(1,0,0,-1,1.9929962,251.437)" d="M241.9309 77.95334C241.9309 78.77869 241.26183 79.44775 240.43648 79.44775 239.61113 79.44775 238.94207 78.77869 238.94207 77.95334 238.94207 77.12799 239.61113 76.45892 240.43648 76.45892 241.26183 76.45892 241.9309 77.12799 241.9309 77.95334ZM240.43648 77.95334" fill="#7b95c6"/>
<path transform="matrix(1,0,0,-1,1.9929962,251.437)" d="M246.35338 77.95334C246.35338 78.77869 245.68431 79.44775 244.85897 79.44775 244.03362 79.44775 243.36455 78.77869 243.36455 77.95334 243.36455 77.12799 244.03362 76.45892 244.85897 76.45892 245.68431 76.45892 246.35338 77.12799 246.35338 77.95334ZM244.85897 77.95334" fill="#7b95c6"/>
<path transform="matrix(1,0,0,-1,1.9929962,251.437)" d="M191.8137 77.95334C191.8137 78.77869 191.14464 79.44775 190.31929 79.44775 189.49394 79.44775 188.82488 78.77869 188.82488 77.95334 188.82488 77.12799 189.49394 76.45892 190.31929 76.45892 191.14464 76.45892 191.8137 77.12799 191.8137 77.95334ZM190.31929 77.95334" fill="#7b95c6"/>
<path transform="matrix(1,0,0,-1,1.9929962,251.437)" stroke-width=".89664" stroke-linecap="butt" stroke-miterlimit="10" stroke-linejoin="miter" fill="none" stroke="#c85e62" d="M257.3881 56.69334V85.04001"/>
<path transform="matrix(1,0,0,-1,1.9929962,251.437)" d="M219.77947 62.2856V65.27443H222.7683V62.2856ZM222.7683 65.27443" fill="#c85e62"/>
<path transform="matrix(1,0,0,-1,1.9929962,251.437)" d="M283.163 62.2856V65.27443H286.15184V62.2856ZM286.15184 65.27443" fill="#c85e62"/>
<path transform="matrix(1,0,0,-1,1.9929962,251.437)" d="M287.58546 62.2856V65.27443H290.57429V62.2856ZM290.57429 65.27443" fill="#c85e62"/>
<path transform="matrix(1,0,0,-1,1.9929962,251.437)" d="M233.04579 62.2856V65.27443H236.03462V62.2856ZM236.03462 65.27443" fill="#c85e62"/>
</svg>
